/* XPM */
static char *result[] = {
/* columns rows colors chars-per-pixel */
"46 96 226 2 ",
"   c #010204",
".  c #01040B",
"X  c #010612",
"o  c #030914",
"O  c #03091B",
"+  c #020B1C",
"@  c #04111E",
"#  c #010C23",
"$  c #010F29",
"%  c #031224",
"&  c #02132B",
"*  c #0A172A",
"=  c #03192D",
"-  c #021433",
";  c #031A33",
":  c #0B1D31",
">  c #02173B",
",  c #021B3C",
"<  c #0E2237",
"1  c #02223D",
"2  c #12263A",
"3  c #021E44",
"4  c #021E4A",
"5  c #022343",
"6  c #032A44",
"7  c #0A2843",
"8  c #02244B",
"9  c #022C4C",
"0  c #182C47",
"q  c #02304E",
"w  c #18344B",
"e  c #022652",
"r  c #022C54",
"t  c #012D5C",
"y  c #023353",
"u  c #02355B",
"i  c #063A58",
"p  c #013A5D",
"a  c #143956",
"s  c #212F4C",
"d  c #21395A",
"f  c #012F62",
"g  c #013364",
"h  c #013D63",
"j  c #01346B",
"k  c #003C6B",
"l  c #003C72",
"z  c #003B78",
"x  c #2B3D61",
"c  c #04415B",
"v  c #1D465C",
"b  c #25445A",
"n  c #024465",
"m  c #00436D",
"M  c #024B6D",
"N  c #004674",
"B  c #014A73",
"V  c #00447B",
"C  c #004B7B",
"Z  c #194D72",
"A  c #00527E",
"S  c #025A7A",
"D  c #28476A",
"F  c #284D72",
"G  c #285773",
"H  c #315C74",
"J  c #33647C",
"K  c #41557E",
"L  c #003E84",
"P  c #004883",
"I  c #004B8B",
"U  c #025986",
"Y  c #00558B",
"T  c #005391",
"R  c #0D5691",
"E  c #005A94",
"W  c #005A9B",
"Q  c #355B83",
"!  c #02638C",
"~  c #086689",
"^  c #016C93",
"/  c #02689A",
"(  c #186E9B",
")  c #01749B",
"_  c #05799C",
"`  c #396789",
"'  c #2B6B93",
"]  c #396993",
"[  c #0059A5",
"{  c #0064A3",
"}  c #056BA7",
"|  c #006BAC",
" . c #017CA3",
".. c #0779A9",
"X. c #1277A9",
"o. c #0069B1",
"O. c #0077BD",
"+. c #2179A5",
"@. c #387AA7",
"#. c #4C6C8F",
"$. c #43718E",
"%. c #497998",
"&. c #4778A4",
"*. c #667FA0",
"=. c #0078C7",
"-. c #207CC1",
";. c #0786AA",
":. c #0285AC",
">. c #1384AD",
",. c #0A89B2",
"<. c #1488B7",
"1. c #0793B9",
"2. c #1293BB",
"3. c #1C92B8",
"4. c #3087AE",
"5. c #388AB6",
"6. c #28A3BD",
"7. c #55849F",
"8. c #4E84A6",
"9. c #5A89A7",
"0. c #5290B4",
"q. c #5A96B9",
"w. c #6592AF",
"e. c #6999B7",
"r. c #749BBA",
"t. c #74A0BA",
"y. c #0084C8",
"u. c #0892CD",
"i. c #0096D9",
"p. c #219BCB",
"a. c #0FA4CE",
"s. c #00B5DC",
"d. c #28A7D7",
"f. c #36AAD3",
"g. c #33ACD0",
"h. c #008EE2",
"j. c #009CE4",
"k. c #00A9E8",
"l. c #00B3EB",
"z. c #1AB7E6",
"x. c #00A3F1",
"c. c #02ABF2",
"v. c #00BAF6",
"b. c #30B6E8",
"n. c #4696CB",
"m. c #5397C4",
"M. c #669CC4",
"N. c #47A8D5",
"B. c #56A2D1",
"V. c #68A5C9",
"C. c #72ADC8",
"Z. c #43BEE7",
"A. c #6ABCE0",
"S. c #00C4E7",
"D. c #00C1F4",
"F. c #01C3FB",
"G. c #01CCFC",
"H. c #19CCF7",
"J. c #00D4F2",
"K. c #00DFF7",
"L. c #01D3FC",
"P. c #03DCFD",
"I. c #34D3F6",
"U. c #05E4FC",
"Y. c #09E3FC",
"T. c #06EAFE",
"R. c #0AECFD",
"E. c #13E9FE",
"W. c #1CEDFF",
"Q. c #04F4FE",
"!. c #0CF4FD",
"~. c #1BF4FF",
"^. c #18F7FE",
"/. c #2FE4FD",
"(. c #24F7FF",
"). c #2CFAFF",
"_. c #3EF4FF",
"`. c #35FBFF",
"'. c #3CFCFF",
"]. c #47CFF2",
"[. c #5AD8F5",
"{. c #66C5E9",
"}. c #67CDF8",
"|. c #68DCF7",
" X c #77DAF5",
".X c #4CE3FB",
"XX c #51E3FE",
"oX c #45FCFF",
"OX c #4BFDFF",
"+X c #54F4FF",
"@X c #53FDFF",
"#X c #5AFEFF",
"$X c #75E7FC",
"%X c #65FEFF",
"&X c #6CFEFF",
"*X c #7EF1FD",
"=X c #74FFFF",
"-X c #7CFFFF",
";X c #87B3BB",
":X c #A7C9C7",
">X c #8CD2ED",
",X c #87E8FC",
"<X c #90E0F9",
"1X c #88F4FE",
"2X c #84FFFF",
"3X c #8BFFFF",
"4X c #93F2FD",
"5X c #95FFFF",
"6X c #9BFFFF",
"7X c #A5E8FB",
"8X c #A3FFFF",
"9X c #ADFFFF",
"0X c #B4FFFF",
"qX c #BCFFFF",
"wX c #D7DFEC",
"eX c #D8DFED",
"rX c #D9E1EE",
"tX c #DBE3F0",
"yX c #C3FFFF",
"uX c #CCFFFF",
"iX c #D3FFFF",
"pX c #DCFFFF",
"aX c #E4FFFF",
"sX c #EBFFFF",
"dX c #F5FFFF",
"fX c #FCFFFF",
/* pixels */
"wXwXrXtXtXrXtXrXeXtXtXtXrXtXwXwXrXrXrXtXrXrXtXtXtXrXrXrXrXrXrXrXrXwXrXtXrXrXeXrXeXrXrXwXtXtX",
"rXrXrXeXtXrXwXtXrXtXtXtXtXrXwXrXwXrXrXtXrXrXrXrXrXrXrXrXrXrXrXrXeXeXrXtXrXrXrXrXeXrXrXrXtXrX",
"wXwXrXtXeXwXrXtXrXeXtXtXwXwXtXtXtXrXrXtXrXrXrXrXtXrXrXrXrXwXrXrXeXrXrXrXtXrXeXeXrXrXrXtXtXrX",
"tXwXtXrXrXeXwXwXrXrXtXtXwXtXtXtXrXrXtXtXtXtXtXrXtXrXrXrXrXrXrXrXrXwXrXrXtXrXeXrXrXtXtXtXtXrX",
"rXwXrXrXwXtXrXeXtXtXtXrXwXwXtXtXrXrXtXtXtXtXtXrXrXtXrXeXrXrXrXrXrXrXeXeXrXrXeXrXtXtXrXtXeXrX",
"wXtXtXrXrXrXeXtXrXtXrXrXtXtXtXtXrXrXtXtXtXrXrXeXrXtXrXrXwXwXrXrXrXrXrXrXrXrXrXrXrXtXrXrXeXeX",
"rXtXrXrXtXeXeXtXrXtXtXtXtXtXtXtXrXrXrXrXrXrXrXeXrXrXrXrXeXeXrXrXrXrXtXrXrXrXtXrXrXtXrXeXrXrX",
"rXtXwXtXtXtXeXtXtXtXtXrXrXwXrXtXtXrXtXrXwXrXrXrXtXrXrXrXrXrXrXrXrXrXrXtXrXrXrXrXrXtXtXtXrXrX",
"tXrXrXtXrXrXrXtXrXtXwXrXwXrXrXrXrXrXrXtXrXrXwXrXrXrXtXrXtXrXrXtXrXrXrXrXrXtXrXrXrXtXtXtXwXrX",
"rXtXrXrXrXrXrXtXrXrXrXrXrXrXtXrXrXrXrXrXrXeXwXrXrXtXtXtXrXrXrXrXrXrXtXtXrXrXrXwXeXrXtXrXwXrX",
"rXrXrXrXrXrXtXtXrXrXwXwXrXrXrXrX0 o : rXtXrXrXrXrXtXrXeXwXeXrXrXrXrXtXrXrXrXwXrXrXtXrXrXeXrX",
"rXeXrXrXtXrXtXtXrXrXrXrXrXwXrX.       tXtXrXrXrXrXtXrXrXrXrXrXrXrXtXtXrXtXrXrXrXrXtXrXrXeXrX",
"rXtXtXrXrXrXrXtXtXrXrXtXwXrXo         2 rXtXrXrXrXrXrXtXrXrXrXwXrXrXtXtXrXrXrXrXrXrXwXrXtXrX",
"rXrXrXwXrXrXrXtXrXrXrXrXrXrX@         b rXtXrXrXrXrXrXtXrXeXeXrXrXtXtXrXrXrXrXrXtXrXwXrXrXwX",
"rXrXrXrXrXtXrXrXrXrXrXrXrXrXo         rXtXtXeXeXrXwXrXrXrXeXrXrXtXrXrXrXrXrXrXrXrXrXrXtXrXrX",
"rXrXtXtXrXrXrXrXrXrXrXrXrXrX          tXtXtXrXrXrXrXrXtXrXtXtXtXrXrXrXrXrXrXrXrXrXrXrXrXtXtX",
"eXtXtXrXtXrXtXrXrXtXtXrXrXtX        o rXtXrXtXrXrXwXrXrXrXrXrXrXrXrXrXrXtXtXrXrXrXrXrXtXrXrX",
"eXeXtXtXtXtXtXrXrXrXrXrXrXrXrXrXrXrXrXrXtXrXtXtXrXrXrXrXrXtXrXrXrXrXrXrXrXrXtXrXwXrXrXtXrXrX",
"wXwXrXrXtXtXtXeXrXrXrXrXtXtXrXrXrXrXrXrXtXtXrXtXrXrXrXrXrXtXrXrXrXwXrXeXrXrXrXrXwXeXrXtXrXrX",
"wXrXtXtXtXrXrXrXrXrXrXtXrXtXrXrXtXtXrXrXrXtXtXtXwXrXrXeXrXrXrXrXrXrXrXrXtXtXrXwXeXrXrXrXwXrX",
"rXtXrXrXrXrXrXrXtXtXrXrXtXtXrXrXtXtXrXrXrXrXrXtXrXrXrXrXtXtXeXeXwXrXrXrXrXrXrXrXrXrXwXwXrXrX",
"rXrXrXwXrXtXrXtXrXrXtXtXtXtXtXrXrXrXrXrXwXwXtXtXrXeXeXrXrXtXtXrXrXrXtXrXrXrXwXrXrXrXtXrXtXtX",
"rXwXeXeXrXrXtXtXtXrXrXrXtXtXtXrXrXrXrXrXtXtXtXrXeXrXtXtXtXtXtXtXrXtXrXrXrXrXrXrXrXrXtXrXtXtX",
"rXwXrXtXrXeXrXtXrXrXrXrXtXrXwXwXwXrXrXrXrXtXrXrXwXeXeXtXtXeXrXrXrXrXrXrXrXrXrXwXeXrXrXtXrXtX",
"rXrXrXrXrXrXrXtXtXrXrXrXtXrXrXwXrXrXrXrXtXrXwXrXwXrXrXrXtXeXrXrXrXrXtXtXrXrXrXrXrXrXwXtXtXtX",
"wXrXrXrXrXrXrXrXtXrXtXrXrXrXrXrXrXrXrXrXtXrXrXrXwXrXrXrXtXtXtX2 rXrXrXtXrXtXrXrXrXrXrXtXtXrX",
"rXrXrXrXrXrXrXrXrXrXrXrXrXrXrXrXwXwXwXwXtXtXtXrXrXrXrXrXtXtX2 o o rXtXtXrXrXrXrXtXrXrXrXtXrX",
"rXtXrXtXrXrXrXrXrXrXrXrXtXrXtXrXrXrXrXrXtXtXtXrXrXrXrXrXtXtXo   . 2 tXtXrXrXrXrXrXrXrXrXtXrX",
"rXrXtXrXrXrXtXtXrXwXrXrXrXrXrXrXrXwXrXtXtXrXrXrXrXrXrXtXrXb         ` rXrXrXwXrXtXrXrXrXtXeX",
"rXrXrXrXwXrXtXrXrXrXrXrXrXrXrXrXrXrXrXtXtXrXrXrXtXrXrXrXrX2         o rXrXrXrXrXtXrXrXrXrXrX",
"rXtXrXrXrXrXwXrXrXrXrXrXwXrXrXrXrXrXtXrXrXrXrXrXrXrXrXrXrX@           0 rXwXwXrXtXtXrXtXrXwX",
"rXtXrXrXrXwXwXrXrXrXrXrXrXrXrXrXwXrXrXrXrXtXrXrXwXrXwXwX] .           . rXrXrXrXtXtXrXrXeXrX",
"rXtXrXrXrXwXrXrXrXrXrXrXrXrXrXrXtXrXrXrXeXeXeXeXwXeXrX&.F               tXtXtXtXeXtXrXrXrXrX",
"rXrXrXrXrXrXrXrXrXrXrXrXrXrXrXrXtXrXrXtX#.eXeXeXwXeXrX&.`               tXtXeXeXrXrXrXrXrXwX",
"rXrXrXwXwXwXrXrXrXrXrXrXrXrXrXrXrXtXtX&.B.tXeXeXwXrXrX&.&.              rXrXeXeXrXrXrXwXrXrX",
"wXrXrXrXwXrXrXrXrXrXrXrXtXrXrXrXrXrXtX&.0.tXeXwXrXrXtX&.&.              rXeXeXwXrXrXrXwXrXtX",
"rXrXrXrXrXrXrXrXrXrXrXrXrXrXrXrX8.9.e.C.;Xw.*.r.K * G 8.Q                 rXrXtXrXrXrXrXrXeX",
"rXrXrXwXrXrXrXrXrXrXrXrXrXrXrXrXw.q.t.C.1Xe.*.#.o . . F d                 s rXtXrXrXrXtXrXrX",
"rXtXwXwXrXrXtXrX$XiX.XrXrXrXrXw.e.e.9.}.5XM.% o .                         b rXrXrXwXrXrXrXwX",
"rXrXrXrXrXrXrXrXrX{.rXrXrXrXrXt.r.9.i.k.5X; $ O . .                       < rXrXrXrXtXrXrXrX",
"rXrXrXrXwXrXrXrXrXrXrXrXtXrXt.t.}.` I j qXP $ + X .                       X rXwXwXwXrXrXtXtX",
"rXtXrXrXrXwXrXtXrXrXrXrXw.7.9.9.+.[.> h.qXv.$ # X .                       . 0 wXwXwXtXrXrXrX",
"rXtXrXrXrXrXrXrXrXrXrXtX$.%.w.R R oX3 f 3Xx.3 t O . . .                   . * tXrXrXtXrXwXrX",
"tXtXrXrXwXrXrXrXrXrXrXJ J $.w.y .Xc.j j dXv.=.O.# O . X 4 .                 * tXtXrXrXrXwXtX",
"tXtXrXrXrXrXtXtXrXrXw.7.H e.8 k 2XG.8 g dXF.E.i.# O X X $ L . .             : tXrXwXeXeXeXtX",
"rXrXrXrXrXrXrXrXrXw.H b %.] 5 X.9Xg 3 j aXW.'.R.P # X X . h.. .             w rXwXrXrXrXeXeX",
"rXtXrXrXrXrXrXrXtX8.a 2 %., 8 %XXXy.P f pXoX&XT.I # O X X [ - X .           0 tXK eXwXeXeXeX",
"rXrXrXrXrXtXrXtXrX$.o . ; > 8 yX0X_.T l L._.%Xt 3 X # O O . W.O . . .     . x s s eXtXtXtXtX",
"rXrXwXrXrXrXrXrXtX2 o . % , r uX8XOXE g F.oX%Xz =.T.  # # # W.# X . .     O x * @ rXtXrXtXrX",
"rXwXrXrXrXrXrXtXrX: . . % , r iXP.'.=.T.F.%X5Xg l.P.L.$ # # h.  O X . .   s D X b s rXrXtXtX",
"rXrXrXrXrXrXwXrXrX. .   $ > } oX=X&X{ f P.%X'.O.I Y U.  $ $ (.e # X . . X #.  + : d rXrXtXrX",
"wXrXrXrXrXrXrXrX` . .   # > -.&Xn.-XR.P.Y.yX`.x.E e V L.- $ `.v.# O X . * $.. w . O rXrXtXtX",
"rXrXrXwXrXrXrXrXG . . . # > z.3Xn.f.yX[ F.&X).P.j.5 > - ^.- OXG.# O X X D ] O F . o tXtXrXrX",
"wXwXrXrXrXrXrXrX< . . . # > .X+X4.0.).#X3X).8XF.P G.3 8 t y.2Xx.$ # O X ] ] F   . o tXrXrXrX",
"rXrXrXrXwXrXwXwXv . O . # - /.+X&.4.l.OXc.qXdXOXU.L., 3 , > 5XF.- # O X &.#.d     o tXtXrXrX",
"rXwXrXrXwXrXrXrXw . * . # - ].+X@.R o.#XE.~.OXsXW g l.e 5 z 5XY.- # O O &.Q d . . o tXtXrXrX",
"rXrXrXrXrXtXJ <   . . . + $ /.I.@.' W iXL.u.~.sX| =XU.u e k oXE.> $ # + &.@.a X . o tXrXrXrX",
"rXtXJ J G G . .   . . . # $ H.+XZ k W _.o.[ G.fXR.dXP u t I 9Xv.> - % % m.m.v X o o tXrXrXrX",
"rXH % o o . .   . .   . # 5 Y.3Xu 3 t P.Y.{ v.fXsXfXy.P.g 8 -X=.3 - & & B.M.8 O o @ rXrXrXrX",
"rXo . . . . . . . . . X $ 8 c.OX3 g f E.0X0XR.qXfXfXG.T.V m 6X[ 8 5 , ; B.m.7 @ @ % :XrXrXrX",
"rX@ @ @ + + + + + % % % ; ; j.=.r P { aXuXqX@XiXfXfX(.l...k.+Xk g u r y V.q.5 1 1 6 >X>X;XtX",
"rX= = = = % = = ; = ; ; , h =.5 g T j.pXuXpX9X0XfXfX&X!.S.i.#XB m h p u N.( 9 9 q n >XA.7XwX",
"tX1 1 1 1 1 1 1 1 1 B 6 9 M E u C E 3XdXiXsXaXdXfXdX2XqXoX`.%XY C m n h 4.B u y y n $X>X7XrX",
"rX' y q 9 q q 9 q r | y y A ^ m / W iXdXsXdXdXfXfXdX%XaX6XqX%X .E A N m M p h p h B <X4X,XrX",
"tXtXtXrXrXrXrXc u p U.c h ) P.N Y / pXaXdXdXdXfXfXdXqXuXqXuXuXpXaXv.A B h h n h h !  X,X|.wX",
"rXrXrXrXrXrXrXrXn n u.M h  .P.C Y { pXaXdXdXaXdXfXaX0XuXyXuX6X9X6XqX(.m n p p h p ( ,X|.].wX",
"rXtXtXtXrXrXrXrXA ) ^ ! h u.U.W O.| iXpXdXdXdXfXfXdXsXuXuXyX2X2X3X3X3X^.h h p p n X.$XZ.|.wX",
"rXrXtXrXrXrXrX:.:.J.P.1.N A aX/ &Xy.iXpXaXdXdXdXfXpXiXiX-X-X'.k.G.`.P.v.h u u y i f.[.[.|.wX",
"rXrXtXtXrXtXtX:.U.=X9XJ.) B uX`.L.y.uXiXpXaXsXfXfXfXfXsXuXoXO.Y B Y Y n u u y q y g.[.[.].eX",
"wXrXtXrXtXrXU.=X@X6X0XJ.=XT.(.iX0X} iXpXiXiXsXfXfXfXfXfX0XE.T N m g u u 9 M 9 7 5 *X|.].|.wX",
"wXrXrXrXrXJ.6X=X-X3X8Xs.#X#XC iX0X#XdXfXaXuXdXfXfXfXfXfXOXv.V g y 9 9 6 i {.N.f.,X$X[.g.wXrX",
"rXrXrXrXrX3X5X6X@X!.T.U.R.R.p =XpXk.dXfXdXfXfXfXfXfXdXfX`.o.k r 8 5 , 1 p @. X|.|.$Xb.].rXrX",
"rXrXrXwX,.5X#X`.R.K.S.@Xs.q p s.#XP.R.fXfXfXfXfXfXdXdXdX@XI j 8 3 ; ; & Z 6 1 N. XZ.~ tXtXtX",
"rXrXwXrXI.2XJ.J.!.=X%X5X!.9 L.U !.(.l.fXfXfXdXaX@X%XsXdX%XI f 8 ; - & $ i % % % c n ~ rXtXtX",
"rXwXrXrXrX!.-X6X8X8XyXyX&XR.).i (.L.y.aXdXdXdX-XF.sXsXdX(.v.f 4 - & # # % O + @ @ c g.rXrXtX",
"rXrXrXrXrXS ^.=X@X9X5XyXOXQ.R.9Xm qXP.sXdXfXdXdXdXdXsXdX-XW.g 8 - $ # + + + ; y M ~ .XtXtXrX",
"rXrXtXrXtXrXS ;.R.=X3XiX'.'.K.OXT.m ).G.dXdXdXdXdXdXsXdXdXyXj 4 - $ + + % B <.X.X.>.( B.tXrX",
"wXwXrXrXrXrXwX4.1.3X&X6XoX2X5XS.%X..5Xj.pXdXdXdXfXdXsXsXdXiXj 4 - # + + = ..X._ _ ~ ) 5.rXrX",
"rXrXrXrXrXrXrXrX3.!.8X3X-X5X-XoX#X'.m W +XdXdXdXdXdXpXaXaXpXt 3 - # O O >.X._ _ ^ ! U rXrXrX",
"rXrXrXrXrXrXrXrXS :.!.(.).3X%X#XOX&X9 l.i.dXfXpXyXaXiXiXqX[ e > $ # O N 2.,.:.) ! S rXrXtXeX",
"rXrXrXrXrXrXrXtXy ^ _ ^ s.R.-X-X@X).'.n J.OX5Xc.=.F.[ P j f 3 - $ + & U >.,.;.! tXrXrXtXrXrX",
"rXrXrXrXrXrXrX% @ + ) S n S ) OX-X%X'.`.u r f W g g f e 4 4 > $ # + i.p.;.) _ rXtXtXrXtXrXwX",
"rXrXrXrXrXrXrXo o o + = 6 6 p ^ K.5X-X=XS.5 e 8 8 8 3 , > 3 $ - 1 <.3.1.^ rXrXtXrXtXrXtXwXeX",
"rXtXrXrXrXrXrX. . . o o o % % 1 y M _ E D.i.t l 8 3 , 8 N X.d.z.u.3.,.:.rXrXrXrXrXtXrXtXeXrX",
"rXrXrXrXwXrXrXrXtXw = . . . o o o + + + % 5 T.l.i.l.H.I.z.p.2.,.:.^ 6.rXrXrXwXrXrXtXrXwXrXrX",
"rXrXrXrXwXwXwXrXtXtXrXtX. . . . . . o o O O l T ^ 1.z.g.p.2.:.:._ 5.tXrXrXrXwXrXrXtXrXwXrXrX",
"rXrXrXrXrXrXrXrXtXrXrXrXo . . . . . . . X o O o o S ;.;.2.;. .) + = rXrXrXrXrXrXrXtXrXrXrXeX",
"rXrXrXrXrXrXrXrXrXrXrXrXwX: . . . o . o . X X X o c ;.;.~ a.I.1 + 6 rXrXrXrXrXrXrXrXrXrXrXrX",
"rXrXrXwXwXrXrXrXrXrXrXtXrXrXtXtX= : G a 1 * o . . o o + 3.6.@ @ 1 rXrXrXrXrXrXrXrXrXrXtXrXrX",
"rXrXrXrXwXrXrXrXrXrXrXrXrXrXwXrXrXrXrXrXrXrXrXa o o o o o . o % rXrXrXwXrXwXrXrXrXrXtXrXrXrX",
"rXrXrXrXrXrXrXrXrXtXrXrXtXrXrXrXrXrXrXrXrXrXrXrX1 o o o o o @ rXrXrXwXrXrXrXrXrXrXrXrXrXrXrX",
"rXrXrXrXrXrXrXrXrXrXrXrXtXtXrXwXrXrXrXrXrXrXrXwXrXrXwXrXrX* ' rXwXrXrXrXrXrXrXrXrXrXrXrXrXrX",
"rXrXrXrXrXrXrXrXrXrXrXrXrXtXrXtXrXrXrXrXrXrXrXrXtXrXrXrXrXeXeXrXrXwXwXrXrXrXrXrXwXrXrXrXrXrX",
"rXrXrXrXrXrXrXrXwXrXrXrXtXrXtXrXrXrXrXrXrXrXrXrXtXrXrXrXrXrXrXrXrXwXwXrXrXrXrXrXrXrXrXrXrXrX",
"rXrXrXrXrXrXrXrXrXrXrXrXrXtXtXtXwXrXtXrXrXrXwXrXrXrXwXwXeXtXtXtXrXrXrXrXrXrXrXrXrXrXrXrXrXrX",
"tXtXrXrXrXrXrXrXrXrXrXrXrXtXrXrXrXrXrXrXrXrXwXwXrXtXeXrXrXtXeXrXrXrXrXtXrXrXrXrXrXwXrXrXrXtX"
};
