/* XPM */
static char *result[] = {
/* columns rows colors chars-per-pixel */
"46 96 234 2 ",
"   c #010206",
".  c #01040B",
"X  c #010612",
"o  c #020915",
"O  c #010618",
"+  c #020B1B",
"@  c #07121D",
"#  c #010D23",
"$  c #010F2A",
"%  c #031224",
"&  c #081826",
"*  c #02132C",
"=  c #051A2D",
"-  c #101D2C",
";  c #021533",
":  c #031B35",
">  c #0C1D33",
",  c #021639",
"<  c #021B3C",
"1  c #15202D",
"2  c #0C2336",
"3  c #03233D",
"4  c #0E243C",
"5  c #142438",
"6  c #142A3E",
"7  c #021D43",
"8  c #021F49",
"9  c #022244",
"0  c #02244C",
"q  c #032B4C",
"w  c #132C42",
"e  c #083646",
"r  c #15324A",
"t  c #173549",
"y  c #1A364C",
"u  c #022552",
"i  c #022B54",
"p  c #062B56",
"a  c #012D5C",
"s  c #033153",
"d  c #01325B",
"f  c #04395A",
"g  c #1A3B55",
"h  c #233748",
"j  c #2D3753",
"k  c #243C58",
"l  c #012F60",
"z  c #013462",
"x  c #013B64",
"c  c #01366C",
"v  c #003D6C",
"b  c #003C76",
"n  c #0E425C",
"m  c #1C435E",
"M  c #26445B",
"N  c #33435C",
"B  c #17665C",
"V  c #014569",
"C  c #004474",
"Z  c #00467A",
"A  c #004A7C",
"S  c #025679",
"D  c #1D5075",
"F  c #274A66",
"G  c #2C4C6D",
"H  c #29516B",
"J  c #35526B",
"K  c #275777",
"L  c #385977",
"P  c #335D7B",
"I  c #26607E",
"U  c #3A647C",
"Y  c #435372",
"T  c #4A617D",
"R  c #278172",
"E  c #004484",
"W  c #004B84",
"Q  c #00458A",
"!  c #004A8C",
"~  c #005285",
"^  c #065A84",
"/  c #00538D",
"(  c #00598E",
")  c #005593",
"_  c #0C5691",
"`  c #005B94",
"'  c #00559B",
"]  c #005D9B",
"[  c #355A83",
"{  c #0A6690",
"}  c #00629D",
"|  c #186892",
" . c #2C6787",
".. c #346483",
"X. c #3D6483",
"o. c #366688",
"O. c #376B8D",
"+. c #336C8C",
"@. c #3B6B8D",
"#. c #376A97",
"$. c #3B6B94",
"%. c #347494",
"&. c #3B7799",
"*. c #005CA6",
"=. c #0065A3",
"-. c #0067A9",
";. c #016CAC",
":. c #1C76A3",
">. c #0066B4",
",. c #0076BA",
"<. c #3A7FA4",
"1. c #495C8B",
"2. c #446A88",
"3. c #57658A",
"4. c #46718D",
"5. c #53728B",
"6. c #456C94",
"7. c #447494",
"8. c #44749B",
"9. c #4A749C",
"0. c #49789A",
"q. c #587A97",
"w. c #616E8F",
"e. c #446CA7",
"r. c #4778A4",
"t. c #4A7BA2",
"y. c #5479A9",
"u. c #0077C6",
"i. c #007ED2",
"p. c #2D8894",
"a. c #0789B0",
"s. c #3486B1",
"d. c #56819B",
"f. c #60839B",
"g. c #4A85A8",
"h. c #5788A7",
"j. c #5284AB",
"k. c #548AAB",
"l. c #4D84B3",
"z. c #478AB6",
"x. c #558AB6",
"c. c #4A94B8",
"v. c #5598B7",
"b. c #668CAE",
"n. c #6697B2",
"m. c #7097B4",
"M. c #59A3BF",
"N. c #70A6AE",
"B. c #0084C4",
"V. c #0088C6",
"C. c #0084CC",
"Z. c #0E9CCB",
"A. c #0089D9",
"S. c #0093D4",
"D. c #0195DC",
"F. c #3999D0",
"G. c #3CA9DB",
"H. c #0098E6",
"J. c #00A8EA",
"K. c #00B2ED",
"L. c #00A5F1",
"P. c #00ACF3",
"I. c #00B8F6",
"U. c #469AC2",
"Y. c #5699C6",
"T. c #58A4C5",
"R. c #4EACD1",
"E. c #6EA8C9",
"W. c #46B9F3",
"Q. c #00C4F5",
"!. c #01C4FB",
"~. c #02CCFC",
"^. c #00D4F0",
"/. c #03D2FD",
"(. c #05DBFE",
"). c #1BD0FE",
"_. c #3EDDFE",
"`. c #05E4FD",
"'. c #09E9FE",
"]. c #17EBFE",
"[. c #0AF3FD",
"{. c #1BF7FF",
"}. c #1DF4FF",
"|. c #2BE7FE",
" X c #24F4FF",
".X c #24F9FF",
"XX c #2BF8FF",
"oX c #34FBFF",
"OX c #3CFBFF",
"+X c #52C9EC",
"@X c #44FCFF",
"#X c #4BFDFF",
"$X c #58F1FE",
"%X c #54FEFF",
"&X c #5CFDFF",
"*X c #6CE2FB",
"=X c #76E5FB",
"-X c #61F1FE",
";X c #64FEFF",
":X c #6CFEFF",
">X c #73FEFF",
",X c #7CFFFF",
"<X c #8399B3",
"1X c #8EB6CD",
"2X c #80C0DB",
"3X c #88CDE9",
"4X c #8BDAF4",
"5X c #99DAF1",
"6X c #ACD9EE",
"7X c #B5DCEC",
"8X c #83E0F9",
"9X c #82F0FC",
"0X c #85FFFF",
"qX c #8BFFFF",
"wX c #96F3FD",
"eX c #93FFFF",
"rX c #9CFFFF",
"tX c #B1E5F8",
"yX c #A2FFFF",
"uX c #ABFFFF",
"iX c #B3FFFF",
"pX c #BCFFFF",
"aX c #D7DFEC",
"sX c #D8DFED",
"dX c #D9E1EE",
"fX c #DBE3F0",
"gX c #C4FFFF",
"hX c #CCFFFF",
"jX c #D4FFFF",
"kX c #DBFFFF",
"lX c #E4FFFF",
"zX c #EBFFFF",
"xX c #F4FFFF",
"cX c #FCFFFF",
/* pixels */
"aXaXdXfXfXdXfXdXsXfXfXfXdXfXaXaXsXsXfXfX1 fXfXfXfXdXdXdXdXdXdXdXdXaXdXfXdXdXdXsXdXdXdXaXsXfX",
"dXdXdXsXfXdXaXfXdXfXfXfXfXdXsXaXsXsXfXfX@ . dXsXdXdXdXdXfXdXdXdXaXdXdXfXdXdXdXsXdXdXaXdXfXfX",
"aXaXdXfXsXaXdXfXdXsXfXfXaXaXfXfXdXsXfXfX.   fXfXfXdXdXdXdXaXdXdXdXdXdXsXfXdXsXdXdXdXfXdXfXdX",
"fXaXfXdXdXsXaXaXdXdXfXfXaXfXfXfXfXsXfXfXh @ fXfXfXdXdXdXdXsXdXfXaXaXdXdXfXdXdXdXdXfXfXfXfXdX",
"dXaXdXdXaXfXdXsXfXfXdXfXdXaXfXfXdXdXfXfX@ . fXdXfXfXsXdXdXdXdXdXdXdXdXdXdXdXdXdXfXfXfXfXaXdX",
"aXfXfXdXdXdXsXfXdXfXdXdXfXfXfXfXdXdXfXfX@   h dXdXdXdXdXaXaXdXsXdXdXdXdXdXdXsXdXsXfXfXdXaXdX",
"dXfXdXdXfXsXsXfXdXfXfXfXfXdXfXfXdXdXfXJ 1   5 dXdXfXsXfXdXdXdXdXdXdXdXfXsXdXfXdXdXfXfXsXdXdX",
"dXfXaXfXfXfXsXfXfXfXdXfXdXdXaXfXfXdXfX1 @     dXfXdXdXdXsXdXdXdXdXdXdXfXfXdXdXdXdXfXfXsXsXdX",
"fXdXdXdXdXdXaXfXdXfXaXdXdXdXdXdXdXdXdX1 o     dXdXdXdXdXfXdXdXdXdXdXdXdXdXfXdXdXdXdXfXfXaXdX",
"dXfXdXdXdXaXfXfXdXdXdXaXaXdXfXdXdXdXdX@       dXdXfXfXdXdXdXdXdXdXdXdXdXdXdXdXaXdXdXfXsXaXdX",
"dXdXdXdXdXdXfXdXdXdXaXdXaXdXdXdXdXdXfX.     h dXdXfXdXdXsXdXdXdXdXfXfXfXdXdXaXdXdXfXdXfXaXdX",
"dXaXdXfXdXfXfXfXdXdXdXdXdXdXdXdXfXfXfX      dXdXdXfXdXdXdXdXdXdXdXdXfXdXdXfXdXdXdXfXdXdXdXdX",
"dXfXfXdXdXaXfXfXfXdXdXfXaXdXfXfXdXdXdX. . . dXdXdXdXdXfXdXdXdXaXdXdXfXdXdXdXdXdXfXsXaXdXfXdX",
"dXdXfXaXaXdXfXfXfXdXdXdXdXdXdXdXdXfXfX. . h dXdXdXdXdXfXdXdXsXdXdXdXfXfXdXdXdXdXdXdXaXdXdXaX",
"dXsXdXdXfXdXaXfXaXaXdXfXaXaXdXfXdXdXfX@ @ dXdXsXdXdXdXdXdXdXdXdXfXdXsXdXdXdXdXdXfXdXdXfXdXdX",
"fXfXfXdXfXfXfXdXaXfXfXfXaXdXdXdXdXfXdX  6.fXdXsXdXdXdXfXdXdXfXfXdXdXfXdXsXdXfXdXdXdXdXdXfXfX",
"sXdXfXdXfXdXdXdXdXfXfXdXdXdXdXdXdXfXdXdXdXfXdXfXdXaXdXdXdXdXdXfXdXdXdXdXdXfXdXdXdXdXdXfXdXdX",
"sXsXfXfXfXdXfXdXdXdXdXdXfXdXdXdXdXdXdXdXdXdXdXfXdXdXdXdXdXdXdXdXdXdXdXdXdXdXdXdXdXdXdXfXdXdX",
"aXaXdXfXfXdXfXdXdXdXdXdXdXdXdXdXsXdXdXdXfXfXfXfXaXdXdXdXdXdXdXdXdXaXdXaXdXdXdXdXaXaXdXdXdXdX",
"aXsXfXfXfXfXdXdXdXfXdXdXfXfXdXfXdXdXdXdXdXdXfXfXdXdXdXdXdXdXdXdXdXdXdXfXfXfXdXdXaXdXdXdXdXdX",
"dXfXdXdXdXfXdXdXfXfXfXfXfXfXdXdXfXfXsXaXdXdXdXdXdXdXdXdXdXfXdXdXdXdXdXdXdXdXdXdXdXdXaXaXdXdX",
"dXdXdXaXdXfXdXfXdXdXdXfXfXfXfXdXdXdXfX+.dXdXdXdXdXaXaXdXdXfXdXdXaXdXfXdXdXdXaXdXdXdXfXdXfXfX",
"dXaXsXdXfXdXfXfXfXdXdXdXfXfXdXdXaXdXX.U U h.fXdXdXdXfXfXfXfXfXfXdXfXdXdXdXdXdXdXdXsXfXdXfXfX",
"dXaXdXdXdXsXdXdXdXdXdXdXdXdXaXsXaXX.6.X.H f.<XdXaXdXdXfXdXdXdXdXdXdXdXdXdXdXdXdXdXdXdXdXdXfX",
"dXdXdXdXdXdXdXfXfXdXdXdXfXdXdXsXdX2.2.L J T <XsXsXsXsXfXdXdXdXfXdXdXfXfXfXdXdXdXdXdXdXfXfXfX",
"aXdXdXdXdXdXdXdXfXdXdXdXsXdXdXsXdXX.X.G N j 3.sXsXsXfXsXfXdXdXfXdXdXdXdXdXfXdXdXdXfXdXsXfXdX",
"dXdXdXdXdXdXdXdXdXdXdX2.L U 3.2.dXsX7.U L N w.2.fXsXsXsXdXdXdXsXdXdXdXdXdXdXdXdXdXdXdXdXfXdX",
"dXdXdXfXdXdXdXdXdXdXU T K J U @.dXdXq.2.J N q.7.sXsXfXfXdXdXdXdXdXdXdXdXdXdXdXdXdXdXdXdXfXdX",
"dXdXdXfXdXdXfXfXdXdXX.J G L U @.dXaX6.[ J h q.b.dXdXfXfXdXdXdXsXdXfXdXdXdXaXaXdXsXfXdXdXfXdX",
"dXdXdXdXdXdXfXfXdX@.P F H P 7.g.dXsX..@.k h 1.b.fXfXdXdXdXdXdXsXdXdXdXdXdXdXdXdXfXdXdXfXdXdX",
"dXfXdXdXdXaXdXdXo.G F M H U 0.8.dXdX[ 2.k Y Y w.dXsXsXdXsXfXdXdXdXdXdXdXdXdXaXdXfXfXdXfXdXaX",
"dXfXdXdXdXaX5 2.m m F g M ..0.dXsXfXP 8.6.J j sXsXsXsXsXdXdXdXdXdXdXdXdXdXdXdXdXdXfXfXdXaXdX",
"dXfXdXdXdXdX5 K y g y y F X.8.dXfXdX@.8.4.N Y m.aXaXdXdXfXdXaXaXdXdXaXdXdXfXj.j.sXfXdXdXdXsX",
"sXfXfXdXdXdX9.y g t t 6 M 2.dXdXfXdX0.8.0.N w.1XaXaXdXdX$.#.#.aXdXdXdXdXdX0.t.r.r.dXdXdXfXsX",
"aXdXdXsXsXsX9.w w w r 6 L X.dXdXfXdX0.G K M m.1XaXdXfXr.$.o.#.6.dXdXdXdXdXg.g.g j.fXsXaXsXsX",
"sXdXfXsXsX7.y r > > > 2 U fXsXdXdXdXF . .   j 1Xb.<.r.y.U.#.#.#.0.dXdXdXdXt.8.m g.fXdXaXdXfX",
"dXfXsXsXaX&.M .       6 aXdXdXfXdXr.+ .     . . # $ i.oX&XF.l.Y.x.b.x.dXaXsX@.> F fXdXaXdXdX",
"sXfXdXaXdX2.F         M dXdXfXfXfXr.o .       X # ~ H.].$XW.x.y.j.q.x.dXdXdX6.4 - g.dXfXdXdX",
"dXfXdXaXaX4.t       + U dXdXsXdXfX0.o       . X # , H.@XuX_.x.l.r.6.l.aXdXaXt.G @ @.dXdXdXdX",
"dXfXsXdXdXq.        r U fXdXaXdXdX&.w       . O $ u i.qXxX|.Y.x.x.P t.dXdXx.l.8.o r dXsXdXdX",
"dXdXdXdXaXq..     2 @.dXdXdXdXdXdX8.m       . O ; I.P.rXyXC._ l.l.@.k.fXx.j.X.[ . 4 sXfXdXfX",
"dXfXdXdXdXq..     o.@.dXfXdXdXfXdXr.2 . .   . # ; Q.~.uXiX' a $.k.k.h.dXx.r w m X r fXfXdXdX",
"dXfXdXdXf.4..   o 0.@.dXdXfXfXdXdXk.& . . . X # , ] XXjXiXb b _ t.k.&.l.. . w t.. 4 fXsXaXdX",
"fXfXaXdXq.T . . H k.4.dXdXfXfXfXdXn.o . . . X $ '.>. XrXkXE z | #.8.7.o.. . % j.y 4 fXsXdXdX",
"fXfXaXdX5.J . . 5.N.fXfXfXdXfXdXdXn.  . . . O $ C.c .XqXzXE a *.#.e.[ X . . 5 [ 2 > sXdXsXfX",
"aXdXfXfX5.h . . T n.fXfXdXdXdXdXfXh.O X X X O ; '.A.OXyXzXu.l ].#.r.r . .   O K . > dXfXaXdX",
"dXfXdX5.5.6 . . P dXfXfXfXfXdXdXfX4.O O O + $ 7 ~.Q.XXrXlXD.l oXp $.* X     . D X H sXsXdXaX",
"dXdXsX5.5.h . . 2.dXfXfXfXfXdXdXdXU + # # # $ ! ' D./.uXxX].z @Xs D 3 . .     F o x.fXfXfXfX",
"dXaXaXq.4.L   . X.dXdXdXn.n.n.N.E.# 8 i.I.L.i.,X>.P.}.iXpX{.E XX7 0 # X . . . G r &.fXdXfXdX",
"dXaXaXb.f.U . . U dXdXdXF 2 * g ../.I.].I.A.*.cX8 L. XqXjXjXa qX0 , # O . . . [ %.dXdXdXdXfX",
"dXdXdXd.h.U . . @.fXfXfX% : : 7 ].@XOX!.P.u u >Xi L.;XeX,XcXL.gX7 9 ; O . . . [ $.fXdXdXfXdX",
"aXaXdXdXg.X.. . J k.fXk.# ; 7 H.:X;X(./.p 7 8 zXi H.~.uX XxXK.iXa u ; # . . . [ 6.fXdXdXfXfX",
"aXdXdXdX0.@.6   & & > 4 % , 8 0X0X-X]., , : 7 oX8 *.L.lXL.H.xXiX`.a 9 * . . . > 1.aXaXsXfXdX",
"aXaXdXdXg.d.M . . . . X ; 7 !.yX,XA.*.; , ; ; #X0 E A.zX-.-.}.iXuXb i , O . . - 1.aXdXdXfXdX",
"dXdXdXdX4.U e   . . X O 7 8 uXuXqXL.< + * ; , zXu Q u.xX' >.`.kXcX' v 0 O . O 9.1.y.fXfXdXdX",
"dXaXdXdX@.4.        X O u @X,XuX).'.Q ; * ; ;.{.a i.>.xXC.-.`.cXcXS.Z i O X . 6.X w y.fXdXdX",
"dXfXfXdXdX .    . . O # E rXuX>XL.i.; * ; , ,.~.a H.P.cXC.;.(.cXcX/.~ a + X . [ X o L e.sXsX",
"dXfXdXdXdXU   . . . O $ L.wXiX(.b 7 * $ , 7 XX=.0 H.XXkXL.=.(.cXcX/.) z # O + 9.+ X # $.y.y.",
"dXdXdXdXfX... . . X O $ #XuXuXL.u , O * < u zXi a i.>XlX*.D.;XcXcX(./ z # O > r.g & o & 4 l.",
"dXfXdXdXfX..g . . X # ; uXuXXXQ u 7 $ ; < Z cXi i >.yXcX>.C.uXcXcXQ.~ d # O g y.y.g.2 o + B ",
"dXdXdXdXdX..w X X O $ , yXyX/.b u ; ; , 9 '.u.i E >.iX>X*.OXiXzXE H.;.0 # % #.l.l.l.l.R = & ",
"dXdXdXdXdXI 6 X X O $ 7 qXeXA.>.7 ; , < 0 @X.Xa Q C.pXI.Q oXuXoX/ C `.9 # = z.Y.Y.U.p. .2 & ",
"dXdXdXdXdX... X O O $ 7 rXuX>.P.0 ; 9 0 8 rX'.z Q ' qXu.E :X0XW d u uX< $ , U.Y.T.1XR R e @ ",
"dXfXfXdXdXm + X O # ; 7 rXwXu. XQ 9 d z l zX=.Z ' ~.OX*.c ,X}.d i 0 }.< & > Y.Y.T.tXN.e & @ ",
"dXdXfXdXdX3 o o + # ; 8 uXqX-.].E C C / E lXgX(./..X X*.c }.~.a q 0 >X9 : : z.Y.5X6XE.2 = n ",
"dXdXfXfX+.& % % * ; 7 u uX;X' K.P.] ;.V.iXcXxXxXH.,X X~.E ;XH.i s s S.q q 9 Y.R.7XtXK ..U dX",
"dXdXdXs.n : 3 : 3 9 0 p uX:XS.}.].`.jXjXzXzXlXcX;X}.(. XA. XW z d d S.q q q s.1X6Xc.+.3XdXdX",
"dXdXM.I q q i s d d d x uX%XJ.xXcXxXkXlXxXxXxXxXkX.X`.OX XuXA C x x (.V V f s.tX6Xs.R.5XdXdX",
"dXM.M.s.V f V A A A A A uX%X(.0X0XqXlXlXcXcXcXuXlX#X,XpXOXyXA A A A J.C C C 2XtX3XU.4XfXfXfX",
"T.v.c.U.U.A ( } =.} } ( &XI.I.'.XX@XgXcXcXcXcXjXlXXX,XyX#X.X` ( ` ` Q.} ~ ~ M.tX3X^ 5XdXdXdX",
"M.g.g.T.T.~ .XkX>XV.Z.;.,.W A ~ S.qXgXcXxXcXcXxXzXK.B.~.qX,X&X(.(.Q.pX/.` ^ s.tX4Xs.wXdXdXdX",
"M.%.c.T.R.}.cXcXcXcXcXgX` A C A ~ Q.gXcXxXxXxXxXpX;.] I..XeXgXkXlXxXcXcXxXzXiXiXF.=X8XsXdXdX",
"v.c.c.c.$XOX{.pXcXcXcXcX=.A C C W I.lXcXxXxXxXxXeX} ` J.'.0XyXuXpXhXuXgXhXjXjXlX#X=X*XdXfXfX",
"dXs.s.G.z.:.( =.,.J.gXcXB.C v C @XgXlXzXkXgXgXiX%X=.` XX'.:XuX'.I.Q.S.V.~.#XrXhX0X*X*XdXfXfX",
"dXsX%.p.s.| x A / =.a.{.=.C x C OXuXyXyXyXyXrXrX#X,.u.@X~.,X%XK.-.Z C C C C K.yX%X=X*XdXdXfX",
"dXfXdX$.&.q i d x Z W ) ) z d v 0XrXrXyXyXyXyXeX>X'.rXqX{.OX;XA D.x f d d d V -X].wX*XfXfXdX",
"dXdXfXdXO. .: 9 0 i z z x i i x oXrXyXyXyXrXyXrX.XuXcXxXcXkX~.v L.i 0 9 9 9 s } ~ =X*XdXfXdX",
"sXsXdXdX%.K % % ; : : 9 9 7 0 x #XuXiXuXyXyXrXiX0XjXcXcXlXzX X~.a 0 < ; : 3 f x { *X9XdXfXdX",
"dXdXdXdXdXK X o O + + % * ; 9 d S.zXcXcXcXlXkXjXpXjXzXkXpXjXuXE u < * % 3 : q = +X=XdXdXfXdX",
"dXdXdXfXdX+.= . X X O o % * < d ,.xXxXcXxXhXgXpXpXxXxXkXpXyX%Xc 0 ; * + * s o 3 *XdXdXdXfXaX",
"dXdXdXdXdX+. .@ X . X X = 9 : q v 0XzXcXjXiXgXeX>XxXxXyXlXeX~.a 0 ; # O X O o s s.fXdXfXfXaX",
"dXdXdXaXdXdX .e X . X o f S V 9 d A uXcXgXqXyXqX;XlXzXiXlXeXi.u u $ + O X X & S fXfXfXfXdXaX",
"dXfXdXdXdXdX%. .o o X o Z.[.`.3 0 x B.lXzX:XrX].0XlXjXpXlXqXb 8 ; # + X X o = ;.dXfXfXfXaXdX",
"dXfXdXdXdXdXaX%.D . X X oX#X%X3 3 q z &X.XB.b ] :XcXgXyX;X%Xu , $ + O . + 9 dXdXdXfXfXdXaXdX",
"dXdXdXdXaXaXdXdXdX%.I 3 [.= @ + + # * * : : , 7 u u u 0 7 , $ # 3 dXdXdXdXdXaXdXaXfXfXaXaXdX",
"dXdXdXdXaXdXdXdXdX%.%.+.o o o X X O + + # # % * ; ; , ; $ $ # i dXaXdXdXdXdXdXdXaXfXaXaXdXfX",
"aXdXdXdXdXaXdXfXdXdX%.%.o o o . X O o o O O O + + # # + # 3 dXdXdXdXdXdXdXdXdXdXfXfXdXaXdXdX",
"dXdXdXdXdXdXdXdXdXK +.%.. . . . . X 3 @ X X . X X X + % s dXdXdXdXdXdXdXdXaXdXdXdXfXdXdXdXaX",
"dXdXdXaXaXdX+.K o . o &   . . . X & ^.%Xa.= o . a.> + dXdXdXdXdXdXdXdXdXdXdXdXdXdXdXdXdXdXdX",
"dXdXdXdXdXdXdX .H o o U = . . . 3 a.OX'.V 3 o . X q dXdXdXdXdXdXdXdXdXaXdXaXdXdXdXdXfXdXdXdX",
"dXdXdXdXdXdXdXfXdX&.&.g.&.. . . . . X . 3 @ X V S dXdXdXdXdXdXfXdXdXaXdXdXdXdXdXdXdXdXdXdXdX",
"dXdXdXdXdXdXfXfXfXfXdXdXfXk.g.I   @ @ + . e K dXdXdXsXdXdXdXfXfXaXdXdXdXdXdXdXdXdXdXdXdXdXdX",
"dXdXdXdXdXdXdXfXdXdXdXdXdXdXdXdXdXc.v.dXdXdXdXdXdXdXdXdXdXdXdXdXaXaXaXdXdXfXdXdXaXdXdXdXdXdX",
"dXdXaXdXdXdXdXdXdXdXdXdXfXfXfXdXdXdXdXdXdXdXdXdXdXdXdXdXdXdXdXdXdXaXaXdXdXdXdXdXdXdXdXdXdXdX",
"dXfXdXdXdXdXdXdXdXfXdXdXdXfXfXfXdXD  .aXdXdXaXdXdXdXsXsXdXdXdXdXdXdXdXdXdXdXdXdXdXdXdXdXdXdX",
"fXfXdXdXdXdXdXfXdXdXdXdXdXfXdXdXg.+.dXaXdXdXaXdXdXfXsXdXdXfXdXdXdXdXdXfXfXdXdXdXdXaXdXdXdXfX"
};
