/* XPM */
static char *_23feb33c6b14da4ed5cb9d4fd05fadcbjMevHdTxt6JseFH[] = {
/* columns rows colors chars-per-pixel */
"55 100 175 2 ",
"   c None",
".  c #1F1F20",
"X  c #272727",
"o  c #24292A",
"O  c #2D2D2D",
"+  c #302F2F",
"@  c #232F31",
"#  c #2C2F30",
"$  c #2D3233",
"%  c #263638",
"&  c #2F3738",
"*  c #2E3A3B",
"=  c #323333",
"-  c #313738",
";  c #323B3D",
":  c #3B3B3B",
">  c #323F40",
",  c #2D4346",
"<  c #2D4649",
"1  c #2F4C4F",
"2  c #324345",
"3  c #3A4344",
"4  c #344749",
"5  c #384749",
"6  c #334A4D",
"7  c #3A4B4D",
"8  c #344E52",
"9  c #3B4E51",
"0  c #355155",
"q  c #3C5356",
"w  c #36555A",
"e  c #38575B",
"r  c #37595E",
"t  c #3B5A5D",
"y  c #365E62",
"u  c #3A5D62",
"i  c #376065",
"p  c #3A6065",
"a  c #376369",
"s  c #3B656B",
"d  c #3B696F",
"f  c #376B71",
"g  c #3D6D74",
"h  c #3D7077",
"j  c #3E747B",
"k  c #424242",
"l  c #484747",
"z  c #43494A",
"x  c #4B4B4B",
"c  c #435254",
"v  c #495B5D",
"b  c #545454",
"n  c #5A5A5A",
"m  c #416266",
"M  c #4C6164",
"N  c #40666B",
"B  c #4E6669",
"V  c #436A6E",
"C  c #4C6A6E",
"Z  c #50696C",
"A  c #426D72",
"S  c #447076",
"D  c #4A7277",
"F  c #41747B",
"G  c #4A747A",
"H  c #43797F",
"J  c #48787E",
"K  c gray39",
"L  c #607071",
"P  c #747473",
"I  c #3E7A82",
"U  c #3F7F88",
"Y  c #427C84",
"T  c #4C7B81",
"R  c #417F88",
"E  c #3E828B",
"W  c #3F8A93",
"Q  c #428087",
"!  c #42838B",
"~  c #4A878F",
"^  c #508187",
"/  c #5A858A",
"(  c #428790",
")  c #498790",
"_  c #448B94",
"`  c #4B8B93",
"'  c #448F99",
"]  c #4E8F98",
"[  c #528A92",
"{  c #598990",
"}  c #46929C",
"|  c #4A949E",
" . c #52939C",
".. c #648F94",
"X. c #63959A",
"o. c #4796A1",
"O. c #4A96A1",
"+. c #4599A4",
"@. c #4A9AA5",
"#. c #4A9EA9",
"$. c #529BA4",
"%. c #5B9FA8",
"&. c #47A3AF",
"*. c #4AA2AD",
"=. c #52A5AF",
"-. c #59A4AE",
";. c #47A5B1",
":. c #4CA6B2",
">. c #4DAAB6",
",. c #4DADBA",
"<. c #55A7B1",
"1. c #52AAB6",
"2. c #59A9B4",
"3. c #51AEBB",
"4. c #4DB1BE",
"5. c #51B1BE",
"6. c #65A3AB",
"7. c #62AAB4",
"8. c #4EB5C2",
"9. c #4FB9C6",
"0. c #4FBCCA",
"q. c #52B5C3",
"w. c #52B9C6",
"e. c #5BBAC6",
"r. c #50BBC8",
"t. c #50B9C8",
"y. c #52BDCA",
"u. c #51BECD",
"i. c #52BDCB",
"p. c #58BFCD",
"a. c #63B6C2",
"s. c #51C0CF",
"d. c #53C0CF",
"f. c #5BC1CE",
"g. c #50C2D1",
"h. c #52C5D3",
"j. c #51C5D5",
"k. c #51C7D6",
"l. c #52C7D6",
"z. c #53C5D4",
"x. c #52C8D7",
"c. c #54C8D7",
"v. c #56C8D7",
"b. c #58C8D7",
"n. c #53C9D9",
"m. c #53CBDA",
"M. c #53CCDB",
"N. c #54CCDB",
"B. c #53CDDC",
"V. c #53CFDF",
"C. c #55CFDF",
"Z. c #56CEDE",
"A. c #55CDDC",
"S. c #58CAD9",
"D. c #5ACCDC",
"F. c #54D0DF",
"G. c #56D0DF",
"H. c #59D0DF",
"J. c #55CFE0",
"K. c #55CFE0",
"L. c #55D0E0",
"P. c #55D1E1",
"I. c #54D1E1",
"U. c #56D1E1",
"Y. c #54D3E3",
"T. c #55D2E2",
"R. c #56D3E3",
"E. c #56D2E2",
"W. c #55D2E1",
"Q. c #56D3E4",
"!. c #57D3E4",
"~. c #58D4E4",
"^. c #848383",
"/. c #898987",
"(. c #929291",
/* pixels */
"                                                    O O O                                                     ",
"                                                  O O 4 O O                                                   ",
"                                                O O O k.O O O                                                 ",
"                                                O $ 0.I.# O O                                                 ",
"                                              O O , I.I.6 O O                                                 ",
"                                              O & 8.I.I.>.$ O O                                               ",
"                                              O * I.I.I.x.$ O O                                               ",
"                                              O * I.I.I.x.$ O O                                               ",
"                                              O $ ] I.I.7.$ O O                                               ",
"                                              O O q I.I.M O O O                                               ",
"                                            x O O ; I.V.$ O O O                                               ",
"                                            x O O $ I.V.O O O O                                               ",
"                                            l O O * I.q.O O O O                                               ",
"                                            : O O 6 V.D O O O O                                               ",
"                                            O O $ d x.= O O O O O                                             ",
"                                            O O & +.k.O O O O O O                                             ",
"                                            O O * h.e.O O O O O O                                             ",
"                                          O O O ; C.X.O O O O O O                                             ",
"                                          O O $ y >.J O O O O O O O                                           ",
"                                          O O 2 4.5 S O O O O O O O                                           ",
"                                        O O O > >.$ ( O O O O O O O O                                         ",
"                                        O O O w 0.$ *.O O O O O O O O O                                       ",
"                                        O O 6 I.9.$ $.O O O O O O O O O                                       ",
"                                        O O 6 C.,.$ L O O O O O $ O O O O                                     ",
"                                      : O O 6 S...w ,.O O O O O ! 2 O O O                                     ",
"                                      O O O 6 y.M +.m.O * O O O 4.8 O O O b                                   ",
"                                      O O O o @ : @ I.m.0 s.* O 8.0 O O O =                                   ",
"                                      O O O O $ ; s.I.V.z c.; O 8.8 O O O O                                   ",
"                                    O O O O $ 4 ; I.I.I.i.I.; O 8.0 O O O O O O                               ",
"                                    O O O O ; R ; I.I.I.I.I.; O ,.8 O O O O O O O                             ",
"                                    O O O O 6 4.; I.I.I.I.M.* O $.u $ O O O O O O l                           ",
"                                  = O O O O 6 r.$ T C.I.I.#.*.* v | 6 O O O O O O = :                         ",
"                                  w O O O O 6 9.O > k.I.I.,.y.2 - :.0 O O O O O O O O                         ",
"                                h ! O O O O 6 w.O $ #.V._ h.%.; O *.0 O O O O O O O O                         ",
"                          : :   g | O O O O 6 q.O O Z M.2 g.G = O F 2 O O O O O O O O                         ",
"                          = = O g | O O O O 6 9.O O 3 I.O 9.g $ O 2 h 2 O O O O O O O                         ",
"                        : = = O g 4.u O O O 6 9.O O $ Q.# Y } ; O O +.w O O O O O O =                         ",
"                      : = O O O g M.} O O O 6 w.O O $ Q.* ) y.2 O O g R 4 O O O O O = :                       ",
"                      O O O O O g w.S O O O 6 r.O O $ Q.j g.m.2 O O = *.p O O O O O O O                       ",
"                    O O O O O O g @.- O O O 6 i.2 O $ Q.i.m.8.j * O O ' h * O O O O O O                       ",
"                    O O O O O 4 _ _ O O O O 6 m.! O $ Q.K.I.Y 9.6 O O d o.w O O O O O O O O                   ",
"                    = O O O O h ,.p O O O O 4 f.i.O $ Q.Q.D.3 $.2 O O s q.d O O O O O O O O                   ",
"                  l = O O O $ I } O O O O O : { g.O $ Q.Q.6.= v 2 # O *.Q.d O O O O O O O =                   ",
"                  O O O O O 6 _ ' 2 O O O O $ t g.O $ D.I.B $ O g > O #.I.! ; O O O O O O : b                 ",
"                  O O O O O I #.( ' O O O O O 6 g.$ $ a.q.3 O O 8.r O U s.9.y O O O O O O O O                 ",
"                  O O O O O h ! g o.O O O O O 4 k.w O / 7 O O O 4.! * = +.h , * O O O O O O O                 ",
"                  = O O O O w y g o.O O O O O 2 K.:.O c O O O O :.c.w O +.a ( h O O O O O O O O               ",
"                K k O O $ * & O g o.O O O O O 2 I.k.O O O O O O T z.w O #.d _ h O O O O O O O O               ",
"                O O O O r :.U O g o.O O O O O 2 Q.c.O O O O O O C p.e ; *.d ! g O O O O O O O = :             ",
"                O O O O ( m.I O g } O O O O O 2 Q.c.$ O O O O O c w.e 9 >.d - = O O O O O O ; 6 O             ",
"              P k O O 2 +.! = O g } O O O O O 2 Q.Q.c.O c.; O O 9 w.p t 3.d O O O O O O O O s :.O             ",
"              = O O O _ m.I O O g o.O O O O O 2 Q.Q.C.u C.; O O z q.F >.I.d O O O O O O O = V :.O =           ",
"              O O O O _ M.j O O u ] 4 O O O O 2 Q.Q.Q.c.C.; O O : 5.c.K.I.c.*.e O O O O O 2 ! o.O O           ",
"            K : O O O _ 5.p O O : G ( O O O O 2 Q.Q.Q.Q.C.* O O O ,.I.Q.Q.Q.C.>.u O O O $ d @.; O O           ",
"          O = = O O O _  .3 O O O g @.O O O O 2 Q.Q.Q.Q.z.& O O O >.I.Q.Q.Q.I.) ; O O O r ,.o.O O O O         ",
"        O O O O O O O ' [ : O O O d 8.p O O O 2 H.Q.Q.Q.z.& O O O ,.I.Q.Q.Q.I.F O O O O $ , % O O O = k       ",
"    O O O O O O O O > @.[ : O O O d C.o.O O O 2 p.Q.Q.Q.C.* O O O ,.Q.Q.Q.Q.Q.j O O O $ $ O O O O O O =       ",
"    O O O O O O O O R g.] 3 O O O d I.*.O O O ; -.Q.Q.Q.Q.* O O O ,.Q.Q.Q.Q.I.j O O O 4 0 O O O O O O O O     ",
"      O O O O O O O } I.1.t O O O d I.*.O O O = C Q.Q.Q.Q.* O O O ,.I.!.!.!.A.h O O O s ! O O O O O O O O k   ",
"      O O O O O O O _ A.d.A u | ' *.I.4.0 O O O 5 Q.Q.Q.Q.6 O O O i 9.I.!.!.,.p * $ u >._ O O O = = O O O =   ",
"    ^.= O O O O O O t :.y.A Y Q.C.C.Q.c.| r Y O > Q.Q.Q.!.R $ O O O *.I.!.!.y.#.| } ,.:.q O O = = O O + O = /.",
"    b = O O O O O 4 2 _ O.7 Y Q.Q.Q.Q.Q.c.,.k.H 2 !.!.!.!.9.; O O O *.I.!.!.!.!.8.;.9.! O O O O + O O O O = n ",
"    O O O O O O O j w u e = A z.Q.Q.Q.Q.Q.Q.I.c.' !.!.!.!.!.> O O O #.H.!.!.!.!.8.} I 0 O O O O O O O O O O O ",
"    O O O O O O O } s 6 2 O 7 $.Q.Q.Q.Q.Q.!.!.!.!.!.!.!.!.!.> O O O  .D.!.!.!.I.C.9.g O O O O O O O O O O O O ",
"    O O O O O O O } d j _ h e Y Q.Q.Q.!.!.!.!.!.I.I.I.!.!.!.2 O O O ` b.!.!.!.C.&.E I h r = ; O O O O O O O O ",
"    O O O O O O O | d _ K.I.! j Q.Q.!.!.!.!.I.C.0.' C.!.!.!.2 O O O ) c.!.!.!.i.s o j C.@.u h O O O O O O O O ",
"    O O O O O O O @.g _ c.c.} R k.!.!.!.!.!.k._ j o A.!.!.!.h s - O o.C.!.!.!.| 5 0 *.!.w.:.*.O O O O $ + + + ",
"    O O O O O O O o.g F 1.p.w.@.8.I.!.!.!.!.0.1 X $ C.!.!.!.!.!.0 w q.!.!.!.!.| 2 j k.0.8.I.*.O O O O O + + + ",
"    = O O O O O O ! y q =.!.!.k.i.!.!.!.!.!.I.4.O ; D.!.!.!.!.!.Y y.!.!.~.!.~.C.j w W I E I.*.$ O O O O = = = ",
"  P = O O O O O O y 6 R k.!.!.!.!.!.!.!.!.!.!.r.O ; I.!.!.!.I.I.!.!.!.!.!.~.~.c.h O X i i.I.>.2 O O O O = = O ",
"  k = O O O O O O $ 2 @.!.!.!.!.!.!.!.!.!.!.!.s.6 w I.!.!.I.8.4.c.I.!.!.!.!.!.O.5 O ; ! I.!.y.h O O O O O O O ",
"  O O O O O O $ $ O | !.!.!.!.!.!.!.!.!.!.!.!.!.!.!.I.!.!.h.% . &.G.!.!.!.!.~.F O $ R c.C.c._ $ O O O O O O O ",
"  O O O O O O p 4 O | !.!.!.I.I.~.!.!.!.!.!.!.!.!.!.!.!.!.<.d $ :.G.~.~.~.~.I.j O g i.I.C.} O O O O O O O O O ",
"  O O O O O O $ e 2 ' I.!.I.C.k.C.!.!.!.I.I.!.!.!.!.!.!.!.G c.6 q.~.~.~.~.~.C.j O R ~.~.g.Y O O O O O O O O O ",
"k O O O O O O O @.s e >.C.m.i.#.*.I.!.I.k.g.C.!.!.!.!.!.~.q y.i.G.~.~.~.I.I.I.@.6 Q ~.~.,.u $ O O O O O O + + ",
"O O O O O O O O : ) | ,.3.5.! O h I.I.*.o < 0.I.!.!.~.~.~.t 3 w.I.~.~.C.f E h.I._ } ~.~.c.z.>.2 O O O + O = = ",
"O O O O O O O O O A e _ m.m.! O g !.I.>.2 2 *.I.~.~.~.~.~.s $ 4.I.~.~.I.p _ c.!.G.I.~.~.~.!.I.*.O O O O = = (.",
"O O O O O O O O O $ ! h 6 A D 6 Y !.I.g.R 8 C.~.~.~.~.~.~.R $ q w.!.~.~.s _ C.~.~.~.~.~.~.~.~.:.+ + O O = =   ",
"O O O O O O O O O $ } g.9.j j _ R I.!.I.:.w ~.~.~.~.~.~.~.4.; O 4.!.~.S.u 5 @.I.~.~.~.~.~.~.~.:.= + + = = =   ",
"^.= O O O O O O O ! k.I.I.g.` 9 g I.~.~.C.y.~.~.~.~.~.~.~.C.> _ c.~.I.^ : O 8 #.I.~.~.~.~.~.d.Y + + + = = l   ",
"  = + O O O O O O 5 *.I.!.~.g.Y F I.~.~.~.~.~.~.~.~.~.~.~.~.q.c.!.~.I.p = O $ _ I.~.~.~.~.~.>.4 O O O = =     ",
"  + + O O O O O O g w.!.!.~.I.i.w.~.~.~.~.~.~.~.~.~.~.~.~.~.~.~.~.~.2.7 O 2 ! s.~.~.~.~.~.~.*.= O O O = =     ",
"    O O O O O O O } C.!.~.~.~.!.!.~.~.~.~.~.~.~.~.~.~.~.~.~.~.~.~.~.~ Y +.>.c.~.~.~.~.~.!.I.#.$ O O O O       ",
"    O O O O O O O } C.~.~.~.~.~.~.~.~.~.~.~.~.~.~.~.~.~.~.~.~.~.~.~.q.i.C.~.~.~.~.~.~.!.5.F 0 + O O O O       ",
"      O O O O O O u 5.~.~.~.~.~.~.~.~.~.~.~.~.~.~.~.~.~.~.~.~.~.~.~.~.~.~.~.~.~.~.~.~.q.A = O + O O = l       ",
"      O O O O O O = +.~.~.~.~.~.~.~.~.~.~.~.~.~.~.~.~.~.~.~.~.~.~.~.~.~.~.~.~.~.~.~.!.o.- O O + O O =         ",
"        O O O O O O | ~.~.~.~.~.~.~.~.~.~.~.~.~.~.~.~.~.~.~.~.~.~.~.~.~.~.~.~.!.c.c.3.m O + + + = =           ",
"        = O O O O O V q.!.~.~.~.~.~.~.~.~.~.~.~.~.~.~.~.~.~.~.~.~.~.~.~.~.~.~.c.| j u = O + + + = =           ",
"          O O O O O = G w.~.~.~.~.~.~.~.~.~.~.~.~.~.~.~.~.~.~.~.~.~.~.~.~.~.I.@.6 O O = O O O O =             ",
"            O O O O O : T p.~.~.~.~.~.~.~.~.~.~.~.~.~.~.~.~.~.~.~.~.~.~.~.~.f.V O + = = O O O O               ",
"              O O O O O 5 J q.!.~.~.~.~.~.~.~.~.~.~.~.~.~.~.~.~.~.~.~.~.~.~. .7 O O + = O = =                 ",
"                O O O O O = N @.q.!.I.I.I.I.I.~.!.~.~.~.~.~.~.~.~.!.!.I.I.5.u O O O O O O =                   ",
"                  O O O = = = = p #.#.#.#.#.#.:.r.I.~.~.~.~.~.!.C.>.*.#.#.m = + O O = =                       ",
"                    = O = = = O O O O O O O O ; g >.i.I.I.I.,.>.+.4 = O O O O O O O :                         ",
"                      = = + O O O O O O O = O O O = F >.>.:.; = + O O = O O + O =                             ",
"                        k O O O O O O O O + O O O O O O O O O O O O = = O = =                                 ",
"                            = = O O O O O O O O O O O O O O O O O O O + O n                                   ",
"                              k O O O O O O + + O O O O O O O O O O O                                         ",
"                                    = = = = = = = = O O O = + = =                                             ",
"                                          K = = = = O = O :                                                   "
};
