/* XPM */
static char *result[] = {
/* columns rows colors chars-per-pixel */
"46 96 220 2 ",
"   c #010103",
".  c #01040B",
"X  c #010612",
"o  c #020915",
"O  c #010719",
"+  c #010B1B",
"@  c #05101E",
"#  c #010D24",
"$  c #010F2A",
"%  c #021124",
"&  c #091525",
"*  c #02132B",
"=  c #03192E",
"-  c #0D1A2C",
";  c #021532",
":  c #031A34",
">  c #091D33",
",  c #02163B",
"<  c #021C3B",
"1  c #111F32",
"2  c #082237",
"3  c #03223C",
"4  c #0C233B",
"5  c #11253B",
"6  c #162B3E",
"7  c #021E43",
"8  c #022242",
"9  c #032A45",
"0  c #02244B",
"q  c #022B4C",
"w  c #0C2D48",
"e  c #142D43",
"r  c #162D46",
"t  c #09324D",
"y  c #163245",
"u  c #193346",
"i  c #17344B",
"p  c #1C394E",
"a  c #022352",
"s  c #022D53",
"d  c #012D5B",
"f  c #023253",
"g  c #0A3956",
"h  c #02345B",
"j  c #023B5C",
"k  c #183954",
"l  c #243750",
"z  c #013364",
"x  c #013A64",
"c  c #01336A",
"v  c #013C6B",
"b  c #003D71",
"n  c #003B79",
"m  c #03405E",
"M  c #1C425B",
"N  c #24435B",
"B  c #2B475D",
"V  c #044566",
"C  c #014C6D",
"Z  c #1A4969",
"A  c #004374",
"S  c #004A72",
"D  c #00457C",
"F  c #004B7D",
"G  c #174D75",
"H  c #025177",
"J  c #244B64",
"K  c #264967",
"L  c #2C4C65",
"P  c #21516A",
"I  c #2B526B",
"U  c #33556D",
"Y  c #274F70",
"T  c #265375",
"R  c #2C5274",
"E  c #29587A",
"W  c #325774",
"Q  c #385C79",
"!  c #2E627E",
"~  c #39617E",
"^  c #405D72",
"/  c #003E84",
"(  c #004986",
")  c #004D85",
"_  c #005680",
"`  c #01558C",
"'  c #005B8B",
"]  c #175982",
"[  c #004F91",
"{  c #015593",
"}  c #005B93",
"|  c #005A9B",
" . c #265A82",
".. c #365B88",
"X. c #01658A",
"o. c #067289",
"O. c #006697",
"+. c #2F638B",
"@. c #366686",
"#. c #3C6B8C",
"$. c #2A6D9A",
"%. c #366B96",
"&. c #35749B",
"*. c #005DA6",
"=. c #0063A4",
"-. c #0067AA",
";. c #006BAD",
":. c #0578A4",
">. c #0072AC",
",. c #1277A4",
"<. c #006CB6",
"1. c #0072B4",
"2. c #0077BB",
"3. c #007ABC",
"4. c #2C69A7",
"5. c #2379A8",
"6. c #3978A4",
"7. c #466B8A",
"8. c #4B6E94",
"9. c #4C7899",
"0. c #467DA9",
"q. c #4F7FB1",
"w. c #007DC2",
"e. c #0073CA",
"r. c #0887B2",
"t. c #0288B5",
"y. c #2F8CB6",
"u. c #4F839E",
"i. c #4B85AC",
"p. c #5989A6",
"a. c #4486B5",
"s. c #5997B7",
"d. c #6491AC",
"f. c #0084C8",
"g. c #1291CA",
"h. c #0088D5",
"j. c #0095DA",
"k. c #2A98CA",
"l. c #3B92C6",
"z. c #00A1C8",
"x. c #00A8D4",
"c. c #00B3D9",
"v. c #32A9DD",
"b. c #008BE0",
"n. c #0098E6",
"m. c #00A4E5",
"M. c #00A9E9",
"N. c #00A5F1",
"B. c #00ACF4",
"V. c #00B5F2",
"C. c #00BCF4",
"Z. c #00B7FA",
"A. c #00BCFA",
"S. c #4C96C3",
"D. c #529FC8",
"F. c #56A3CB",
"G. c #5AA3CB",
"H. c #48A9DA",
"J. c #6AB5D6",
"K. c #3DD4DC",
"L. c #00C8E7",
"P. c #01C5FA",
"I. c #01CCFB",
"U. c #03D4FD",
"Y. c #04DBFD",
"T. c #09DCFE",
"R. c #13D6FE",
"E. c #06E6FD",
"W. c #0CEEFE",
"Q. c #15E7FF",
"!. c #0CF2FE",
"~. c #18F5FE",
"^. c #23F2FF",
"/. c #29F6FF",
"(. c #25FAFF",
"). c #2CFAFF",
"_. c #35FBFF",
"`. c #3BFBFF",
"'. c #52D6F7",
"]. c #76DCF9",
"[. c #43FCFF",
"{. c #4BFDFF",
"}. c #52FEFF",
"|. c #5BFDFF",
" X c #69E2FC",
".X c #79E9FD",
"XX c #64FEFF",
"oX c #6CFEFF",
"OX c #7EF4FE",
"+X c #74FFFF",
"@X c #7CFFFF",
"#X c #93C6DC",
"$X c #8FD2ED",
"%X c #88E8FC",
"&X c #98E7FB",
"*X c #81F3FE",
"=X c #8AF3FE",
"-X c #83FFFF",
";X c #8CFFFF",
":X c #96F3FE",
">X c #95FFFF",
",X c #9CFFFF",
"<X c #A6F3FE",
"1X c #A3FEFF",
"2X c #ABFFFF",
"3X c #B3FFFF",
"4X c #BCFFFF",
"5X c #D7DFEC",
"6X c #D8DFED",
"7X c #D9E1EE",
"8X c #C1E7F5",
"9X c #DBE3F0",
"0X c #C4FFFF",
"qX c #CBFFFF",
"wX c #D3FFFF",
"eX c #DCFFFF",
"rX c #E4FFFF",
"tX c #EBFFFF",
"yX c #F4FFFF",
"uX c #FCFFFF",
/* pixels */
"5X5X7X9X9X7X9X7X6X9X9X9X7X9X5X5X7X7X7X9X7X7X9X9X9X7X7X7X7X7X7X7X7X5X7X9X7X7X7X7X7X7X7X5X9X9X",
"7X7X7X6X9X7X5X9X7X9X9X9X9X7X6X5X7X7X7X7X7X7X7X7X7X7X7X7X7X7X7X7X6X6X7X9X7X7X7X7X5X7X7X7X9X7X",
"5X5X7X9X6X5X7X9X7X6X9X9X5X5X9X9X7X7X9X7X7X7X7X7X9X7X7X7X7X5X7X9X6X7X7X7X9X7X6X6X7X7X7X7X9X7X",
"9X5X9X7X7X6X5X5X7X7X9X9X5X9X9X9X9X7X7X9X9X9X9X7X9X7X7X7X6X7X7X7X7X6X7X6X9X7X6X7X7X9X9X9X9X7X",
"7X5X7X7X5X9X7X6X9X9X7X9X7X5X9X9X7X7X9X9X9X9X9X7X7X9X7X6X7X7X7X7X7X7X5X5X7X7X6X7X9X9X7X9X6X7X",
"5X9X9X7X7X7X6X9X7X9X7X7X9X9X9X9X7X7X9X9X9X7X7X5X7X9X7X7X5X5X7X7X9X7X7X7X7X7X7X7X7X9X9X7X6X6X",
"7X9X7X7X9X6X6X9X7X9X9X9X7X9X9X9X7X7X7X7X7X6X7X7X7X7X7X9X6X6X7X7X7X7X9X7X7X7X9X7X6X9X7X7X7X7X",
"7X9X5X9X9X9X6X9X9X9X7X9X7X5X7X9X9X9X7X7X6X7X7X7X9X7X7X7X7X7X7X7X7X7X7X9X7X7X7X7X7X9X9X7X7X9X",
"9X7X7X9X7X5X5X7X7X9X5X7X7X7X7X7X7X7X7X7X9X7X5X7X7X7X7X7X7X7X7X7X7X7X7X7X7X7X7X7X7X9X9X7X5X7X",
"7X9X7X7X9X7X9X9X7X7X7X5X5X7X9X7X7X6X6X7X7X6X5X7X7X9X9X7X7X7X7X7X7X7X9X9X7X7X7X6X6X7X9X7X5X7X",
"7X7X7X7X7X7X9X7X7X7X5X7X7X7X7X7X7X7X7X7X9X9X7X5X7X9X7X7X5X7X7X7X7X9X9X7X7X7X6X7X7X9X7X9X5X7X",
"7X5X7X7X9X7X9X9X7X7X7X7X7X7X7X7X9X7X9X9X9X7X7X7X7X9X7X7X7X7X9X7X7X7X9X7X9X9X7X7X7X7X7X7X6X7X",
"7X9X9X7X7X5X9X9X9X7X7X9X5X7X9X9X7X7X7X7X7X9X7X7X7X7X7X9X7X7X7X5X7X7X9X7X9X7X7X7X9X7X5X7X9X7X",
"7X7X9X5X5X7X9X9X9X7X7X7X7X7X7X6X7X7X9X7X7X9X7X7X7X7X7X9X7X7X5X7X7X9X9X7X7X7X6X7X9X7X5X7X7X5X",
"7X6X7X7X9X9X7X7X5X5X7X9X5X5X7X7X6X7X7.7.9X9X5X5X7X7X7X7X7X7X7X7X7X7X7X7X7X7X7X7X7X7X7X9X7X7X",
"9X7X9X7X9X7X9X7X5X9X9X9X7X5X7X9X6X9.#.7X9X9X7X7X7X7X7X9X7X7X9X9X7X7X7X9X7X7X7X7X7X7X7X7X9X9X",
"6X7X7X7X9X7X7X7X7X7X9X7X9X7X7X7Xu.7.7X7X7X7X9XQ Q Q 7X7X7X9X7X7X5X9X9X9X7X9X9X7X7X7X7X9X7X7X",
"7X6X9X9X9X9X9X7X7X7X7X7X9X7X7X7XB L 7X7X7XW I I U 7X7X7X7X7X7X7X5X7X7X5X5X9X9X7X5X7X7X9X7X7X",
"5X5X7X9X9X9X9X7X7X7X7X7X7X9X7XL y W 7X9X#.I U Q 7X7X9X7X9X9X7X7X9X5X5X5X7X9X9X7X5X5X7X9X7X7X",
"5X6X9X9X9X7X7X7X7X7X7X7X7X9X7X6 y 7X7X#.@.^ 7.7X7X7X7X7X7X7X7X7X5X5X5X9X9X9X9X5X5X7X7X7X5X7X",
"7X7X7X7X7X9X7X7X9X9X7X9X9X9X7X1 B 9XI l J ^ 6X9X9X. 5 7X9X9X9X9X7X7X9X9X7X9X5X5X7X7X5X5X7X5X",
"7X7X7X5X7X9X6X9X7X7X9X9X9X9X6 - 7X@.k l B 6X9X9X. . . 9X7X9X9X7.5X9X9X9X9X7X5X9X9X7X9X9X9X9X",
"7X5X6X7X7X7X9X9X7X7X7X7X9X9Xo B 7XN 6 u 9X9X9X&   .   9X9X9X8.- 7X9X7X5X9X5X7X5X7X7X9X7X9X9X",
"7X5X7X9X7X6X7X9X7X7X7X7X9XB . 7XQ e l l 7X7Xl         7X7X^ . . 7X5X7X9X7X7X7X5X5X7X7X9X7X9X",
"7X7X7X7X7X7X7X9X9X7X7X7X9X1 . 7XQ u 5 5 7X5X          u l . . . Y 7X9X9X9X9X7X5X7X7X5X9X9X9X",
"5X7X7X7X7X7X7X7X9X7X7X7XL .   7XL 7Xu 6 7X                    . N 7X7X7X5X9X9X5X7X7X9X9X9X7X",
"7X7X7X7X7X7X7X7X7X7X7X7XN . u 7X9X^ u - 6                     . K 5X7X9X5X9X9X5X9X9X7X7X9X7X",
"7X7X7X9X7X7X7X7X7X7X7X9X5   @.7X9Xp . X                         7X7X9X9X7X7X7X5X7X9X5X7X9X6X",
"7X7X9X7X7X7X9X9X7X7X7X7Xo . 7X9X7X4                           . 7X9X9X9X9X5X7X7X9X7X6X6X9X6X",
"7X7X7X7X7X7X7X7X7X7X7X7X  X 7X9X..&                           & 5X7X9X7X5X7X5X7X9X7X7X9X9X7X",
"7X9X7X7X7X7X5X7X7X7X7X7X. 6 7X7Xy @                           . 7X7X9X7X5X7X7X7X9X9X7X9X7X5X",
"7X9X7X7X7X5X5X7X7X7X7X7X  Q 7X7X+                             5 9X9X7X5X7X5X7X9X9X9X7X9X5X5X",
"7X9X7X7X7X5X5X7X7X7X6X6X  6XJ 7X6                           . +.5X5X5X5X9X9X7X9X5X9X9X7X5X7X",
"7X9X7X7X7X7X7X7X7X7X7XN @ 6Xr 7X4                           . R 7X9X7X5X7X9X7X5X5X9X7X9X9X5X",
"7X7X7X5X5X5X7X7X9X7Xp u - 9Xk &                             . J 9X9X9X7X7X7X5X5X7X9X7X5X5X5X",
"5X7X7X7X5X5X7X7X7XI p u r N K .                 4       .   . ..5X5X7X7X7X7X5X5X6X9X5X5X7X9X",
"7X7X7X7X7X7X7X7Xu r e e 6X@ o .             . . X     .   . . %.7X7X7X7X5X7X7X9X9X7X9X5X7X7X",
"7X7X7X5X7X7X7X7X6 4 5 u 6XX 5     . . . . . # { +.# O . D . . i.9X7X7X5X7X7X9X9X9X6X5X9X7X7X",
"7X7X5X6X7X7X7X5 & - - N @.>   . . . X O   <.7 ^ d.. . O v . X T 7X7X7X5X7X5X5X7X7X6X7X9X7X5X",
"7X7X7X7X7XU 7X. . . y L k > . O O O # T.b.X . & @.o O v d 7 O R 7X7X7X7X7XJ 7X9X7X5X9X7X7X6X",
"7X7X7X7X5X7X7X.     L U   4 X O # a /.R.a X X O * + * # =.(.0 Y 7X7X7X7X7Xp 7X6X5X5X6X7X7X9X",
"7X9X7X7X7X7X.   .   N ! 2 o O $ N.{.P./ O O O + # ; ; # E.U.D K 7X5X5X5X7XW 9X6X5X6X9X7X9X7X",
"7X9X7X7X9X9X.     5 L ~ i + # /.{.Q.n # O O # $ < < v s m.I.A q.7X5X5X7X9.U 9X6X7X7X9X7X6X6X",
"9X9X7X7X7XB o 7X. U R 7.e # $ T.XX*.# # O + * < 0 f P.f < ).0 0.7X7X5X5XI > 7X9X9X7X7X7X5X9X",
"9X9X7X7X7XL 7Xu . p.^ N , $ U.2Xb.$ # + O $ < a z V.uXf.} (.7 &.0.5X7X7Xp M i.9X7X6X5X7X6X7X",
"7X7X7X9X9XB 7Xl . p.9.4 $ # n.`., $ # O O ; 0 h D Y.uXf.A n.v &.&.7X+.+.T % %.7X6X7X7X9X7X7X",
"7X9X7X7X7X7X7Xe & d.p.> $ e.`.N.; # # O + , s b ) j.uXM.j.M.b G Z 7X7XP M o Z 7X7X7X5X6X7X5X",
"7X7X7X7X7X7X7X. u p.8.N < ^.<X; $ # + + # 0 z ) U.|.uXM.O.h.O.0 j 7X7XE t o t 9X7X7X9X9X7X9X",
"7X5X5X7X9X7X9Xo ! d.U P o [.^.; $ # O # $ a A <.U.>XuXoX-.M.D q &.9X7X6Xt + w  .7X9X9X9X9X7X",
"7X5X7X7X7X7X9X. N p.2 N e./.P.* $ # # $ , ( F B.-XuXuX2Xf.U.) s 6.&.7X9Xw # k Z 7X9X9X9X7X9X",
"7X7X7X7X~ 9X7X. J u.@ Z Q.,XZ.$ $ $ $ , c U.[.~.wXuXuXXXf.P.1.f G g.7X9X* * g Z 7X7X'.'.9X7X",
"5X7X7X7XJ 7X7Xo P p.+ M Z.XXa $ $ $ , 7 c XX}.,XW.uXuXW.w.U.I.s w v.9X9X% * 9 V $.7XwX3X9X7X",
"7X7X7X7XB 7X7X. ! u.O < ^.B.; $ $ $ 7 a oX`.@XrX+XuXuXW.3.{.C.q 7 ..9X9X# * 9 Z 0.6X4X;X9X9X",
"5X5X7X7Xy 7X7X. U #.+ $ Q.^., $ # ; 7 N.>X,X(.Y.2XuXuXP.2.m.j.0 , 8.8.9X% % 3 j ..7X7X7X9X9X",
"7X7X7X7X6 7X7X. 6 M + * ).OX7 $ ; ; 7 ^._.(.;XXXuXuX2XU.U.;.1.d $  .Y 7.+ % : q  .a.9X9X9X6X",
"7X6X7X7X4 7X7X. 2 e O $ @X}., $ $ ; c Q.2X1.[.uXuXuX+X3.`.C.f < c c  .k = + * < k R 7X9X6X7X",
"7X9X9X7X4 5 7X. . 4 O # {.`., $ $ ; c `._.<.j.uXuXqX-X`.V.=.8 ; X c 4.t # O > # = E 6X6X6X6X",
"7X9X7X7X> o M   . @ O # |.oX, $ $ ; 7 d ) 3.P.0XuX_.3Xm.s 3., * $ # g...O O r O + w 9X6X7X7X",
"7X9X7X7X@ . . .   . o # oX_.; # # * 7 h ) E.4XuXuX{.@XY.2.b $ * . # | v.O O k O o 2 9X7X9X9X",
"7X7X7X9X.     . . . o + U.T.; # $ $ < d D ;XyXuXqXoXU.m.{ O ; % # $ , '.: $ k + o 2 9X7X5X6X",
"7X7X7X. .   .   . . X O a P.$ # # * < ( *.V.W.uX4X3XV.U.;., * * =.* * R.a.6. .G @ & 7X7X5X9X",
"7X7X& . @ . . . . . X O $ P.; * * , 7 h A W.~.yXXX>Xb m.b < : ; : < < A.F.G.6.0.: i 7X7X5X7X",
"7X7Xo . y + . o O o O O ; B.< , < 7 s x ) 3.qXyX2X{.) V.q 8 < < 8 8 7 I.D.S.a.a.: P 8X9X9X5X",
"7X9X@ + @.= O + . O + # h w.x q s h v ) | 1.eXuX>X~.` M.D s q s s q d I.F.$.6.p.4 Z $X9X9X7X",
"7X7X% @ i.3 @ % = % * * h >.' X.A F ` -.M.,XrXuX2Xj.{ ) ) D f x j j h |.S.G.6.#X8 y.].6X9X5X",
"7X7X= = s.t = 2 = : 3 8 S z.XX_.I.;.2.(.wXeXrXuX3Xh.=.| ` 1.1.| } j.U.oX5.F.9.J.j $X$X6X9X5X",
"7X7X3 3 s.&.3 3 3 8 q H ;.E.~.}.1XqXyXtXuXyXtXuX0X;X;.=.) ) } v x A A.).{.l.$X&XJ.&X:X9X9X7X",
"7X7X9 q D.|.q q q q x H I.>XrX-XrXwXuXuXuXuXeXuXeXtX2XwX0XwX=.F A ) j.V.A R.:X8X&X%X%X9X9X7X",
"7X7Xq q oXG.f q q f A } `.0XtXqXuXtXyXuXuXyXtXuX0XyXuXwXtX0XA.} ` S ).) h y.<X:X<X:X].5X6X6X",
"5X5Xf j 0XD.j f f h X.>.uX4XeXeXuXyXuXuXuXyXtXyX0X0XuXtXrX0X^.1.=.T.P.v f ] <X:X<X:X'.9X6X6X",
"5X5Xq h 0Xk._ q f h ` t.uXqXuXeXuXyXuXuXuXuXtXeX0X0XuXuXuX0XV.2XuX2XB.v f H :X*X<X=Xk.9X5X6X",
"7X7Xq 8 uXP.>.q s h ' t.uXyXtXyXtXuXuXuXuXyXyXeX0X4XtXuXuXqXm.uXuX{.F x f V :X%X=X.Xk.7X7X5X",
"7X7X3 : f s 7 7 8 j ' Y.uXuXuXtXuXuXyXuXyXyXyXrXtXwXqXuXuXrXuXeX+Xf.A h q f %X*X*X].r.7X9X9X",
"7X5X3 + 8 < : : < j ' Y.3X4XwXrXrXyXyXyXyXtXtXeXwX0X4XwXqX+XW.=.-.v f a 3 f .X=X.X X,.7X9X7X",
"7X5X< o v < , : : f _ x.eXeXqX0XwXrXwXqXeX0X0X0X0X;X,XE./.-Xj.D z s 0 < * f %X.XOX,.k.7X7X9X",
"7X7X3 8 ,X3 0 < : 8 F t.wXrXyXqXyXtXtXtXtXqXqXrXrX/.n.` | h.V.I.s 8 : ; % f .X.XOXq 7X9X9X7X",
"7X7X9 8 j.eXh.j 8 3 C :.,XrXtXrXyXyXuXuXrXyXtXyXyXw.( c d 0 OXD < ; * % + ] H..Xk.3 9X9X9X7X",
"5X5Xg 8 8 A -XuXf s f X.).1XwXyXtXyXuXuXuXyXyXuX2X[ c d 0 ^.n , ; % + + o j j 9 % V 7X9X7X7X",
"7X7X7X8 3 < 8 2.1X!.q C ~.,XqXqXyXyXuXuXuXuXyXyX-XD z 7 z n.* * # O O O o ` % @ % r.7X7X9X7X",
"7X7X9Xt : : ; = + : 3 j E.+XrX3X>X0XtXeXqX3X>XeXn.c s 7 e.# # O O X X X f o o + = 7X7X7X9X5X",
"9X9X7X7X7X% % % % % = f x.>XqX4X2X2X2X4X2X2XoXoXoXs 7 7 $ # O O X X . X . X 3 H 9X9X6X9X7X7X",
"7X9X7X7X7X# + O o o = 9 z.2X-X4X4X4X2X3X+XqX|.,X!.V.* n a O O . X X X . X O :.7X9X9X9X9X7X5X",
"7X9X7X7X% + o o o o % 3 t.,XoX}.+X>X;X+X}.3XXX|.s 7 ( /.X O X . . . . . * 7X7X9X9X9X9X9X5X6X",
"7X9X9X9X% + o . . . @ : X.>X@X[.[.{.{.[.`.`.|.q < : $ d O X X . . . . . C 9X7X7X6X9X7X7X7X6X",
"7X7X7X5X5X. . . . . o % m t.!._.}.@XoX!.~.c.3 = # O X . . . . . . . . . * 7X5X7X6X9X7X5X6X7X",
"5X7X7X7X7X. .     . o @ 3 f C o.z.L.r.t.= @ @ + O X . . . . .   . . . X @ 7X5X7X6X9X6X5X7X7X",
"5X7X7X7X7X2 .   .   . + 2 3 9 m j V C j f = o o . . . . . . . . . . . o 7X7X7X7X7X9X7X7X7X7X",
"7X7X7X7X7X7X. . . . . . o 2 = : 3 : 2 = % . . . . . . . . . . . . X o + 7X7X7X7X9X7X9X7X7X7X",
"5X7X7X5X5X7Xo . . .   . . . o @ + @ + + o o o . . X . . . o . o O O : 7X7X7X7X7X7X7X7X9X7X7X",
"7X9X7X5X5X7X9X7X! T 9X9X. . . . o o o X . . . . . X o . o o o @ Z 7X7X5X7X5X7X7X7X7X9X7X7X5X",
"7X9X7X7X7X7X9X9X7X9X7X7Xo . E P . P 6X  X . . % = 9 g V X.o.o.F.7X5X5X7X7X7X7X7X7X5X7X7X7X7X",
"7X7X7X7X5X7X9X9X7X7X7X7X9X7X7X7X7X7X7X7X7Xo o 5X5X6X7XK.K.7X9X9X7X5X9X9X7X7X7X7X5X5X7X9X9X7X",
"7X9X7X7X7X7X7X9X7X7X7X7X9X7X7X9X7X7X7X7X7X& 2 7X7X7X7X7X5X5X7X7X5X5X5X5X9X9X9X5X5X7X7X7X7X7X",
"7X9X7X7X7X7X7X7X5X7X7X7X9X7X9X9X7X7X7X7X7X7X5X7X9X7X7X7X7X5X7X7X9X5X5X7X7X7X7X7X7X7X9X7X5X7X",
"9X9X5X7X5X5X7X7X7X7X7X7X7X9X7X7X7X7X7X7X7X7X5X7X7X7X5X5X7X7X7X7X7X5X5X5X5X7X7X9X7X5X7X7X5X9X",
"9X9X7X7X7X7X7X9X7X7X7X7X7X9X7X7X7X7X7X7X7X7X5X7X7X9X7X7X7X7X7X7X7X5X7X9X9X9X9X7X7X5X7X7X7X9X"
};
