/* XPM */
static char *result[] = {
/* columns rows colors chars-per-pixel */
"52 70 249 2 ",
"   c #0A191C",
".  c #030D13",
"X  c #041D28",
"o  c #131D26",
"O  c #0B2527",
"+  c #142223",
"@  c #122229",
"#  c #122B2D",
"$  c #0C2E33",
"%  c #072838",
"&  c #132A31",
"*  c #0B3637",
"=  c #09363B",
"-  c #143739",
";  c #0B302D",
":  c #322E2A",
">  c #333332",
",  c #0A231F",
"<  c #693A38",
"1  c #6D302E",
"2  c #423D3E",
"3  c #71443E",
"4  c #6E423D",
"5  c #0C3A4C",
"6  c #0A3546",
"7  c #093E56",
"8  c #153948",
"9  c #044143",
"0  c #0A4246",
"q  c #0C4449",
"w  c #0A484C",
"e  c #194545",
"r  c #0B4B53",
"t  c #0C4856",
"y  c #144453",
"u  c #0D535C",
"i  c #095759",
"p  c #14545C",
"a  c #185759",
"s  c #1C534E",
"d  c #27484A",
"f  c #27474A",
"g  c #254B56",
"h  c #255758",
"j  c #345759",
"k  c #2D4E4E",
"l  c #1A625C",
"z  c #26615D",
"x  c #35625E",
"c  c #0D5363",
"v  c #0A5C64",
"b  c #135663",
"n  c #135B62",
"m  c #175A69",
"M  c #185C7A",
"N  c #114D63",
"B  c #2A5A66",
"V  c #275867",
"C  c #395A67",
"Z  c #224E60",
"A  c #0B6368",
"S  c #146364",
"D  c #18676B",
"F  c #0D6972",
"G  c #136C74",
"H  c #176A77",
"J  c #0C7978",
"K  c #1C757C",
"L  c #177879",
"P  c #1A726D",
"I  c #256767",
"U  c #396566",
"Y  c #2D6374",
"T  c #246C75",
"R  c #356B77",
"E  c #24787D",
"W  c #327C7F",
"Q  c #39787D",
"!  c #297369",
"~  c #515654",
"^  c #694745",
"/  c #784444",
"(  c #6D5955",
")  c #51625D",
"_  c #446769",
"`  c #497577",
"'  c #4E7376",
"]  c #736766",
"[  c #717472",
"{  c #5E6160",
"}  c #16403C",
"|  c #863A36",
" . c #883937",
".. c #9A3F3D",
"X. c #91494A",
"o. c #B4524D",
"O. c #B8534F",
"+. c #B65651",
"@. c #BB5A57",
"#. c #A95250",
"$. c #BE615B",
"%. c #A9675F",
"&. c #89756A",
"*. c #94756E",
"=. c #B16E68",
"-. c #906A5F",
";. c #C4625B",
":. c #C16057",
">. c #CC7167",
",. c #24847A",
"<. c #67817A",
"1. c #BA8778",
"2. c #D28274",
"3. c #137C82",
"4. c #1B7C84",
"5. c #1B7D8C",
"6. c #177887",
"7. c #127C8B",
"8. c #267C85",
"9. c #357983",
"0. c #25718C",
"q. c #467B87",
"w. c #557885",
"e. c #607D89",
"r. c #1B8385",
"t. c #15858C",
"y. c #1C838C",
"u. c #198788",
"i. c #1C8592",
"p. c #178991",
"a. c #1B8A93",
"s. c #1B8B98",
"d. c #1C9698",
"f. c #138987",
"g. c #248A85",
"h. c #21848C",
"j. c #228C8C",
"k. c #298788",
"l. c #338888",
"z. c #27928A",
"x. c #228B94",
"c. c #248B97",
"v. c #368D93",
"b. c #229496",
"n. c #23949C",
"m. c #239C9C",
"M. c #2A9896",
"N. c #36989A",
"B. c #2CA69C",
"V. c #1E98A3",
"C. c #239BA5",
"Z. c #2C9AA4",
"A. c #2897A5",
"S. c #339AA4",
"D. c #389CA6",
"F. c #2B9FB3",
"G. c #1EA7A3",
"H. c #27A6A8",
"J. c #34A3AC",
"K. c #3AA4AC",
"L. c #39A4A8",
"P. c #2AB5AD",
"I. c #3AACB3",
"U. c #37A9B3",
"Y. c #28B8B2",
"T. c #38B6B8",
"R. c #36AFAE",
"E. c #1EA49C",
"W. c #5A8486",
"Q. c #498895",
"!. c #568A97",
"~. c #44989C",
"^. c #549195",
"/. c #658689",
"(. c #6B949B",
"). c #668B98",
"_. c #5B97A3",
"`. c #469CA5",
"'. c #679AAA",
"]. c #709DA7",
"[. c #4DABAB",
"{. c #44A8AB",
"}. c #51ADAC",
"|. c #56B2AD",
" X c #45ADB1",
".X c #44B1B3",
"XX c #4DB2B4",
"oX c #4ABABB",
"OX c #53B5B3",
"+X c #5ABCB9",
"@X c #55B9B8",
"#X c #4CB0B0",
"$X c #67A4AB",
"%X c #77A5AB",
"&X c #6EA4B5",
"*X c #78ABB6",
"=X c #78B1B8",
"-X c #67BAB5",
";X c #45A094",
":X c #33C5B9",
">X c #33C4B5",
",X c #50C3BB",
"<X c #6EC3BC",
"1X c #3DBBC1",
"2X c #4DBBC2",
"3X c #7FB2C0",
"4X c #39D5C6",
"5X c #35CCC2",
"6X c #5BC6C5",
"7X c #4DCDCA",
"8X c #67CAC8",
"9X c #74CDC6",
"0X c #79D3CA",
"qX c #6FD7D4",
"wX c #6CE1DC",
"eX c #7CE1E3",
"rX c #90948E",
"tX c #83B3BD",
"yX c #8CB7BD",
"uX c #95B9B9",
"iX c #84ADB6",
"pX c #B29B93",
"aX c #8DBBC3",
"sX c #8FBEC8",
"dX c #84B5C1",
"fX c #91BBC2",
"gX c #90BFC9",
"hX c #84C9CB",
"jX c #9CC5CC",
"kX c #96C4CA",
"lX c #84D6CD",
"zX c #88DAD8",
"xX c #96D6D4",
"cX c #A8D6D9",
"vX c #ACD0D3",
"bX c #94E4DD",
"nX c #8BE2DD",
"mX c #B6DEE2",
"MX c #98E8E4",
"NX c #86E0E1",
"BX c #A9E9E7",
"VX c #B6E7E6",
"CX c #B9F5EA",
"ZX c #B0F4EC",
"AX c #9BD9E0",
"SX c #C7F8EC",
"DX c #D0F5F0",
"FX c #E3F7F8",
"GX c None",
/* pixels */
"GXGXGXGXDXDXDXDXSXDXSXSXSXSXCXCXCXCXCXCXVXVXZXVXBXZXBXBXBXBXBXBXMXMXbXbXbXMXnXnXNXnXNXzXNXNXeXzXGXGXGXGX",
"GXGXGXGXSXxXlXlXlXlXlX0X0X0X0XlX0X0X0X9X0X0X9X9X8X9X8X8X8X8X8X6X8X6X8X2X2X-X6X+X+X+X2X+X+X2X@X~.GXGXGXGX",
"GXGXGXGXCX-X+X+X<X,X-X<X|.+X+X+X+X+X+X+X@X+X@X+X+X+X@X@XOXOXOXOXOXOXOXOXOXOXOXOX|.OXOXOX@XOXXX~.GXGXGXGX",
"GXGXGXGXCX-X+X+X,X|.;X[.|.}.}.}.}.[.}.[.[.[.[.[.[.[.[.[.[.[.}.[.{.[.[.[.[.[.{.[.[.{.[.{.XXOX|.~.GXGXGXGX",
"GXGXGXGXCX|.+X+XOXl.,.9.,.9.,.q.9.W W W W W 9.9.W W W W W W 8.W W W W 9.Q W W W 9.9.W 8XOXOX[.~.GXGXGXGX",
"GXGXGXGXSX|.+X+XOX(.SXfXkXgXgXgXsXgXsXsXgXsXhXkXgXgXgXgXkXgXsXkXsXsXkXsXsXsXsXsXsXsX_.lX#XXXXX~.GXGXGXGX",
"GXGXGXGXSX|.OX+X}.'.VXjXfXyXyXuXfXfXuXfXyXfXyXuXuXaXyXyXyXfXaXuXaXyXaXuXfXfXyXfXjXjX'.9X@XXXOX~.GXGXGXGX",
"GXGXGXGXSX;X+XOX|.$XVXjX' f d d d d d d d d k d f f f f f d f f d d d f f f f _ uXkX'.9X+XXXXX~.GXGXGXGX",
"GXGXGXGXSX|.OXOXOX$XSXjX~ O ; # # # # # # # O # # # # O # # & & # # # # ; ; - k uXjX$X<X<X.X.X~.GXGXGXGX",
"GXGXGXGXCX|.+X+X#X=XmXjX~ O * = * = * * * * = = * * * = * * * = * * * * * * - j uXkX$X|.6X.XL.~.GXGXGXGX",
"GXGXGXGXCX+X@XOX#X-XmXjXU O = 9 0 9 0 5 9 9 9 0 0 9 9 9 6 9 7 6 9 6 9 9 9 9 w h uXjX%X[.8X X.XN.GXGXGXGX",
"GXGXGXGXCX|.OXOX}.=XmXjX_ O 0 = X X X X X X X X X X % % % % % % = = 6 % % i l s uXkX*X;X8X.X X~.GXGXGXGX",
"GXGXGXGXZX,X|.OX[.*XmXgX_ O 0 = X X % % % % % % % % % 6 6 6 8 g B j g 8 5 N A s uXjX*XN.6X X XL.GXGXGXGX",
"GXGXGXGXMX|.|.OX}.*XmXgX) % w 5 = 5 8 y 5 8 % % % % 6 8 5 8 8 C _ C Z 5 5 v D h uXjX=Xv.8X X{.L.GXGXGXGX",
"GXGXGXGXZX,XXXOX#X=XvXgX_ - w 9 = 5 t t t 8 % % % % 6 5 8 7 C C V 7 g 5 7 v G h vXjX=Xl.6X.XI.~.GXGXGXGX",
"GXGXGXGXBXOXXXXX}.=XvXfXC - r w 6 5 7 7 5 6 % % % % 5 5 5 0.q.Y 9.m 5 5 5 F H B vXjXtXl.6X.X{.D.GXGXGXGX",
"GXGXGXSXbX0X8XqX<XhXjXfXj e r 5 = 6 7 7 7 8 6 6 6 6 m M M 9.0.M M M N N N H P I cXkXdX}.qX8XqX0XBXDXGXGX",
"GXGXFXN.L.N.N.M.v.8.=XaXj y t 6 6 5 7 7 7 7 7 7 7 M M M 0.0.M 0.M M 0.H M h.E U mXkX|.D.N.v.v.v.v.v.GXGX",
"GXGXGXv.t.t.3.3.3.n Q aXj g N t t N N N N N N N M 0.6.5.0.7.7.7.7.7.7.7.t.J P I vX].v.t.6.3.3.J F a GXGX",
"GXGXGXcXJ L J 3.3.B 9.yX' Y Y Y Y Y Y Y Y Y Y Y Y 9._._._.'.&X&X&X*X3XdXdXdXkX%XmX(.Q.3.3.3.3.3.P ).GXGX",
"GXGXGXcX{.v.N.N.v.Q.].iXU B V V B B B B V V V V V R Q.!.!.'.!.'.'.'.&X%X*XiXiX%XmXiX).I L.4.4.8.'.FXGXGX",
"GXGXGXGXOX.X.X.X{._.kXiXf $ $ * $ $ $ $ $ $ $ $ $ * $ $ $ - - e g f j j j U _ _ vXfX&XI wXL.K.L.yXGXGXGX",
"GXGXGXGXOX{. X.X{.'.gX%X- o 0 0 5 0 } 0 0 0 q q 0 0 0 q 0 q 0 q 0 w q y w w q e uXkX%XY wXN.M.N.=XGXGXGX",
"GXGXGXGXoXg.E L.{.'.kX].& o w w r i i i r u p D P P F i S v A l v S S S D S S s uXgX*XY wX4.F 4.$XGXGXGX",
"GXGXGXGXoXi J D.{.'.kX(.o X q p a n n S a S D g.g.j.J S ,.u.u.z.g.j.g.g.z.P P s iXuX%XY qXJ F u._.GXGXGX",
"GXGXGXGX.Xi J H.{.'.kX).  O w a S P I D P D P z.z.g.J S ,.z.M.z.M.M.M.z.z.L G a (.fX*XR qX,.J t.Q.GXGXGX",
"GXGXGXGX.Xi f.J.`.$XsX/.  O r a v S l l l l l ,.j.j.,.A ,.f.z.,.z.l.z.z.z.L G h W.uXiXR 7Xr.J p.l.GXGXGX",
"GXGXGXGXI.i f.J.`.&XgXe.  O r i a l ( ( ( ~ z L j.j.J D ,.,.z.(.1.pX1.` ,.L G l ' gX*XR 7Xr.J p.E GXGXGX",
"GXGXGXGX.Xi p.J.`.$XsXe.  O r p A z ( 4 3 ^ s L u.z.J D ,.u.l.1.;.;.:.x k.P L I x uXtXR 6Xy.J p.G GXGXGX",
"GXGXGXGXU.A d.K.N.&XsXw.  $ p i v z ^ 3 3 3 s ,.g.j.3.D ,.u.v.*.;.;.;.) g.L t.I h yX=XR ,Xh.f.p.H GXGXGX",
"GXGXGXlXK.A d.U.~.%XaXw.o $ r p S j ^ 3 3 ^ z P u.j.f.G L u.l.*.;.;.;.) z.J y.T } yXtXR T.c.r.p.H GXGXGX",
"GXGXGXBXK.F V.R.v.*XaX' o 8 p p n I ^ ^ ^ 3 D L j.j.3.D r.u.z.*.;.;.;.) j.,.p.H e fXtXq.I.b.u.s.K GXGXGX",
"GXGXGXMXU.F C.I.v.=XfX_ @ 8 u p n j ^ / 3 3 ! L u.j.f.D g.u.l.&.;.;.;.) b.r.p.K e jXtXq.J.M.p.d.J GXGXGX",
"GXGXGXMXD.J H.U.l.iXsXC @ e p v n I ^ 3 3 ^ ! L j.h.3.H 8.u.g.&.:.;.;.) z.u.s.K s jXtXQ.Z.n.s.s.6.GXGXGX",
"GXGXGXMXJ.3.H.U.8.dXaXC @ e u n n I ^ < 3 4 ! L j.h.3.H K u.,.&.:.:.;.{ d.,.b.,.h vXdXQ.b.n.x.s.4.GXGXGX",
"GXGXGXzXJ.6.C.I.0.dXaXk @ 8 p n n B ^ 3 3 < ! L h.j.r.D k.u.r.&.:.:.;.{ b.r.d.h.B cXdX!.s.n.x.d.h.GXGXGX",
"GXGXGXzXJ.i.H. X8.dXaX8 @ y p n S I ^ < < 4 I E j.j.f.G 8.u.g.&.$.$.$.{ b.f.E.j.U cX=X_.t.A.n.s.h.GXGXGX",
"GXGXGXqXD.i.F.I.T sXfX& O g a n S j ^ < 4 3 I K h.h.u.H k.u.r.] @.@.$.~ b.j.m.M.U mXdX'.7.A.A.V.h.GXGXGX",
"GXGXGX0XS.n.J.K.H gXaXX @ g b n S j 4 < < / ! K g.a.f.G 8.h.u.] @.@.$.( b.j.H.n.U mX3X'.3.V.A.V.x.GXGXGX",
"GXGXGX8XS.n.U.K.m gXdX. @ h p n S j < < < X.I K r.h.f.H h.h.u.] @.@.$.{ m.b.H.m.I VX3X'.F V.A.C.i.iXGXGX",
"GXGXGX6XD.A.U.D.b gXdX. o y b m A j 2 1 < X.T K h.j.t.K h.y.y.] o.@.@.( M.d.E.H.x mXtX'.F V.A.F.i.].GXGX",
"GXGXGX,XS.J.T.Z.p aX3X. o a b b v j < < 1 #.I 3.h.x.a.H y.y.y.] o.O.@.( M.m.E.H.x mXtX'.F V.F.F.i.W.GXGX",
"GXGXGXoXS.J.1Xc.m aX*X. o p m b m k < 1 1 #.T K y.x.s.H h.y.a.] O.O.@.( b.m.d.P.z vXtX'.F V.S.U.c.R GXGX",
"GXGXGXoXS.U.2Xc.Y aX&Xo o a b b n j < 1 1 #.T L y.x.s.G y.y.h.] O.O.O.( z.E.E.P.I jX=X&XA F.S. Xc.V GXGX",
"GXGXGXT.S.K.2Xh.Y yX&Xo @ p n c m a f ~ ~ ( E K y.h.a.K 8.5.s.' ] ] ] ' M.H.d.P.z uXtX'.v F.D..Xx.p GXGX",
"GXGXGXT.A.K.7X5.q.dX'.@ + p m n t w y t p P K K y.x.a.H 5.c.i.5.0.8.a.p.p.B.d.Y.h iXdX'.v V.2X7Xn.p GXGX",
"GXGXGX1XZ.7X2X3.q.dX].@   p n c b b p n T h.8.5.h.x.s.H '.uXv.c.A.n.H.H.H.P.p.>Xh (.tX'.c V.F.J.5.s GXGX",
"GXGXGX1XA.A.n.H !.iX'.+ , b m u u R R R Q.(.~.0.i.s.s.G /.rX0.n.n.V.C.H.P.Y.d.>Xl <.yX$Xc V.V.s.5.p GXGX",
"GXGXFXI.,.f.f.i !.*X).@ O b n c p ~ ~ ~ { &.> E h.s.s.H W.] 8.s.V.V.H.H.G.P.E.:Xa ' yX$X6 P A v c p GXGX",
"GXGXDXZXBXBXMXBXkX=X).@   n b p u h s d x ` q.0.x.c.s.H Q.rX4.d.V.V.F.G.Y.P.E.:Xl U kX=XBXMXbXbXzXlXkXGX",
"GXGXBX0XlXlX0XlX<XdXe.O , b b c u u u n F 4.5.5.5.c.s.H W.rXK d.d.G.G.Y.Y.Y.E.:Xl x yXkXxXlX0X0X0X0X-XGX",
"GXSXlX9XlX<X0X9X9X*Xe.@ , b b u p i v i L J r.5.5.s.c.H K m 5.b.m.V.H.G.Y.Y.H.5XP x =XbX9X<X9X9X<X9X^.GX",
"GXlX.X XXXXXXX[.{.&Xw.@ , p n u D a z I Q l.y.6.5.s.c.H a.a.B.N.N.N.;XR.P.P.H.5XL x *X8X.X#X#X.XOX#XE GX",
"GXhX.XN.G G g..X[.&X` + O p n r I k ^ ^ %.*.8.G 5.i.b.G i.s.m.<.1.1.1.<.P.P.P.:X,.x $X<X[.N.j.l.L..Xl.GX",
"GX0X.XS.3.y.Z. X`.&X_ + # b n r D j ^ / ;.=.E G 6.i.x.G i.s.C./.>.2.2.1.P.P.Y.4Xz._ (.+X XD.h.y.L.{.E GX",
"GXhX XZ.r.p.J.R.D.&Xj + # v c r V j ^  .;.=.8.G 6.i.d.G c.s.m.[ >.2.2.[ P.P.:X4Xz._ ].OXK.L.a.p.H.{.W GX",
"GXhXK.S.y.s.T.K.v.&Xk o & m p r m k < X.@.%.8.H 6.h.d.G i.s.m./.=.2.2.-.P.P.>X:XB.<.%X;XR.{.a.s.Z.L.E GX",
"GXxXK.A.x.n.1XJ.0.&Xf + - b r r V k < #.O.%.6.H 6.y.b.G i.a.Z.[ ;.>.>.&.B.>X:X4XB._ (.;XI.D.c.A.J.L.8.GX",
"GXAXJ.Z.c.Z.T.S.8.'.8 + - v r r b k < #.o.#.0.M 6.5.n.G i.s.V.[ :.;.>.-.P.Y.4X4XB._ (.^.U.S.c.F.J.Z.k.GX",
"GXAXU.Z.c.Z.U.S.6.'.@ o - S r r p y > ^ ^ ~ T F 6.5.b.F i.p.d.` ( -.-.[ E.Y.4X4X>Xx W.Q.U.F.s.U.J.Z.l.GX",
"GXBXF.A.S.2XC.A.8.'.# @ 8 l r r r r r F G G F F H 5.M.G y.s.t.f.j.d.E.E.E.Y.4X4X>Xx <.^.F.A.F.7XU.A.v.GX",
"GXVXF.A.A.U.V.n.Q.'.& + e S w w w w w G F F G G J 5.m.F i.p.d.s.d.E.E.>XY.5X4X4X,Xk ,.W.F.A.Z.Z.A.A.Q.GX",
"GXVXS.A.C.Z.Z.A._._.& + e S 6 0 0 0 q S S S S D D L j.D 4.y.r.a.d.b.z.E.B.,.P.>X,Xs q.!.A.A.A.F.J.L.`.GX",
"GXMX9X9X9X9X9X9X-X!.# + $ * ; ; * } } e e e e e e s s s s s s l l l l ! ,.! ,.,.N.e Q.-X0X8X0X8X0X9X-X%X",
"cXD.S.S.N.Z.c.x.h.T j _ ' [ /././././././.W./.<.W.<.<.<.<.<.Q ` <.Q ' ' ' _ _ _ ` U ,.B.N.N.N.N.N.A.N.D.",
"AXx.s.s.i.i.i.p.p.Y > : : : : : : : : : : : : : : : : : # : : : : : : : : : : : : : s j.a.a.p.p.a.p.y.c.",
"GXy.p.p.a.p.a.i.p.Q /  .|  . . .| | | | | | | | 1 | | | | | | | | | | | | | | |  . .) p.p.t.p.p.y.p.p.3.",
"GX4.p.i.p.t.i.p.y.R X...o.o.O.o.o.o.o.o.o.o.+.+.@.@.+.+.+.+.+.+.+.+.+.+.o.+.$.+.@.#.[ i.p.t.t.y.t.t.t.F ",
"jXA G G F F F F F C 3 o.o.O.O.O.o.o.o.o.o.o.o.+.+.+.+.+.o.+.+.+.+.+.+.+.+.+.+.+.+.+.{ 8.7.r.3.3.J L G 6 ",
"GXGXGXGXGXGXGXGXGXGXGXGXGXGXGXGXGXGXGXGXGXGXGXGXGXGXGXGXGXGXGXGXGXGXGXGXGXGXGXGXGXGXGXGXGXGXGXGXGXGXGXGX"
};
