/* XPM */
static char *result[] = {
/* columns rows colors chars-per-pixel */
"52 70 238 2 ",
"   c #02151D",
".  c #04181D",
"X  c #041C25",
"o  c #041E29",
"O  c #041A23",
"+  c #06222A",
"@  c #0A262C",
"#  c #052A34",
"$  c #0B2B32",
"%  c #042A39",
"&  c #0A2D3A",
"*  c #062633",
"=  c #102D30",
"-  c #0D323B",
";  c #093A39",
":  c #093539",
">  c #153336",
",  c #12353C",
"<  c #16393A",
"1  c #112C2D",
"2  c #2A353B",
"3  c #562C2D",
"4  c #5E302B",
"5  c #5A3536",
"6  c #4D2E32",
"7  c #622D2B",
"8  c #64322E",
"9  c #643231",
"0  c #1E423A",
"q  c #0C413F",
"w  c #22463E",
"e  c #0C3444",
"r  c #0D394E",
"t  c #093945",
"y  c #133A45",
"u  c #0B3C53",
"i  c #0B354A",
"p  c #2B3E42",
"a  c #443F46",
"s  c #0B4144",
"d  c #0A474B",
"f  c #18484B",
"g  c #18514E",
"h  c #0C4453",
"j  c #0C4C56",
"k  c #154A57",
"l  c #0C535C",
"z  c #095357",
"x  c #145256",
"c  c #12535B",
"v  c #1B5757",
"b  c #0F514F",
"n  c #254841",
"m  c #244C53",
"M  c #245859",
"N  c #345050",
"B  c #16635E",
"V  c #26685D",
"C  c #134C63",
"Z  c #0C5A63",
"A  c #0A5C68",
"S  c #145B63",
"D  c #185A64",
"F  c #0F5977",
"G  c #145D76",
"H  c #0E4A63",
"J  c #275966",
"K  c #365D66",
"L  c #0A646A",
"P  c #156A6B",
"I  c #166666",
"U  c #187267",
"Y  c #0D6774",
"T  c #146A74",
"R  c #166E79",
"E  c #186775",
"W  c #0A747A",
"Q  c #13737D",
"!  c #177579",
"~  c #246969",
"^  c #39686C",
"/  c #2B6775",
"(  c #317374",
")  c #53514E",
"_  c #705052",
"`  c #496A70",
"'  c #68736F",
"]  c #73695D",
"[  c #5C403F",
"{  c #923935",
"}  c #8B3935",
"|  c #94413D",
" . c #AE5151",
".. c #AB5755",
"X. c #BD5551",
"o. c #BE5955",
"O. c #B54B49",
"+. c #905C5A",
"@. c #C05854",
"#. c #D3544C",
"$. c #D56459",
"%. c #E36B5A",
"&. c #E97863",
"*. c #0C847D",
"=. c #76877F",
"-. c #F28B6F",
";. c #DD9272",
":. c #9A807E",
">. c #197682",
",. c #137B85",
"<. c #1C7B84",
"1. c #157C8A",
"2. c #177888",
"3. c #14768A",
"4. c #247B87",
"5. c #3B7989",
"6. c #4A7F92",
"7. c #0C8B83",
"8. c #16838B",
"9. c #1A838B",
"0. c #1A8488",
"q. c #1B8992",
"w. c #158A97",
"e. c #16969C",
"r. c #0E9093",
"t. c #26858A",
"y. c #3E898C",
"u. c #258A95",
"i. c #338E93",
"p. c #26949C",
"a. c #399698",
"s. c #1AA89D",
"d. c #1795A3",
"f. c #2B9AA4",
"g. c #2899A4",
"h. c #349AA3",
"j. c #1AACAC",
"k. c #29A6A8",
"l. c #39A6A9",
"z. c #2AB5AB",
"x. c #2DABB1",
"c. c #37ACB1",
"v. c #2CB4B4",
"b. c #2ABBB8",
"n. c #36B5B5",
"m. c #39B6AE",
"M. c #38A19D",
"N. c #478B8E",
"B. c #4B8E91",
"V. c #4B8393",
"C. c #489496",
"Z. c #54969A",
"A. c #588B95",
"S. c #6D969E",
"D. c #67989A",
"F. c #74989D",
"G. c #6C8C91",
"H. c #4EA09C",
"J. c #528EA3",
"K. c #5A99A5",
"L. c #479DA2",
"P. c #669AAA",
"I. c #779BA4",
"U. c #4DA5A6",
"Y. c #45ACAC",
"T. c #49A9AA",
"R. c #53AAA9",
"E. c #54A9A8",
"W. c #56B0AA",
"Q. c #4DB4B3",
"!. c #47B7B8",
"~. c #53B5B5",
"^. c #5BBAB6",
"/. c #55B5B9",
"(. c #5BBBBA",
"). c #56B9B8",
"_. c #48ADB1",
"`. c #71AAB1",
"'. c #29C9BB",
"]. c #34C8B9",
"[. c #2DD5BA",
"{. c #35D7BC",
"}. c #57C2BD",
"|. c #49C0BD",
" X c #63C2BC",
".X c #6AC6BF",
"XX c #73C9BE",
"oX c #60E7B9",
"OX c #2FBBC1",
"+X c #5ABDC4",
"@X c #2AC6C2",
"#X c #37D9C7",
"$X c #33C5C0",
"%X c #3EE4CC",
"&X c #48C7C8",
"*X c #55C5C3",
"=X c #54D1D5",
"-X c #53D1D0",
";X c #6DC9C3",
":X c #69C8C5",
">X c #75CDC7",
",X c #68D3CC",
"<X c #79D3CB",
"1X c #66DBD5",
"2X c #78DAD5",
"3X c #6DCFD0",
"4X c #44E6C7",
"5X c #4CF3D1",
"6X c #4CF0CF",
"7X c #6EE9E8",
"8X c #99AD98",
"9X c #87B2B7",
"0X c #A69E93",
"qX c #9BCDB9",
"wX c #B1D0B4",
"eX c #8CB9C6",
"rX c #98C3CB",
"tX c #85D6CC",
"yX c #9ECBD4",
"uX c #9BC5D1",
"iX c #89DCD2",
"pX c #95DDD4",
"aX c #86C5C3",
"sX c #A8CCCE",
"dX c #A4CCD4",
"fX c #ABCFD1",
"gX c #A9D4D5",
"hX c #B4D4CE",
"jX c #84E5D9",
"kX c #9BE3D7",
"lX c #A7E4D8",
"zX c #B4ECCF",
"xX c #B8E7E5",
"cX c #B6F1E4",
"vX c #A4E6E4",
"bX c #CCF9F3",
"nX c #C1E9C3",
"mX c None",
/* pixels */
"mXmXmXmXcXcXcXcXcXcXlXlXvXlXkXkXkXkXiXpXiXiXtXtXtX<X2X>X3X>X:X:X:X:X*X}.}.}.).!.).!.!.!.l.c.c.h.mXmXmXmX",
"mXmXmXmXcX<XtX<X<X>X<X<X<X>XXX>X;X:X:X X;X(..X(. X X+X+X(.(.(.(././.~.~.^./.~./.Q.Q.!.Q.!.Q./.L.mXmXmXmX",
"mXmXmXmXkX X(.(.}.^.^.W.^.^.}.}.(.^.).^.^.).).)././././.)././././././././.~././.Q.~.).~.~.Q.).L.mXmXmXmX",
"mXmXmXmXlX(.(.^.W.W.U.E.E.U.W.W.R.E.E.E.E.E.E.E.E.E.E.E.U.U.E.U.U.U.U.U.U.U.U.U.U.U.T.*XQ.Q.Q.Z.mXmXmXmX",
"mXmXmXmXiX^.^.^.H.N.V.B.B.N.B.B.B.B.B.B.B.B.B.B.B.B.B.B.N.B.B.N.N.N.N.N.N.N.N.N.B.N.y.vXQ.).!.C.mXmXmXmX",
"mXmXmXmXtX^.^.^.C.`.fXdXyXsXdXyXyXyXyXyXyXyXyXyXyXdXyXdXyXyXyXdXyXyXyXyXyXyXyXyXyXuXZ.jXT.Q.Q.C.mXmXmXmX",
"mXmXmXmX<XW.).~.C.9XdXeXF.S.S.S.S.S.S.S.D.P.S.S.S.S.S.S.S.I.P.S.P.F.I.S.I.F.P.9XsXrXZ.jXY.Q.Q.N.mXmXmXmX",
"mXmXmXmX`.}.^.^.C.9XsX9X> > > > > > > > > > > > , > , > > > > > > < > < > > < G.fXrXZ.jXY.Q.Q.a.mXmXmXmX",
"mXmXmXmXXX^./.(.C.rXfX9X@ 1 1 1 = = = = = = > 1 = $ 1 > = = = = = = = = 1 1 = I.hXrXZ.jXQ.Q.Y.a.mXmXmXmX",
"mXmXmXmXXX/././.a.yXfX`.  1 ; ; ; ; ; ; ; ; ; ; ; ; ; ; - > e y ; ; ; ; ; ; ; I.fXrXK.jXQ.Y.M.C.mXmXmXmX",
"mXmXmXbXXX/././.C.gXgXI.  ; q s t s s t s s s t s s t t r s u u g k x b x z b F.fXrXK.2X|.Y._.a.mXmXmXmX",
"mXmXmXbX>XW.~.^.a.gXdXI.  q q # o o o o X o % & & & % & e & & i y y & % # z B D.fXrX`.2X).Y.Y.C.mXmXmXmX",
"mXmXmXbX:X~.~./.N.gXdXI.. q s = o * * * * & i i i e e i i i r a ` ` m i i C B D.fXrXP.2X*Xc.Y.h.mXmXmXmX",
"mXmXmXbX.X~.Q.~.y.xXdXI.. q j y y r u k u J r r r r r r r r r 6.` r r r r Z U A.sXrX`.3X*Xl.Y.L.mXmXmXmX",
"mXmXmXbX:XQ._./.y.xXuXI.@ d d e i u h h C u r r r r r r i p 5.K k u r r r A P A.sXrX`.,X*XY.l.h.mXmXmXmX",
"mXmXmXbX(.~.~._.5.bXsXF.1 b h e i u h H C r u u r r r u C 5.5.5.G k u r r A P ` fXrX`.:X|.Y.Y.h.mXmXmXmX",
"mXmXmXcX2X,X3X;X`.lXrXS.= j h - e u u F C u H H u H F 3.5.5.5.F G G C C u L ! ` fXrXaX,X2X3X3X>XmXmXmXmX",
"mXmXM.M.l.a.M.l.h.C.eXS., b u e i u H F >.F H 3.>.3.>.H 3.F F 3.G G Y G Y ! ! ^ fXaXU.L.a.i.i.i.a.y.mXmX",
"mXmXI 8.8.8.0.0.4.J eXG., k c k z H >.3.3.3.3.3.3.3.3.3.3.3.3.3.1.1.1.8.8.W P V sXS.t.*.0.Q t.! L d mXmX",
"mXmXfXQ Q ! ! >XlXh `.S.K / / / / / / J.P.J.J.6.J.J.J.P.6.P.P.P.`.`.`.eXeXeXrX=.dXD.m.*.! Q *.! T mXmXmX",
"mXmXmXU.a.a.i.kXhXt ~ ^ J J J J J J J 6.6.6.6.6.V.V.A.A.A.K.A.P.P.P.I.`.9X9X`.H.}.[.'.*.T ! t.! I mXmXmX",
"mXmXmX>XY.Y.Y.lXlX: d d d t : > , & & p C r m p f f k m m m m M K K K ^ ^ ^ W.].[.s.s.*.! l.l.l.mXmXmXmX",
"mXmXmX>XT.E.L.kXlXt v x j d y X O O O @ $ * & * @ @ 1 @ * $ @ @ $ $ = = B [.[.[.{.6X[.*.! i.a.M.mXmXmXmX",
"mXmXmX.Xa.*.i.kXlXd B I B b , .   . O o O O O o X X X X + X + . o O o O U [.4X6X5X6X[.*.! I l *.mXmXmXmX",
"mXmXmX:Xi.W *.kXzXd I U B B < .     O O X X X X X X . + X X X + O O o O U 5X5X5X5X5X[.*.*.B L W mXmXmXmX",
"mXmXmX Xt.W t.kXlXd V B I I s .     O O X X X X X X X X X X + . o O O O ~ 5X5X5X5X5X[.*.! c L ,.mXmXmXmX",
"mXmXmX*Xt.W *.kXlXz U ^ V B ,       O O X O X X X X X X X X X X O O o o U 6XoXwXzX5X{.7.! l L ,.mXmXmXmX",
"mXmXmX*Xt.*.t.pXlXx ~ ) 5 M ,     . O X o X o X X X X X X X X X o o O o U 6X;.-.nX5X[.7.! I L ,.mXmXmXmX",
"mXmXmX}.0.,.e.iXkXc ~ ) [ g >     O X X X X o X X X X X X o + X + # + @ U {.-.-.nX6X[.7.! L L ,.N.mXmXmX",
"mXmXmX}.<.8.p.iXkXv ! ] 4 M =       X O X X X X X X X X X X * # # # # : U 4X-.-.zX5X{.r.R P Y 2./ mXmXmX",
"mXmXmX|.<.,.f.iXkXk ~ ) 5 M 1 .     O o X X X X X X X X X X # # # # # # U 4X-.-.nX4X{.r.R P Y 8.I mXmXmX",
"mXmXmX}.0.8.l.iXpXc ~ ) 4 v @ . . O O O X X X X X X X X o X # # # # # @ U {.-.-.nX5X{.r.R Y R 1.D mXmXmX",
"mXmXxX!.<.q.n.iXpXg V ) 3 g #     O O o X X X o X X X X . + # # # # # # U {.-.-.wX5X#Xs.W T W 1.c mXmXmX",
"mXmXxX!.2.w.OXiXpXv ~ ) 3 b @     O X O o X X X X X X X + + # # # # + # U {.&.&.wX5X#Xs.R T Q 1.l mXmXmX",
"mXmXvXc.4.d.!.iXiXk I ) 3 b + .   O o o X X X X X X X X X # # # # # # # U {.%.-.wX5X{.s.R Q ! ,.c mXmXmX",
"mXmXpXn.<.w.&XiXtXc V ) 3 b + . O   X X o O X X X X X X X @ # + # # # # U {.%.%.wX%X{.k.T Q ! ,.c mXmXmX",
"mXmXiXl.1.g.&XiX>Xc D ) 3 b + .     O O X X X o o o O o X # # # # # * * U {.%.&.wX%X[.s.E Q >.3.S mXmXmX",
"mXmX<Xk.4.e.=X2X>Xk ~ 9 6 b .     O X o X X X X O X o O + + # # # # # & P ].%.%.wX%X[.s.T >.,.1.S mXmXmX",
"mXmX,Xf.u.d.=X2X:Xc D 9 5 z       O X X X X X X X X O X + + # # # # * % P ].$.%.wX%X[.j.T >.<.1.E mXmXmX",
"mXmX}.k.u.g.=X2X.Xl J [ 6 b .     O X X X X X X X o O o + + # # # # $ & P ].$.%.8X%X[.k.T >.1.1.E mXmXmX",
"mXmX}.k.u.g.-X2X(.c J 5 6 b       O X O o X X X O o O O + # # # # # # # P ].#.%.8X%X[.k.T >.4.1.R mXmXmX",
"mXmX}.f.p.k.-X2XR.c D 5 6 c       O o X O o o X o O o X o # # # # # # # P b.#.$.8X4X[.z.T >.t.1.E mXmXmX",
"mXmX*Xp.f.k.-X1XL.c J 3 6 j       O O X o X O o O o O O + # # # # # # # I ].#.#.8X%X'.z.T >.t.9./ mXmXmX",
"mXmX&Xp.h.l.-X1XL.j J 3 6 c       O X O O O o O o O o o * # # # # # # % I z.#.#.8X#X'.z.T >.u.u.! mXmXmX",
"mXmX&Xp.h.c.&X1Xa.c M 3 6 k     O O X X o o O o O o O O * # # # # # # # P b.#.#.8X#X'.z.T ,.t.u.R mXmXmX",
"mXmX&Xp.h.!.&X1Xi.c v 6 2 g       X X X O X X X o O o o * # # * # # # % P z._ ] W.@X'.z.P >.t.p.R mXmXmX",
"mXmX&Xg.&X7X!.1X4.c D v k J       O X X X X X X O o O o # # # # # # # # P j.b.v.v.-X$Xz.T >.c.k.E K mXmX",
"mXmX#Xg.x.c.!.1X<.l S c c c     O X X X X X o X o O o o # # # % # # # # P z.b.'.].pX,Xb.T Q >.Q Y f mXmX",
"mXmX#Xf.g.f.n.=X! v S D D D       o X X X X X X X X X o # % # % % # # % L '.@X@X{.hXXX].P.! ! ! L t mXmX",
"mXmXiX<X<XXX,X,XT c J M M c       X X X o X X X X X o o # # # * * # # % Y b.@X'.].wXXXm.G.N.Z.Z.L.Z.mXmX",
"mXmXtX<XtXtX<X=XL l v g v v       X X X X X X X O o o * * # # % # # % # L b.OX@X@XqX.Xm.=.H.W.W.W.W.^ mX",
"mXtX<X>XXX<X<X,XZ l Z S S Z     . X X X X X X X o O O * % # # * # # % % L b.@X@X$X9X}.'.=.=.W.W.W.R.B.mX",
"mX^.(. X^.).*X-Xl Z S A D S       O O X O o O o O o X * & # # # * # * % L b.@X$X$X X!.v.` a.T.l.L.L.( mX",
"mXY._.t.t.<.!.=Xz l I v S S       o X X + O o O o O X * # # # # % # % * L k.x.v.].$Xz.b.E 4.i.i.i.i./ mX",
"mXc.T.T Y Y &X=Xz l V ) N x     . o o O O O + O X X o $ # # # * # # # # A d.=.0X9X@Xj.b.G P Z A t.i.( mX",
"mXc._.<.9.w.&X=Xz l ) 8 p c     . + O o O o O O o X o # # # # # # # % % A d.+.$.0X@Xz.b.Y >.R R u.i.5.mX",
"mXc.L.u.u.f.OX=Xz z N 7 p c     . @ + O O + o o o o + & # # & # % * & # A d._ o.0Xj.j.OX3.3.>.3.t.u.4.mX",
"mXc.l.g.g.c.OX&Xz l ) 7 p H     . + + + o + + O o + @ & - & - # & & & # S d._ X.0X@Xj.j.H 3.<.3.u.t.4.mX",
"mXx.h.h.g.&Xv.=Xl l p 7 2 c O   + + + + + @ O @ + + $ & - : - & - & & - A w._ O.0Xj.d.v.A 2.4.u.u.9./ mX",
"mXx.f.f.g.=Xc.&Xl l a 3 < k O   @ + + + + @ @ O + @ $ - - & - - - - - - S w.[ O.+.@Xd.v.A 3.4.p.p.<.( mX",
"mXf.f.f.f.=Xx.&Xl c 2 2 y c . O @ + + @ # + $ $ = # , , - - - - & , , e A w.K +.' j.d.x.A 4.<.f.u.4.4.mX",
"mXx.g.f.!.c.x.OXl l s t j x O . @ $ = : > > > , , , , e , , y , , , e - A 1.Y 3.w.j.d.x.A 3.p.p.u.2./ mX",
"mX/.g.g.f.g.x.OXl j h j b x + 1 > y < y ; , < , , > , y , - , , y , e , A d.d.1.3.r.r.n.A 3.t.2.,.>.5.mX",
"mX<X X X.X(.*Xn.Z d d ; ; < > f g g g g g g g g v v m g M g v v M v v M I q.w.w.d.d.r.x.A i.L.a.a.i.K.mX",
"+X:X.X;X;X;X*Xc.S M + @ ; q N v V g g V V v V M V V V V V V V V V ~ V V ( *.^ *.*.*.i.m.A a.T.T.U._.R.g ",
"q.u.q.q.q.q.q.u.<.d = > < < > < 0 0 0 0 0 0 w 0 w 0 0 w 0 0 w w w w w w w a w w a w B ! >.Q Q Q Q Q Q T ",
"p.q.q.q.q.q.q.q.q.) 4 9 8 7 8 8 4 4 4 4 8 8 8 8 7 7 8 8 8 8 8 8 9 9 9 9 8 8 8 8 4 4 N Q W >.Q Q Q R >.Z ",
"q.q.q.q.q.q.q.q.u.) } | { { { { { { { { { { { } { { { { } { { { { { { { { { { { } } ` 8.1.>.W Q R >.3.t ",
"! 8.9.8.9.9.9.9.<._ | @.X.X.X.X.X.X.X.X.X.X.X.X.@.@.@.@.@.@.@.@.@.@.@.@.@.@.X.@.@.o.' 8.8.8.9.8.8.0.9.d ",
"t Z l l l j j j f ) | .. . . . .O.O. . . . . . . . . . . . . . . . . . . . . . .....' ! T Q W T T L Z s "
};
