/* XPM */
static char *result[] = {
/* columns rows colors chars-per-pixel */
"100 100 24 1 ",
"  c black",
". c #0C0032",
"X c #20124D",
"o c gray40",
"O c red",
"+ c #916996",
"@ c #FCE5CD",
"# c #D0D8E5",
"$ c #D2DAE7",
"% c #D3DBE8",
"& c #D4DCE9",
"* c #D5DDEA",
"= c #D6DEEB",
"- c #D7DFEC",
"; c #D8E0ED",
": c #D9E1EE",
"> c #DAE2EF",
", c #DBE3F0",
"< c #DCE4F1",
"1 c #DDE5F2",
"2 c #DEE6F3",
"3 c #DFE7F4",
"4 c #E0E8F5",
"5 c white",
/* pixels */
"-:::,>:>-><>--;>>:,1,--,1,:>,,,>,<<,:;;:>--><>=%>>,11,,<;--:<<>-*=><,-=-=-;>,<<<>::,,;-::;;:>>>,::;-",
"-:;;>:;:-:>:--=*--:<<>,2::;-;:>>>>>>>::;>:><,:-->,<<<,:   =;,,;=*=:,>;-;=-:>,<,,>>>,,>>,>:>,>;-;,>:;",
"&===:>><:>>>::-*;-:<1,,<;:;=-><,;--;:>:;:><<>--:,11,>>;   -:,>-&=;;;:::;=-:,<<<,:::;:>,>::,<>-=-<<,>",
"&==->>>,:>>>>,>::;:,1<,,::;-:<<:===-;:;-><1<:;:,,11:   5  :,<>;*:>>-;>:-*=:,11<,;:;=->>;=;>,:--:<<,,",
":,,>,:==:>>;-:,<;--><111::-->1>*=-;--=--<11<>:>,>,>-   5  ,,,,>:,<,;-:;==;><1<,>::;=-,,:=-::;-;,,,>>",
":,,>,:=-,<,;-;,<>:;:,,<<,:-;,<:=-;::-=-;>,>:;:;;;:  555 ;:>>>>,,,<,:;--*:>,<<,>:;-==;>,>;-;:;-;,>>>>",
"=;-->>:,,,>;;:,,<,>;;:>,<:-:>:;>>>     ;;>>;---=: 555  :=;:>:;;;  >>:==-:>,,<,>>>-=-;;;;;-;:>;;:,,,>",
"-;=*;::<;-=*->>;>:;-;><2>-=-=&=<<,     ::,<>;;:;> 555  :-:,,:-**  ;,:==;-;:,<<<<3,:>>;====->,>::,,,,",
"<:;:<1<>:;---**-*-;;:>,<,:;-==:<,>,< 55  >,,>>,  555 <>;-;:,:=*   ,>;===;;;>>::><<<>;--;-;:,<<,,2>-:",
",:--:>>:;;:>:-=-=;::>><1,:;---:<<>,< 5555 ,,,,,  555 ,,:;:,,:  5  <,>;;;;;;::;:,>>:---;:>>>,,<<1<:->",
">:-=-;;;=-><,;--:>,,>:><,:;;--:<<,,, 5555 ,<<<,  555 >,,:>,,:  5  ,,>>>>;-----:,,:-==;>,<,,>>,<1>-->",
":;--;:;;*=:<,;-;,,<<:-;>>:;;  :,<,,>:  555  <  55555 :>,>:;- 555  ;;>,,>-=====;,<>;-;>,,,,,>>>,,:;;>",
":;;:<<>-=-:,>;:>>>,,:-;  ;-;  :,<<,>;  55555   55555 ;>,    555 ;-=-:,,>;---==:<:;;:,<<,>,<,>::::;:>",
";;:,11,;::>>:;>1:;;>>;:  ;-;  :>,,,:;  55555   55555 :>>    555 ---;>,,>;:>>;-:<==;:,,,>:><1,:;;==-;",
"-:,<,>>>>>>>;->1>;;><>>  :;:55 ,>,,:;  555555  555555   5555555 =-;>,  ;-;>,:-;>=-:>>:::;><<>;--==--",
"=>1<:-;,>>>:-=;<1:;,<,>  :;>55 ,>,,:;  555555  555555   5555555 *-:,,  =*->,;==;:>,,:-==-:>>:-=->>>:",
"*>1,-*;<,,,:--:,,,,,,, 55 55  5  ,<< 55555555  55555 55555555  ;*-   **:  ,,<>;>>,,,>>:;-:,<,:;-1,>>",
"-,1<;-:1<<<>;-;>,>>,,: 555  55 55   555555555555555555555555 >:    <:--   ,>:-=;>,<,,>;&-:,,,,>,>::>",
";>,>--;,<<,>;-;;,:><,- 555  55 55   555555555555555555555555 ,,    >>,,   ,;-*&-,<,,,>;*;:,,,<<1;-;,",
">>>:--;>,>:-==-;<::<>= 55555  5555555555555555555555555555555555555    5  >--**;>,,>;::::>,<,,,,==;,",
"<,,>>:>,>:-==-:><>>,>= 5555555555555555555555555555555555555555555555555  >::-*;;,1,;-:>-:,<<,>:*=;,",
">,,>>::>,:--;>,<,>>>:- 5555555555555555555555555555555555555555555555555  <,>;*--,2<;====;><<,>:**-:",
";:>>:;;;>:;:,<<,:  :;; 5555555555555555555555555555555555555555555555555  1  ;=-:>,;===*;:,<,>::*=-:",
"-:,,>:::>::>11<>-  :;; 5555555555555555555555555555555555555555555555555  <  ;-;,:=%%=;;,<<<>:::--:>",
";,>=-<,**;,<<<<1;   :=-  >555555555555555555555555555555555555555555555 55   *==>>:;:,,>;12>=;>,&->>",
"-;-&=,,;:>,,,>>>>  5  >1; 5555555555555555555555555555555555555555555  5  5  ;:>,,,>>,,:*:,;=;:;;>>:",
":;-*-,<,1<>>>>>>:  5  ->- 5555555555555555555555555555555555555555555  5  5  ><1,<<,,<>;*;>::,>;>>:*",
">:;;:>,,1,;;>,<<1  555 :;:  55555555555555555555555555555555555555555   55+  ><<,,,>>,>;;:>>,1<>,>;&",
"-;;::>:;<:--:<111>- 555   5555555555555555555555555555555555555555555555+++  >,,>>:;;>>:>>:;:,,><,>-",
"*;>>,<>;,:--:,<<,;- 555   5555555555555555555555555555555555555555555555+++  ,,>>>;=-:>:<,:--;>,,,:;",
"=><,,1,-:;-;:,<<1,> 5555555555555555555555555555555555555555555555555555++ :><,:,,:;;::;,<,:==:1>>;=",
"-<1>:,:&==-;>,<<<>;;  555555555555555555555555555555 555555555555555555+++   <>-,<,::>:-:,,:*&;<<,:=",
">1,;>>-*&;,>;:,1,>:;  555555555555555555555555555555 555555555555555555+++   ;:;1>;:::::<<>=&=:,1;*-",
";>:;,,:;->,>::>,,>:;:: 555555555555555555555555555  555555     555555+++  +++ -;>;=-;-==:>:-*-:><:=-",
"-;-;>:;>:,,>:::;:;;;:: 555555555555555555555555555  555555     555555+++  +++ =;:-=;>:-=;>,:;:>,::;=",
">:;:,;->,,>:::;---- :>>   55555555555555555555555 555555  55 555555++++++++     :-=:<<>;:,,>:>,,;>>;",
"<,>,<:;,<,>>,,:---;:   ++5  555555555555555555555 55555 55  555555++++++++ ;1;:>:--><,;-;>:-=;:>,11:",
";>:><>;,1,>,<,>::::>   ++5  555555555555555555555 55555 55  555555++++++++ -<;::,>>,,:-=:>:-=;>,<<,;",
"&:::>>::1,>,<>::::>><< ++++++++5555555555555555  5555  555  5555++++++++  <->=;><,<<<:--;>>;-:<1<>-=",
"*,<><<>>,::>>;--:::>,,>  +++++++++     55555555  5555  5  55555++++++        &;,>>,<,:;:=;;--:,<2:--",
"<;*-,<,>,::><<:=:>:;;,:  +++++++++     55555555  5555  5  55555++++++        -;-;:>,<<:--;-=-><<,:;:",
">-*-><,><>:><<:-:>::::;--     ++++55 55  555555  555 555  555+++++++++++   -=-;;;;:,<,:;=---:,11>;;:",
"-*&->,>><,>>,,>;;;:>:--  +++++++++555  55 55555  55555555555+++++++       ;==-;:::>,,,:;=-;-;,<<,:;;",
"*&*;,,>><,>>,,>:==;>:==  +++++++++555  55 55555  55555555555+++++++       ---;:,,,,<,>:;-::::>,>:;;;",
"**->,>>,,,,>>>::=-:,>; ++++++++++++++55  5  555  555555555+++++    oooo -;::::><<<,,>;--;>,>:,,,---:",
"=-:,,>>,>>>>>::::>,<,> ++++++++++++++55  5  555  555555555+++++    oooo ;:,<,::,,,>:;====;:;-:>>;--;",
";:,<>;:,;:>>::;:><<,     ++++++++++++5555555555  555555           ooooo :><1<;;:>>>;---;-;;=**-;>;=-",
":>,<>-;>=;>>:;;;,1< ;>,:> ++     ++++++555                        ooo  =>><2<;=->>>:;;:>,<,;**==:-=-",
";>>::>>;;,<,;=;,1<, :><1, ++     ++++++555                        ooo  :,11>;;::1<:=-,<>,;:<1>:>>>>>",
"-::;===*=:,<>::><>:-;:>><>  ooo                                   ooo     ,;;>,>>>>;=*;<;-;<21<11<,,",
";;;;-**-;:>,,,>:2<>::>,,<:  ooooo                                 ooo  @@@ =-><,1;=:>;-;:;:<1<,<21,>",
":=*-;-;,1>;;><,,,:-==--=:;  ooooo                                 ooo  @@@ =-:,<1;*;,,;*;;:,,:;:,,>:",
">*$*-:><,;==:,<,,:-====*;;  oooooooo                              ooo  @@@ :::><*;:;-;-===-:>::>::>,",
"<;*=;>,<-=*=:,,>1<,>::::>:><  oooooo                              o    @@@ <,>,1=:>;;>:*;;::;;:>:>,1",
">>>::>,,;;-;;:>,>,,:;=-;>:>1  oooooo                              o    @@@ 11,,<,>;:,<;&>>>;--:>,,,,",
"*:<>;;::1<>;=->1,<1<:;:>;;    ooooooo                              @@  @  ><1<,,>:,<:*&--;;--;,11,:-",
"-:,,>:::<<,:-;>11<,,>::>-;    ooooooo                              @@  @  >:::::;,1<:-=--:::>,<,<<>-",
"=--:>>>><>;--;>,<>::>,>;; @@@@ oooooo                             @@@  @  ;>>>-**;,<>::>>,,>>,<,<1,;",
"-=*-:,>:,;=*-:::>;==>1,=: @@@@                                 @@@@@@   -;:,1<;&-:<<>:;:<<,::>,>>,>;",
";;--;::;,;=*-;::;-==>2,*: @@@@                                 @@@@@@   =-:<1<;=;>,,:;--,<>;-::::>:;",
"::::;;:>,>;--;:>;;-=:<,-: @@@@ OO@               @@@@@@@@@@@@@@@@@@@@  -*->,,>::=;::;;;:>,:--;:;>,>:",
"-;>>::><,>:;;;>,:;-;:>:::>  @@OOOO@@@@@     @@@@@@@@@@@@@@@@@@@@@@@  ;;:;><<,>,1;::;---;>,>;-;:;<,:-",
"-;:>,,<<,:--:>,,<;-;:;;::,  @@OOOO@@@@@     @@@@@@@@@@@@@@@@@@@@@@@  :>><111,,<1,>:-==-;>,>;;;;-<,;*",
";;;><1<>>-*=:<<,3;*;>--:>,,,   OO@@@@@@@@@@@@@@@@@@@@@@@@@@@@@@@@@ --,1<<<,>>>:::;-==;><>,>;---*1,:=",
">,,>,1<,;**;<1,><>;;;---1<,>   @@@@@@@@@@@@@@@@@@@@@@  @@@@@@@@@:;-;>,,><,>,>-*=:=-;;>,>,,>-=;>><:;:",
"><<>>>:--=->,,<1>::;--;>1;&=   @@@@@@@@@@@@@@@@@@@@@@  @@@@@@@@@>>:-===-,,>:=*=-:;::-:<,,<>;-:,,<:;:",
",<<,:;=&=-:>;-:<>>>:-=:<<-*-  @  @  ;  @@@@@@        @@@@@@@@..    ;=*=-:,,;==-;:;::=;,<,<,;;:,<>:-;",
":>,,>:-=-;::-*=>1<,>;-:<<-*=  @  @  -  @@@@@@        @@@@@@@@..    ;--:>:,<>:::;;==-*;,,,,,:;:<1>-**",
";:,,>;--::::;-;>2<>>>::>2=#$  @@@   -  ...  @@@@@@@@@@@@@@XX   XXXX  >,,,,>:>>>:;*&==><>>>,>::,1>=&*",
";:>,:-=-:--;;;:>1,:>,>:>>-**  @  @        XXX@@@@@@@@@@     XXXXXXXXX  ,<>---;><>=*-:<1>:>,,>:><>-=-",
";:>,:--:;-===*-:,>>,>;;;*><>  @  @        XXX@@@@@@@@@@     XXXXXXXXX  ,;--:-&-1<::>><<>;:<1,::,--;>",
"::>,>;:<>::;*&*;>><,;**=*;>;;: @@@   XXXXX             XXXXXXXXX  XXX  >%&:1:%&,<>,<>>,:;:<2<::,%=:,",
"-:,,>>,<3,;:>>:>;>,:-=;>,>:>  .   .. XXXXXXXXXXXX XX XXX..XXXXX.  XXX  :;;=*&=:>:11>:>:-&-><,>>,>>;&",
"*;,<,,,,<:;>,>;--:,,:;;:><22  .   .. XXXXXXXXXXXX XX XXX..XXXXX.  XXX  ;;-=-;:;-:11:=;>>-;;;--:>,,:*",
"&->11,>:==->>;*&;>,,:;:,,,<<  XXX... ..XXXXXXXXXX XX ...XXXXXXX XXXXXXX ;;;><,;*;<<;*=:,;::;--;>><,:",
"*-><<>--%&=>>;=*,,>;-;>11:==  XXX... ..XXX....... .. ..XXXXXX.. ...XXXX >>><<>-=-><>--;;=:,<,:;;&=-=",
";-:,,;=*&*->>::>,,:-=-:<<:--  XXX... ..XXX....... .. ..XXXXXX.. ...XXXX ,,,,:==;>>>:--=*=:<1,;=**=-*",
":-->>;====-;;-:,>>>:;--;=:<<  XXX......XXXXX..... .. XXXXXXX.  X  .XXXX >:::=%*:1,;===-=;>,>;*%%>,<,",
";==><>;;;---==;,,,,:;-===>11  XXX......XXXXX..... .. XXXXXXX.  X  .XXXX :-;>;*=:<,;-**-;:>,>-=**;>,,",
"=&*,2<,,,,>:;-:<1<>;===-<,,>  XXX... ....XXXXXXXX XX XXXXXXX.  X  XXXXX ;=;,<:;:::>:-*=;;><<,:::,<1,",
"&*;<<>;;;:;**;,><,,:;;>,<>>>:- XX.     ..XXXXXXXX XX XXXXXXX... XXXXX.. ==;,<,>:,;**;,,>;><1<,>:;:-&",
"--:,,;-;=--&=>,>>>>;-;:>1<>;-; XX.     ..XXXXXXXX XX XXXXXXX... XXXXX.. :;:,<,:::-=-:,,>>>,<,>;-;:;=",
":>>,:-=-=-==;,,:;;;--;:><,;&&->     <  ..XXXXXXXX XX XXXXXXX.  XXXX..   :;;>,>::--;>,<,,>>>>:;-=:::;",
":,<,:-==;;;;><,;==--;:>>,,;%%;,>,>,<,  ...XXXXXXX XX XXXXXXX.  XXX.     -==;::::-;:,<,,<>::;::;;:::>",
";><<>;-=;;;:,<>;*=-;:>,,,<>=-,1><,,<,  ...XXXXXXX XX XXXXXXX.  XXX.     ;==-;;:>>::>>:><;;-;:>>>:::>",
"=:<<>;-=*=-:,<>:=-;:,,,>>,:;:<<:>:>,,  XXXXXXXXXX XX XXXXXXXX   ...  ,::,:--;;:>,:;;;-:1;--;>,<<>;-:",
"*:<>;;;-*=;>,,>>:::>,,>::;--:>:;==;>,  XXXXXXXXXX XX XXXXXXXX   ...  ;-;<:----:>,-*---:<:;-;><,>>;=-",
"=>,:--;;-;>,,>::,>,,<,:->;-;>>::%&-,<  XXXXXXXXXX XX XXXXXXXX  @     :;:>;**=-:,>=&=--:<>:;:>,>:,-**",
"*:<:--:>,;-:>::,>>>,,>-&-;>,,,>>*-;>,  XXXXXXXXXX XX XXXXXXX...      --;*-;--;>,;;;;>,,>;-;:>>;--;;=",
"=><>;:>,:;:>,,,,::>,>:-=>>,<<,:;--;;;  XXXXXXXXXX XX XXXXXXX...      ;;:;>,>;:>>--;:>,>:;---:::-:>>>",
";,<>:;::=;>>,<<,:>,>>:::,>,<<,:;;;;; XXXXXXXXXXXX XX XXXXXXX....   <,;-;><<>:::;;;:,,>;=-==-:>,>>>,<",
">,,>;-===;:;;,<>,,,>::>,:;;,<<>:;;>, XXXXXXXXXXXX XX XXXXXXXXXX.  ,<,-==:>>;-;:;>>,<,;&%=*=-><11,,,<",
":>,>:-=-;>:-->,,,,>:;;>,-=->,,>>>>,, XXXXXXXXXXXX XX XXXXXXXXXX.  >,>-==-;-==;>>>>,1<-&%==-:,<,><,>>",
";:>,>;;>,,;-->,,::;-=-:>;-;>>;;:1<>:         XXXX XX XXX          ;>>;;;=--=-:,<;;>1<;=-:;;:>>;=:;;-",
"-:,<>-;,<:--:>>>;-==-;>,::><,-;>1<:;-  ......           .....  :==;,,::>=---;>,,--:<<:;>,>:>>>;-*=-=",
";:<<:*=:<-*->>::;=*=;><<>:,1,;:<,>:;;  ......           .....  :::>,,:;:*-;:>,>;;-:<,;;,1,>>,<,>*-::",
",2<<:*:;:=&*--;;:;::,,=:>:::,<<,1<,>;  XXXXX...  $:&<  .XXXXX  <>:><,:;;-;:*<==;=:,>:>,,1:--:11;=;>,",
">2<<:=:::-=-;;:><>>;,>*;::;:><,>,,>:-  XXXXX...  *>&>  .XXXXX  <:;>,,:--;::*,&$&;>,>>,,><;--->>**;>,",
">1,<>=>::::::;><2>>;>>*;:;-:>,,>,>>:;-;:>:;;:,,::-:&::;,:=-:;:<<;;:,>;-=-->;1--->,,,,<,::-==*;:=*;>,",
">1>,>->::>,,:;>11:;=>,-,:--:,,>>,,,>::>,-;;;;:;-=--*:,,1:*-:>,<<--:,,;====>>4,<<<<,,<1,;*&===:<>*;><"
};
