/* XPM */
static char *_77b65af58634c1f904875748a187b2ds4HWK7rrVPWg1Stg[] = {
/* columns rows colors chars-per-pixel */
"63 100 28 1 ",
"  c black",
". c #0C0032",
"X c #20124D",
"o c #464D5E",
"O c gray40",
"+ c #C10000",
"@ c red",
"# c #916996",
"$ c #BBB7C3",
"% c #BBB8C3",
"& c #BCB8C3",
"* c #BFBBC7",
"= c #BFBCC7",
"- c #C0BBC7",
"; c #C0BCC7",
": c #C1BDC8",
"> c #C4BFCB",
", c #C5BFCC",
"< c #C3C0CB",
"1 c #C5C0CB",
"2 c #C7C2CE",
"3 c #C8C3CE",
"4 c #C8C4CF",
"5 c #C9C3D0",
"6 c #CAC4D0",
"7 c #CCC6D2",
"8 c #FCE5CD",
"9 c white",
/* pixels */
"32:363233>22>:22263>23*2323626263>1233>32>22222::6:23:>323>>362",
"22*322336222>*3>136226;363:2362263>231   222>23:%*:2333366::334",
"26:22>222222::3::22226>22316>33232>>4>   222>32:>*:32332331:2>2",
"26332>22>2>2:233>2>22232>223;26223>   9  242232;2222223>>26>222",
"22262232>>2>2626332:2*422226:223362   9  >*:12622223266::26332>",
"32*:1:6322133621:4:;2*:3>12622>23  999 21>**:1333223>32-:21:612",
"22:%-*;1>336>36>*     *:>>22332> 999  32>2>2322  23>:32::22**:2",
":13222&=2233>263:     ::222:;423 999  ::2622332  :6>133>222:*::",
"2>23362>62>622661>2 99  66>>*:  999 3>*:2631>*   2322261362>2>*",
"632262226::36,>3::; 9999 3>22;  999 62>2>266  9  3>32,2:*312622",
"223233226:2362>2:>* 9999 63>32  999 62>2;136  9  6;13221**:2322",
":26>>632633  22>::::  999  2  99999 23>2-12 999  6:*2>12>*:233>",
"*26:13  223  3232122  99999   99999 163    999 >363-:222234232>",
":26::2  222  6223>22  99999   99999 236    999 22>33>>2>224:>3>",
"2263>2  22699 3>232:  999999  999999   9999999 23:26  21326-263",
">22623  >2699 22>66:  999999  999999   9999999 23*22  32326:236",
"242:2 99 99  9  233 99999999  99999 99999999  226   >26  232223",
"262:2 999  99 99   999999999999999999999999 22    222>   3:32>2",
"23322 999  99 99   999999999999999999999999 36    632>   6*>3>1",
"23332 99999  9999999999999999999999999999999999999    9  6:*123",
"33:22 9999999999999999999999999999999999999999999999999  212236",
"32*22 9999999999999999999999999999999999999999999999999  262623",
"  *32 9999999999999999999999999999999999999999999999999  2  222",
"  :22 9999999999999999999999999999999999999999999999999  2  332",
"   333  :999999999999999999999999999999999999999999999 99   362",
"  9  632 9999999999999999999999999999999999999999999  9  9  232",
"  9  263 9999999999999999999999999999999999999999999  9  9  222",
"  999 233  99999999999999999999999999999999999999999   99#  22>",
"73 999   9999999999999999999999999999999999999999999999###  22>",
"22 999   9999999999999999999999999999999999999999999999###  >2:",
"2; 9999999999999999999999999999999999999999999999999999## 2:**:",
"21:  999999999999999999999999999999 999999999999999999###   :22",
"1:3  999999999999999999999999999999 999999999999999999###   *2>",
":*331 999999999999999999999999999  999999     999999###  ### =:",
"2*:32 999999999999999999999999999  999999     999999###  ### ::",
"22 6>:   99999999999999999999999 999999  99 999999########     ",
"266   ##9  999999999999999999999 99999 99  999999######## 23663",
"336   ##9  999999999999999999999 99999 99  999999######## 32622",
"6:33> ########9999999999999999  9999  999  9999########  232362",
"2;3622  #########     99999999  9999  9  99999######        >36",
">>3333  #########     99999999  9999  9  99999######        :36",
"222>2362     ####99 99  999999  999 999  999###########   32*32",
"6>2222  #########999  99 99999  99999999999#######       326:22",
"623>22  #########999  99 99999  99999999999#######       226322",
"212>2 ##############99  9  999  999999999#####    OOOO 22:22262",
"1-*:2 ##############99  9  999  999999999#####    OOOO 62>2>&:2",
">23     ############9999999999  999999           OOOOO 4:22>;$*",
"13 32337 ##     ######999                        OOO  *%:>2;*1:",
":2 26236 ##     ######999                        OOO  :-:232*::",
"22226>>32  OOO                                   OOO     2234>>",
"33226:233  OOOOO                                 OOO  888 :3332",
"262266323  OOOOO                                 OOO  888 22>66",
";:2232322  OOOOOOOO                              OOO  888 3::33",
":2323:362:2  OOOOOO                              O    888 32:2>",
"13232:363;2  OOOOOO                              O    888 26222",
"23333:223    OOOOOOO                              88  8  222332",
"2262622>2    OOOOOOO                              88  8  63:*2:",
">2223322 8888ooooOOO                             888  8  621**:",
"22;1::62 88ooo@@ooo                           888888   6:2322>2",
":::*:%<> 88ooo@@ooo                           888888   2*232222",
":22*:**: oooo@@@@ooo            88888888888888888888  33:363>:*",
"42223;:2>oo@@@++@@@o88     88888888888888888888888  3:36:223>>>",
"632262:22oo@@@++@@@o88     88888888888888888888888  622332>2223",
"362>26222oooo@@@@ooo88888888888888888888888888888 12332:622>133",
">266233623-ooo@@ooo88888888888888888  88888888833>22;62*23>>222",
":>333>*:12:ooo@@ooo88888888888888888  88888888826332*:2**:22263",
">:2>22:$*>2  oooo  >  888888        88888888..    3>:*::*:36>33",
"6>22>622>>2  oooo  :  888888        88888888..    22>**2*>33232",
"6342*322632  888   2  ...  88888888888888XX   XXXX  2>>6263>>22",
"2:21*22:364  8  8        XXX8888888888     XXXXXXXXX  23362>221",
"2;%::22;2>2  8  8        XXX8888888888     XXXXXXXXX  222363>32",
":2:;626:22::2 888   XXXXX             XXXXXXXXX  XXX  26:136223",
"**>*:24332>  .   .. XXXXXXXXXXXX XX XXX..XXXXX.  XXX  16*2333>3",
"32::*:2:322  .   .. XXXXXXXXXXXX XX XXX..XXXXX.  XXX  26::2>233",
"22>2>:2*&::  XXX... ..XXXXXXXXXX XX ...XXXXXXX XXXXXXX 63>22233",
"222>3221*$;  XXX... ..XXX....... .. ..XXXXXX.. ...XXXX 263232>6",
"326212112*:  XXX... ..XXX....... .. ..XXXXXX.. ...XXXX 22263::3",
"3233>3:*6>3  XXX......XXXXX..... .. XXXXXXX.  X  .XXXX 2:$:3>:3",
"22>336>:226  XXX......XXXXX..... .. XXXXXXX.  X  .XXXX 22;*3312",
">2>23332233  XXX... ....XXXXXXXX XX XXXXXXX.  X  XXXXX >23>2332",
"222>>362>22;3 XX.     ..XXXXXXXX XX XXXXXXX... XXXXX.. 22622;43",
"2323>2363,2:3 XX.     ..XXXXXXXX XX XXXXXXX... XXXXX.. 32232*:1",
"&:>23>>363322>     >  ..XXXXXXXX XX XXXXXXX.  XXXX..   2>:322*:",
"**:26::3332322226622  ...XXXXXXX XX XXXXXXX.  XXX.     >>2222:2",
":2223>;3>>*23>2262>2  ...XXXXXXX XX XXXXXXX.  XXX.     226221*:",
":12236:22>*=2>322622  XXXXXXXXXX XX XXXXXXXX   ...  **:>26::32*",
"622237332>*&:>3:>662  XXXXXXXXXX XX XXXXXXXX   ...  >**:26;1363",
"213362262>*:>2,:>222  XXXXXXXXXX XX XXXXXXXX  8     2**>26>:223",
":23231-;2:*336221222  XXXXXXXXXX XX XXXXXXX...      2>2216322>2",
"23>:33>$*::223233132  XXXXXXXXXX XX XXXXXXX...      36322233622",
"26::36>::232222:226 XXXXXXXXXXXX XX XXXXXXX....   >:2333612252>",
"162>23222;332>2:*26 XXXXXXXXXXXX XX XXXXXXXXXX.  3:22222326>>63",
"233222422*:33362:26 XXXXXXXXXXXX XX XXXXXXXXXX.  226234:>26:>36",
"2>132:232:%22362226         XXXX XX XXX          >23223:226:133",
"::*32:*32*-32262262>  ......           .....  2>34222232>262>2>",
":;*:>2*:1>>26>232362  ......           .....  2>26622323223332>",
">>:*:>>:12226:>22>36  XXXXX...  1;;2  .XXXXX  2:2223222:122:631",
"3262-:6363126:232:33  XXXXX...  11;:  .XXXXX  ::12>22:2=:62*222",
"22632262222262123:2>2:>:%::>&::>:22222263:232-:222>22;3>2336>12",
"22236226>22233336122>2>>:%:2*$::22:223361=23622663223-22223632>"
};
