/* XPM */
static char *result[] = {
/* columns rows colors chars-per-pixel */
"100 100 23 1 ",
"  c black",
". c #0C0032",
"X c #20124D",
"o c gray40",
"O c #916996",
"+ c #FCE5CD",
"@ c #D0D8E5",
"# c #D2DAE7",
"$ c #D3DBE8",
"% c #D4DCE9",
"& c #D5DDEA",
"* c #D6DEEB",
"= c #D7DFEC",
"- c #D8E0ED",
"; c #D9E1EE",
": c #DAE2EF",
"> c #DBE3F0",
", c #DCE4F1",
"< c #DDE5F2",
"1 c #DEE6F3",
"2 c #DFE7F4",
"3 c #E0E8F5",
"4 c white",
/* pixels */
"=;;;>:;:=:,:==-::;><>==><>;:>>>:>,,>;--;:==:,:*$::><<>>   =;,,:=&*:,>=*=*=-:>,,,:;;>>-=;;--;:::>;;-=",
"=;--:;-;=;:;==*&==;,,:>1;;-=-;:::::::;;-:;:,>;==:>,,   4  *->>-*&*;>:-=-*=;:>,>>:::>>::>:;:>:-=->:;-",
"%***;::,;:::;;=&-=;,<>>,-;-*=:,>-==-;:;-;:,,:==;><<>   4  =;>:=%*---;;;-*=;>,,,>;;;-;:>:;;>,:=*=,,>:",
"%**=:::>;::::>:;;-;><,>>;;-=;,,;***=-;-=:,<,;-;>><  444 --;>,:-&;::=-:;=&*;><<,>-;-*=::-*-:>;==;,,>>",
";>>:>;**;::-=;>,-==:,<<<;;==:<:&*=-==*==,<<,:;:>:>  444 ::>>>>:;>,>-=;-**-:,<,>:;;-*=>>;*=;;-=->>>::",
";>>:>;*=>,>-=->,:;-;>>,,>;=->,;*=-     -:>:;-;--- 444  ;-;::::>>  >;-==&;:>,,>:;-=**-:>:-=-;-=->::::",
"*-==::;>>>:--;>>,>:--;:>,;=;:;-::::: 44  ::-===  444 ::;*-;:;--   ::;**=;:>>,>:::=*=-----=-;:--;>>>:",
"=-*&-;;,-=*&=::-:;-=-:,1:=*=*%*,,>:: 44  >,:--;  444 >;;=;>>;=&   ->;**-=-;>,,,,2>;::-****=:>:;;>>>>",
",;-;,<,:;-===&&=&=--;:>,>;-=**;,>:>, 4444 >>::>  444 ,:-=-;>;  4  >:-***---::;;:,,,:-==-=-;>,,>>1:=;",
">;==;::;--;:;=*=*-;;::,<>;-=  ;,,:>,:  444  >  44444 >>;-;>> 444  ,>:------;;-;>::;===-;:::>>,,<,;=:",
":;=*=---*=:,>-==;:>>:;:,>;--  ;,,>>>;  444  ,  44444 :>>;:>> 444  >>::::-=====;>>;=**-:>,>>::>,<:==:",
";-==-;--&*;,>-=->>,,;=-  ;--  ;>,>>:;  44444   44444 ;:>    444 >;--:>>:=*****->,:-=-:>>>>>:::>>;--:",
";--;,,:=*=;>:-;:::>>;=-  -=-44 >,,>:-  444444  444444   4444444 -=*=;  :-===**;,;--;>,,>:>,>:;;;;-;:",
"--;><<>-;;::;-:<;--::-;  -=-44 :>>>;-  444444  444444   4444444 ===-:  :-;::-=;,**-;>>>:;:,<>;--**=-",
"=;>,>:::::::-=:<:--:,: 44 44  4  >>; 44444444  44444 44444444  **=   :;-  :>;=-:*=;::;;;-:,,:-==**==",
"*:<,;=->:::;=*-,<;->,> 44 44  4  >>; 44444444  44444 44444444  -&=   ;=*  :>-**-;:>>;=**=;::;=*=:::;",
"&:<>=&-,>>>;==;>>>>>>> 444  44 44   444444444444444444444444 -=    <;&&   >>,:-::>>>::;-=;>,>;-=<>::",
"=><,-=;<,,,:-=-:>::>>; 44444  4444444444444444444444444444444444444    4  >:;=*-:>,>>:-%=;>>>>:>:;;:",
"-:>:==->,,>:-=-->;:,>= 44444  4444444444444444444444444444444444444    4  >-=&%=>,>>>:-&-;>>>,,<-=->",
":::;==-:>:;=**=-,;;,:* 4444444444444444444444444444444444444444444444444  :==&&-:>>:-;;;;:>,>>>>**->",
",>>::;:>:;=**=;:,  >:* 4444444444444444444444444444444444444444444444444  :  =&--><>-=;:=;>,,>:;&*->",
":>>::;;:>;==-:>,>  :;= 4444444444444444444444444444444444444444444444444  ,  -&==>1,-****-:,,>:;&&=;",
"-;::;---:;-;>,,>;   ---  =444444444444444444444444444444444444444444444 44   -*=;:>-***&-;>,>:;;&*=;",
"=;>>:;;;:;;:<<,:=   --=  =444444444444444444444444444444444444444444444 44   -=->;*$$*-->,,,:;;;==;:",
"->:*=,>&&->,,,,<-  4  =;; 4444444444444444444444444444444444444444444  4  4  &**::;-;>>:-<1:*-:>%=::",
"=-=%*>>-;:>>>::::  444 <-:  44444444444444444444444444444444444444444   44O  -;:>>>::>>;&;>-*-;--::;",
";-=&=>,><,::::::;  444 :=-  44444444444444444444444444444444444444444   44O  :,<>,,>>,:-&-:;;>:-::;&",
":;--;:>><>--:>,,<;* 444   4444444444444444444444444444444444444444444444OOO  :,,>>>::>:--;::><,:>:-%",
"=--;;:;-,;==;,<<<:= 4444444444444444444444444444444444444444444444444444OO --:>>::;--::;::;-;>>:,>:=",
"&-::>,:->;==;>,,>-= 4444444444444444444444444444444444444444444444444444OO -;>>:::-*=;:;,>;==-:>>>;-",
"*:,>><>=;-=-;>,,<>:>  444444444444444444444444444444 444444444444444444OOO   ,>;>>;--;;->,>;**;<::-*",
"=,<:;>;%**=-:>,,,:--== 444444444444444444444444444  444444     444444OOO  OOO :=>,>;;:;=;>>;&%-,,>;*",
":<>-::=&%->:-;><>:;--= 444444444444444444444444444  444444     444444OOO  OOO ;-<:-;;;;;,,:*%*;><-&=",
"-:;->>;-=:>:;;:>>:; ;;-   44444444444444444444444 444444  44 444444OOOOOOOO     :-*=-=**;:;=&=;:,;*=",
"=-=-:;-:;>>:;;;-;-- ;;;   44444444444444444444444 444444  44 444444OOOOOOOO     ;=*-:;=*-:>;-;:>;;-*",
":;-;>-=:>>:;;;-====-   OO4  444444444444444444444 44444 44  444444OOOOOOOO ->*-;;=*;,,:-;>>:;:>>-::-",
",>:>,;->,>::>>;===-;:> OOOOOOOO4444444444444444  4444  444  4444OOOOOOOO  ,-<-;:;==:,>-=-:;=*-;:><<;",
"-:;:,:-><>:>,>:;;;;:,, OOOOOOOO4444444444444444  4444  444  4444OOOOOOOO  ,=,-;;>::>>;=*;:;=*-:>,,>-",
"%;;;::;;<>:>,:;;;;::,,,  OOOOOOOOO     44444444  4444  4  44444OOOOOO        *-:,>,,,;==-::-=;,<,:=*",
"&>,:,,::>;;::-==;;;:>>::-     OOOO44 44  444444  444 444  444OOOOOOOOOOO   =;%->::>,>;-;*--==;>,1;==",
",-&=>,>:>;;:,,;*;:;-->;**     OOOO44 44  444444  444 444  444OOOOOOOOOOO   -*=-=-;:>,,;==-=*=:,,>;-;",
":=&=:,>:,:;:,,;=;:;;;;-  OOOOOOOOO444  44 44444  44444444444OOOOOOO       ;=*=----;>,>;-*===;><<:--;",
"=&%=:>::,>::>>:---;:;= OOOOOOOOOOOOOO44  4  444  444444444OOOOO    oooo &=-**=-;;;:>>>;-*=-=->,,>;--",
"&%&->>::,>::>>:;**-:;* OOOOOOOOOOOOOO44  4  444  444444444OOOOO    oooo &====-;>>>>,>:;-=;;;;:>:;---",
"&&=:>::>>>>:::;;*=;>     OOOOOOOOOOOO4444444444  444444           ooooo =-;;;;:,,,>>:-==-:>:;>>>===;",
"*=;>>::>:::::;;;;:>,     OOOOOOOOOOOO4444444444  444444           ooooo -;>,>;;>>>:;-****-;-=;::-==-",
"-;>,:-;>-;::;;-;:,, :>,,: OO     OOOOOO444                        ooo  *;:,<,--;:::-===-=--*&&=-:-*=",
";:>,:=-:*-::;---><,;-:>;:;  ooo                                   ooo     ,1,-*=:::;--;:>,>-&&**;=*=",
"-::;;::-->,>-*-><,>;;:,<>:  ooo                                   ooo     <:--;;<,;*=>,:>-;,<:;:::::",
"=;;-***&*;>,:;;:,:;=-;::,:  ooooo                                 ooo  +++ --:>::::-*&-,-=-,1<,<<,>>",
"----=&&=-;:>>>:;1,:;;:>>,;  oooooooo                              ooo  +++ *=:,><-*;:-=-;-;,<,>,1<>:",
";*&=-=-><:--:,>>>;=**==*;-  oooooooo                              ooo  +++ *=;>,<-&->>-&--;>>;-;>>:;",
":&#&=;:,>-**;>,>>;=****&---:  oooooo                              o    +++ ;;;:,&-;-=-=***=;:;;:;;:>",
",-&*-:>,=*&*;>>:<,>:;;;;:;    ooooooo                              ++  +  >,>:><*;:--:;&--;;--;:;:><",
":::;;:>>--=--;:>:>>;-*=-:;    ooooooo                              ++  +  ><<>>,>:-;>,-%:::-==;:>>>>",
"&;,:--;;<,:-*=:<>,<,;-;:- ++++ oooooo                             +++  +  :,<,>>:;>,;&%==--==-><<>;=",
"=;>>:;;;,,>;=-:<<,>>:;;:= ++++ oooooo                             +++  +  :;;;;;-><,;=*==;;;:>,>,,:=",
"*==;::::,:-==-:>,:;;:>:-- ++++                                 ++++++   ---:::=&&->,:;;::>>::>,>,<>-",
"=*&=;>:;>-*&=;;;:-**:<>*; ++++ +++               ++++++++++++++++++++  *=-;><,-%=;,,:;-;,,>;;:>::>:-",
"--==-;;->-*&=-;;-=**:1>&; ++++ +++               ++++++++++++++++++++  &*=;,<,-*-:>>;-==>,:-=;;;;:;-",
";;;;--;:>:-==-;:--=*;,>=;:  +++  ++++++     +++++++++++++++++++++++  **=&=:>>:;;*-;;---;:>;==-;-:>:;",
"=-::;;:,>:;---:>;-=-;:;;;:,,     +++++++++++++++++++++++++++++++++ ;---;-:,,>:><-;;-===-:>:-=-;-,>;=",
"=-;:>>,,>;==;:>>,-=-;--;;>,>     +++++++++++++++++++++++++++++++++ ==;::,<<<>>,<>:;=**=-:>:----=,>-&",
"---:,<,::=&*;,,>2-&-:==;:>>>:; ++ +++++++++++++++++++  +++++++++  ;==><,,,>:::;;;-=**-:,:>:-===&<>;*",
":>>:><,>-&&-,<>:,:---===<,>:-= ++   +++++++++        ++++++++++ ;-=-:>>:,>:>:=&*;*=--:>:>>:=*-::,;-;",
":,,:::;==*=:>>,<:;;-==-:<-%*:> ++   +++++++++        ++++++++++ ::;=***=>>:;*&*=;-;;=;,>>,:-=;>>,;-;",
">,,>;-*%*=;:-=;,:::;=*;,,=&=   +++     +++++++++++++++++++++    ,,>-*&*=;>>-**=-;-;;*->,>,>--;>,:;=-",
";:>>:;=*=-;;=&*:<,>:-=;,,=&*   +++     +++++++++++++++++++++    >>:-==;:;>,:;;;--**=&->>>>>;-;,<:=&&",
"-;>>:-==;;;;-=-:1,:::;;:1*@#  +  +  =     +++++++++++++     ...    =-:>>>>:;:::;-&%**:,:::>:;;><:*%&",
"-;:>;=*=;==---;:<>;:>:;::=&&  +++   ;  ...             XXXXX   XXXX  >>>,:===-:,:*&=;,<:;:>>:;:,:=*=",
"-;:>;==;-=***&=;>::>:---&:,:  +++   :  ...             XXXXX   XXXX  >>>-==;=%=<,;;::,,:-;,<>;;>==-:",
";;:>:-;,:;;-&%&-::,>-&&*&-:-  +  +        XXXXXXXXXXXXX     XXXXXXXXX  :$%;<;$%>,:>,::>;-;,1,;;>$*;>",
"=;>>::>,2>-;::;:-:>;=*-:>:;:>: +++   XXXXX             XXXXXXXXX  XXX  ;--*&%*;:;<<:;:;=%=:,>::>::-%",
"&->,>>>>,;-:>:-==;>>;--;:,11,: +++   XXXXX             XXXXXXXXX  XXX  --=*=-;-=;<<;*-::=---==;:>>;&",
"%=:<<>:;**=::-&%-:>>;-;>>>,,  .   .. XXXXXXXXXXXX XX XXX..XXXXX.  XXX  ;---:,>-&-,,-&*;>-;;-==-::,>;",
"&=:,,:==$%*::-*&>>:-=-:<<;**  XXX... ..XXXXXXXXXX XX ...XXXXXXX XXXXXXX :::,,:=*=:,:==--*;>,>;--%*=*",
"-=;>>-*&%&=::;;:>>;=*=;,,;==  XXX... ..XXXXXXXXXX XX ...XXXXXXX XXXXXXX >>>>;**-:::;==*&*;,<>-*&&*=&",
";==::-****=--=;>:::;-==-*;,,  XXX... ..XXX....... .. ..XXXXXX.. ...XXXX :;;;*$&;<>-***=*-:>:-&$$:>,>",
"-**:,:---===**->>>>;-=***:<<  XXX... ..XXX....... .. ..XXXXXX.. ...XXXX ;=-:-&*;,>-=&&=-;:>:=*&&-:>>",
"*%&>1,>>>>:;-=;,<,:-***=,>>:  XXX......XXXXX..... .. XXXXXXX.  X  .XXXX -*->,;-;;;:;=&*--:,,>;;;>,<>",
"%&-,,:---;-&&->:,>>;--:>,:::  XXX... ....XXXXXXXX XX XXXXXXX.  X  XXXXX **->,>:;>-&&->>:-:,<,>:;-;=%",
"==;>>-=-*==%*:>::::-=-;:<,:-  XXX... ....XXXXXXXX XX XXXXXXX.  X  XXXXX ;-;>,>;;;=*=;>>:::>,>:-=-;-*",
";::>;=*=*=**->>;---==-;:,>-%%= XX.  ,  ..XXXXXXXX XX XXXXXXX... XXXXX.. ;--:>:;;==-:>,>>::::;-=*;;;-",
";>,>;=**----:,>-**==-;::>>-$$->   >,>  ..XXXXXXXX XX XXXXXXX.  XXXX..  ;=**-;;;;=-;>,>>,:;;-;;--;;;:",
"-:,,:-=*---;>,:-&*=-;:>>>,:*=><   >,>  ..XXXXXXXX XX XXXXXXX.  XXXX..  :-**=--;::;;::;:,--=-;:::;;;:",
"*;,,:-=*&*=;>,:;*=-;>>>::>;-;,,;:;:>>  ...XXXXXXX XX XXXXXXX.  XXX.  >;;>;==--;:>;---=;<-==-:>,,:-=;",
"&;,:---=&*-:>>::;;;:>>:;;-==;:;-**-:>  ...XXXXXXX XX XXXXXXX.  XXX.  -=-,;====;:>=&===;,;-=-:,>::-*=",
"*:>;==--=-:>>:;;>:>>,>;=:-=-::;;$%=>,  XXXXXXXXXX XX XXXXXXXX   ...  ;-;:-&&*=;>:*%*==;,:;-;:>:;>=&&",
"&;,;==;:>-=;:;;>:::>>:=%=-:>>>::&=-:>  XXXXXXXXXX XX XXXXXXXX  +   :;==-&=-==-:>----:>>:-=-;::-==--*",
"*:,:-;:>;-;:>>>>;;:>:;=*::>,,>;-==---  XXXXXXXXXX XX XXXXXXXX  +   >:--;-:>:-;::==-;:>:;-===;;;=;:::",
"->,:;-;;*-::>,,>;:>::;;;>:>,,>;------  XXXXXXXXXX XX XXXXXXX...   >,>-=-:,,:;;;---;>>:-*=**=;:>:::>,",
":>>:-=***-;-->,:>>>:;;:>;-->,,:;--:> XXXXXXXXXXXX XX XXXXXXX....  >,>=**;::-=-;-::>,>-%$*&*=:,<<>>>,",
";:>:;=*=-:;==:>>>>:;--:>=*=:>>::::>> XXXXXXXXXXXX XX XXXXXXX....  :>:=**=-=**-::::><,=%$**=;>,>:,>::",
"-;:>:--:>>-==:>>;;-=*=;:-=-::--;<,:; XXXXXXXXXXXX XX XXXXXXXXXX.  -::---*==*=;>,--:<,-*=;--;::-*;--=",
"=;>,:=->,;==;:::-=**=-:>;;:,>=-:<,;-=        XXXX XX XXX          ->>;;:*===-:>>==;,,;-:>:;:::-=&*=*",
"-;,,;&*;,=&=::;;-*&*-:,,:;><>-;,>:;--        XXXX XX XXX          :>>;-;&=-;:>:--=;,>--><>::>,>:&=;;",
">1,,;&;-;*%&==--;-;;>>*;:;;;>,,><,>:-  ......           .....  ,:;:,>;--=-;&,**-*;>:;:>><;==;<<-*-:>",
":1,,;*;;;=*=--;:,::->:&-;;-;:,>:>>:;=  ......           .....  ,;-:>>;==-;;&>%#%-:>::>>:,-===::&&-:>",
":<>,:*:;;;;;;-:,1::-::&-;-=;:>>:>::;-  XXXXX...  =;%;  .XXXXX  ,--;>:-=*==:-<===:>>>>,>;;=**&-;*&-:>",
":<:>:=:;;:>>;-:<<;-*:>=>;==;>>::>>>:;;:>=----;-=*==&;>><;&=;:>,,==;>>-****::3>,,,,>>,<>-&%***;,:&-:,"
};
