/* XPM */
static char *_efa8ca11abe4a44a3ec4d19d98aa1b6Aoesl6lXmmqaXG9b[] = {
/* columns rows colors chars-per-pixel */
"63 100 26 1 ",
"  c black",
". c #0C0032",
"X c #20124D",
"o c gray40",
"O c red",
"+ c #916996",
"@ c #BBB7C3",
"# c #BBB8C3",
"$ c #BCB8C3",
"% c #BFBBC7",
"& c #BFBCC7",
"* c #C0BBC7",
"= c #C0BCC7",
"- c #C1BDC8",
"; c #C4BFCB",
": c #C5BFCC",
"> c #C3C0CB",
", c #C5C0CB",
"< c #C7C2CE",
"1 c #C8C3CE",
"2 c #C8C4CF",
"3 c #C9C3D0",
"4 c #CAC4D0",
"5 c #CCC6D2",
"6 c #FCE5CD",
"7 c white",
/* pixels */
"1<-141<11;<<;-<<<41;<1%<1<14<4<41;,<11   ;<<<<<--4-<1-;1<1;;14<",
"<<%1<<114<<<;%1;,14<<4=141-<14<<41;   7  <<<;<1-#%-<111144--112",
"<4-<<;<<<<<<--1--<<<<4;<<1,4;11<1<;   7  <<<;1<-;%-1<11<11,-<;<",
"<411<;<<;<;<-<11;<;<<<1<;<<1=<4<<  777 <1<2<<1<=<<<<<<1;;<4;<<<",
"<<<4<<1<;;<;<4<411<-<%2<<<<4-<<11  777 <;;%-,<4<<<<1<44--<411<;",
"1<%-,-41<<,114<,-     -1;,<4<<;< 777  4<,;%%-,1  <<1;1<*-<,-4,<",
"<<-#*%=,;114;14;%&- 77  ;;<<11  777 ;%1<;<;<1<   <1;-1<--<<%%-<",
"-,1<<<$&<<11;<41-*; 77  <<<-=2  777 <%--<4<<11   -4;,11;<<<-%--",
"<;<114<;4<;4<<44,;< 7777 4;;%-  777 1;%-<41,  7  <1<<<4,14<;<;%",
"41<<4<<<4--  :;1--=1  777  <  77777 4<;<;<4 777  1;1<:<-%1,<4<<",
"<<1<11<<4-<  <;<-;%<  777  ;  77777 4<;<=,1 777  4=,1<<,%%-<1<<",
"-<4;;4  411  <<;----  77777   77777 <1;    777 114-%<;,<;%-<11;",
"%<4-,1  <<177 <1<,<<  777777  777777   7777777 ;141*  <<<12<1<;",
"-<4--<  <<<77 <<1;<<  777777  777777   7777777 <<;11  <;<<2-;1;",
"<<41; 77 77  7  <1< 77777777  77777 77777777  <<1   41<  <4*<41",
";<<4< 77 77  7  ;44 77777777  77777 77777777  <<1   <11  <4-<14",
"<2<-< 777  77 77   777777777777777777777777 -<    ;<;<   <1<<<1",
"<4<-< 77777  7777777777777777777777777777777777777    7  1-1<;<",
"<11<< 77777  7777777777777777777777777777777777777    7  4%;1;,",
"<111< 7777777777777777777777777777777777777777777777777  4-%,<1",
"  -<< 7777777777777777777777777777777777777777777777777  <  <14",
"  %<< 7777777777777777777777777777777777777777777777777  <  4<1",
"   1<-  <777777777777777777777777777777777777777777777 77   <<<",
"   <<<  -777777777777777777777777777777777777777777777 77   11<",
"  7  1-* 7777777777777777777777777777777777777777777  7  7  14<",
"  777 1<<  77777777777777777777777777777777777777777   77+  <1<",
"  777 41,  77777777777777777777777777777777777777777   77+  <<<",
"5< 777   7777777777777777777777777777777777777777777777+++  <<;",
"51 7777777777777777777777777777777777777777777777777777++ %<<<;",
"<< 7777777777777777777777777777777777777777777777777777++ %=;<-",
"<=%  777777777777777777777777777777 777777777777777777+++   %%-",
"<,-<- 777777777777777777777777777  777777     777777+++  +++ <<",
",-1<< 777777777777777777777777777  777777     777777+++  +++ <;",
"-% 1,%   77777777777777777777777 777777  77 777777++++++++     ",
"<% 1<%   77777777777777777777777 777777  77 777777++++++++     ",
"<<-   ++7  777777777777777777777 77777 77  777777++++++++ <421<",
"<441= ++++++++7777777777777777  7777  777  7777++++++++  ;<1441",
"114;- ++++++++7777777777777777  7777  777  7777++++++++  <1<4<<",
"4-11;<  +++++++++     77777777  7777  7  77777++++++        14<",
"<=14<<<;     ++++77 77  777777  777 777  777+++++++++++   <<;14",
";;11111;     ++++77 77  777777  777 777  777+++++++++++   1<-14",
"<<<;<1  +++++++++777  77 77777  77777777777+++++++       11<%1<",
"4;<<< ++++++++++++++77  7  777  777777777+++++    oooo <<1<4-<<",
"4<1;< ++++++++++++++77  7  777  777777777+++++    oooo <;<<41<<",
"<,<     ++++++++++++7777777777  777777           ooooo <<-<<<4<",
",*%     ++++++++++++7777777777  777777           ooooo 4<;<;$-<",
";< <<<;4 ++     ++++++777                        ooo  -2-<<;=@%",
",111<1151  ooo                                   ooo     ;<=%,-",
"-<;<4<14,  ooo                                   ooo     <1<%--",
"<<<<4;;1<  ooooo                                 ooo  666 <12;;",
"11<<4-<11  oooooooo                              ooo  666 -111<",
"<4<<441<1  oooooooo                              ooo  666 <<;44",
"=-<<1<1<<<<  oooooo                              o    666 1--11",
"-<1<1-14<    ooooooo                              66  6  <1<-<;",
",1<1<-141    ooooooo                              66  6  <<4<<<",
"<1111-<< 6666 oooooo                             666  6  <<<11<",
"<<4<4<<; 6666 oooooo                             666  6  41-%<-",
";<<<11<< 6666                                 666666   1<4<,%%-",
"<<=,--4< 6666 OO6               66666666666666666666  <4-<1<<;<",
"---%-#>; 6666 OO6               66666666666666666666  1<%<1<<<<",
"-<<%-%%-1  66OOOO66666     66666666666666666666666  <=11-141;-%",
"2<<<1=-<;<1OOOOOOOO666666666666666666666666666666 ,11-14-<<1;;;",
"41<<4<-<<<1OOOOOOOO666666666666666666666666666666 ,14<<11<;<<<1",
"14<;<4<<<<;;1OOOO6666666666666666666  666666666  ;,<11<-4<<;,11",
";<44<114<1*;1 OO   666666666        6666666666 11;<<=4<%<1;;<<<",
"-;111;%-,<-<1 OO   666666666        6666666666 <411<%-<%%-<<<41",
";-<;<<-@%;<   666     666666666666666666666    1141;-%--%-14;11",
"4;<<;4<<;;<   666     666666666666666666666    4;1<<;%%<%;11<1<",
"412<%1<<41<  6  6  <     6666666666666     ...    <<<;;4<41;;<<",
"<-<,%<<-142  666   1  ...             XXXXX   XXXX  <,<114<;<<,",
"<=#--<<=<;<  666   <  ...             XXXXX   XXXX  <<<<<141;1<",
"-<-=4<4-<<-  6  6        XXXXXXXXXXXXX     XXXXXXXXX  <4-,14<<1",
"%%;%-<211<;-< 666   XXXXX             XXXXXXXXX  XXX  ,4%<111;1",
"1<--%-<-1<<<- 666   XXXXX             XXXXXXXXX  XXX  <4--<;<11",
"<<;<;-<%$--  .   .. XXXXXXXXXXXX XX XXX..XXXXX.  XXX  <41;<<<11",
"<<<;1<<,%@=  XXX... ..XXXXXXXXXX XX ...XXXXXXX XXXXXXX <41<1<;4",
"1<4<,<,,<%-  XXX... ..XXXXXXXXXX XX ...XXXXXXX XXXXXXX <<<41--1",
"1<11;1-%4;1  XXX... ..XXX....... .. ..XXXXXX.. ...XXXX <-@-1;-1",
"<<;114;-<<4  XXX... ..XXX....... .. ..XXXXXX.. ...XXXX <<=%11,<",
";<;<111<<11  XXX......XXXXX..... .. XXXXXXX.  X  .XXXX ;<1;<11<",
"<<<;;14<;<<  XXX... ....XXXXXXXX XX XXXXXXX.  X  XXXXX <<4<<=21",
"<1<1;<141:<  XXX... ....XXXXXXXX XX XXXXXXX.  X  XXXXX 1<<1<%-,",
"$-;<1;;1411<< XX.  ;  ..XXXXXXXX XX XXXXXXX... XXXXX.. ,;-1<<%-",
"%%-<4--111<1<<   4<<  ..XXXXXXXX XX XXXXXXX.  XXXX..  <;;<<<<-<",
"-<<<1;=1;;%<1;   <;<  ..XXXXXXXX XX XXXXXXX.  XXXX..  <<<4<<,%-",
"-,<<14-<<;%&<;1<<4<<  ...XXXXXXX XX XXXXXXX.  XXX.  %%-;<4--1<%",
"4<<<1511<;%$-;1-;44<  ...XXXXXXX XX XXXXXXX.  XXX.  ;%%-<4=,141",
"<,114<<4<;%-;<:-;<<<  XXXXXXXXXX XX XXXXXXXX   ...  <%%;<4;-<<1",
"-<1<1,*=<-%114<<,<<<  XXXXXXXXXX XX XXXXXXXX  6   1<<;<<,41<<;<",
"<1;-11;@%--<<1<11,1<  XXXXXXXXXX XX XXXXXXXX  6   4,141<<<114<<",
"<4--14;--<1<<<<-<<41  XXXXXXXXXX XX XXXXXXX...   <;-<1114,<<3<;",
",4<;<1<<<=11<;<-%<4 XXXXXXXXXXXX XX XXXXXXX....  1-<<<<<1<4;;41",
"<11<<<2<<%-1114<-<4 XXXXXXXXXXXX XX XXXXXXX....  <<4<12-;<4-;14",
"<;,1<-<1<-#<<14<<<4 XXXXXXXXXXXX XX XXXXXXXXXX.  ;<1<<1-<<4-,11",
"--%1<-%1<%*1<<4<<4<;        XXXX XX XXX          2<<<<1<;<4<;<;",
"-=%-;<%-,;;<4;<1<14<        XXXX XX XXX          44<<1<1<<111<;",
";;-%-;;-,<<<4-;<<;14  ......           .....  <-<<<1<<<-,<<-41,",
"1<4<*-4141,<4-<1<-11  ......           .....  --,<;<<-<&-4<%<<<",
"<<41<<4<<<<<4<,<1-<;  XXXXX...  -<<<  .XXXXX  -<<<;<<=1;<114;,<",
"<<<14<<4;<<<11114,<<;<;;-#-<%@--<<-<<114,&<14<<441<<1*<<<<141<;"
};
