/* XPM */
static char *result[] = {
/* columns rows colors chars-per-pixel */
"100 100 89 1 ",
"  c black",
". c #010101",
"X c #000003",
"o c #000103",
"O c #020202",
"+ c gray1",
"@ c #040203",
"# c #000104",
"$ c #020204",
"% c #020305",
"& c #030305",
"* c #010206",
"= c #020307",
"- c #040205",
"; c #050306",
": c #040404",
"> c gray2",
", c #040406",
"< c #050507",
"1 c #070506",
"2 c #060606",
"3 c #070707",
"4 c #080705",
"5 c #080607",
"6 c #040509",
"7 c #070508",
"8 c #060608",
"9 c #060709",
"0 c #070709",
"q c #05060A",
"w c #07060B",
"e c #06070B",
"r c #090708",
"t c #080609",
"y c #09070A",
"u c #05090C",
"i c #07080C",
"p c gray3",
"a c #090909",
"s c #0A0809",
"d c #08080A",
"f c #08090B",
"g c #09090B",
"h c gray4",
"j c #08090D",
"k c #0A0A0C",
"l c #0B0B0D",
"z c #090A0E",
"x c #0A0B0F",
"c c #0D0D0F",
"v c #0B0E13",
"b c #0D0E11",
"n c #0D0E13",
"m c #0B0E15",
"M c #100F13",
"N c #0D1015",
"B c #101318",
"V c #101518",
"C c #11161A",
"Z c #13161B",
"A c #14141C",
"S c #13181E",
"D c #151A1E",
"F c #191A1E",
"G c #24242C",
"H c #272A2F",
"J c #2A2D34",
"K c #2C3135",
"L c #313439",
"P c #20124D",
"I c #916996",
"U c #F2D39A",
"Y c #FCE5CD",
"T c #D2DAE7",
"R c #D3DBE8",
"E c #D4DCE9",
"W c #D5DDEA",
"Q c #D6DEEB",
"! c #D7DFEC",
"~ c #D8E0ED",
"^ c #D9E1EE",
"/ c #DAE2EF",
"( c #DBE3F0",
") c #DCE4F1",
"_ c #DDE5F2",
"` c #DEE6F3",
"' c #DFE7F4",
"] c #E0E8F5",
"[ c white",
/* pixels */
"!^^^(/^/!/)/!!~//^(_(!!(_(^/(((/())(^~~^/!!/)/QR//(__(()~!!^))/!WQ/)(!Q!Q!~/()))/^^((~!^^~~^///(^^~!",
"!^~~/^~^!^/^!!QW!!^))/(`^^~!~^///////^^~/^/)(^!!/()))(^~WWQ~((~QWQ^(/~!~Q!^/()((///((//(/^/(/~!~(/^~",
"EQQQ^//)^///^^!W~!^)_(()~^~Q!/)(~!!~^/^~^/))/!!^(__(//~WWW!^(/!EQ~~~^^^~Q!^()))(^^^~^/(/^^()/!Q!))(/",
"EQQ!///(^////(/^^~^(_)((^^~!^))^QQQ!~^~!/)_)^~^((__^^(/Q~~^()/~W^//!~/^!WQ^(__)(~^~Q!//~Q~/(^!!^))((",
"^((/(^QQ^//~!^()~!!/)___^^!!/_/WQ!~!!Q!!)__)/^/(/(/!!((~//((((/^()(~!^~QQ~/)_)(/^^~Q!((^Q!^^~!~(((//",
"^((/(^Q!()(~!~()/^~^(())(^!~()^Q!~^^!Q!~/(/^~^~~~^!W!/(^~^////((()(^~!!W^/())(/^~!QQ~/(/~!~^~!~(////",
"Q~!!//^(((/~~^(()(/~~^/()^!^/^~/////^^~~~//~!!!Q^~!!^//^Q~^/^~~~~^//^QQ!^/(()(///!Q!~~~~~!~^/~~^(((/",
"!~QW~^^)~!QW!//~/^~!~/)`/!Q!QEQ))(//((/^^()/~~^~/~~/)(^^!^((^!WWWW~(^QQ~!~^())))'(^//~QQQQ!/(/^^((((",
")^~^)_)/^~!!!WW!W!~~^/()(^~!QQ^)(/()(!!/~/((//(()(//))/~!~^(^QW!Q^(/~QQQ~~~//^^/)))/~!!~!~^())((`/!^",
"(^!!^//^~~^/^!Q!Q~^^//)_(^~!!!^))/()/!!//((((((()(//(((^~^((^!~/^()(/~~~~~~^^~^(//^!!!~^///(())_)^!/",
"/^!Q!~~~Q!/)(~!!^/((/^/)(^~~!!^))(((^!~(((()))((_)(///((^/((^!^)((((////~!!!!!^((^!QQ~/()((//()_/!!/",
"^~!!~^~~WQ^)(~!~(())^!~//^~~~~^()((/^!^()(/))(//))(/^^/(/^~!!!~/(^~~/((/!QQQQQ~()/~!~/(((((///((^~~/",
"^~~^))/!Q!^(/~^///((^!~//~!~~~^())(/~!^(_(())/  (//~~~/(/~QWQ!!Q~!Q!^((/~!!!QQ^)^~~^())(/()(/^^^^~^/",
"~~^(__(~^^//^~/_^~~//~^   !~^^^/(((^~!^/_))_)^   ^~!~^///^!Q!~!W!!!~/((/~^//~!^)QQ~^(((/^/)_(^~~QQ!~",
"!^()(///////~!/_/~~/)//   ~^///(/((^~!~^(()_/  I ~!!~//^~^/~~^~QQ!~/(  ~!~/(^!~/Q!^//^^^~/))/~!!QQ!!",
"Q/_)^!~(///^!Q~)_^~(   [[    (((/((^~!~^^^/   [[   !^//^W^)/~~~~W!^(    W!/(~QQ~^/((^!QQ!^//^!Q!///^",
"W/_(!W~)(((^!!^(((((   [[    (~W/())/^~~/^  II[[II  /(/!!^))/~!~W!   [[     )/~//(((//^~!^()(^~!_(//",
"!(_)~!^_)))/~!~/(   [[[[[[[[I  !^/((/^^^   III[[III   /!!~////^^~  II[[IIII ^!Q~/()((/~E!^((((/(/^^/",
"~/(/!!~())(/~!~~(   [[[[[[[[II  /((((/// IIIII[[IIII  ~Q~!~^/((   III[[[[[[    !()(((/~W~^((())_~!~(",
"///^!!~/(/^      [[[[[[[[[[[III   )(/    IIIII[[IIII  ~^~~^^/// IIIII[[[[[[III ~/((/~^^^^/()((((QQ~(",
")((//^/(/^!      [[[[[[[[[[[IIIII (/^ IIIIIIII[[IIII     ())    IIIII[[[[[[[[I   (_(~!^/!^())(/^WQ~(",
"/((//^^/(^!   [[[[[[[[[[[[[[IIIII     IIIIIIII[[IIIIIIII _`) IIIII[[[[[[[[[[[III  `)~QQQQ~/))(/^WW!^",
"~^//^~~~/^~   [[[[[[[[[[[[[[[[[IIIIIIIIIIIII[[[[[[IIIIII     IIIII[[[[[[[[[[[IIII   QQQW~^()(/^^WQ!^",
"!^((/^^^/^^   [[[[[[[[[[[[[[[[[IIIIIIIIIIIII[[[[[[IIIIIIIIIIIII[[[[[[[[[[[[[[[[[III                 ",
"~(/Q!)(WW~(   [[[[[[[[[[[[[[[[[IIIIIIIIIIIII[[[[[[IIIIIIIIIIIII[[[[[[[[[[[[[[[[[IIIIIII             ",
"              [[[[[[[[[[[[[[[[[IIIIIIIIIIII[[[[[[[IIIIIIIIIIIII[[[[[[[[[[[[[[[[[[[[[[[[[[[[[[[[III  ",
"             [[[[[[[[[[[[[[[[[[IIIIIIIIIIII[[[[[[[[IIIIIIIIIIII[[[[[[[[[[[[[[[[[[[[[[[[[[[[[[[[III  ",
"   [[[[[[[[[[[[[[[[[[[[[[[[[[[[[[[IIIIIIIII[[[[[[[[IIIIIIIIII[[[[[[[[[[[[[[[[[[[[[[[[[[[[[[[IIIIII  ",
"   [[[[[[[[[[[[[[[[[[[[[[[[[[[[[[[IIIIIIIII[[[[[[[[IIIIIIIIII[[[[[[[[[[[[[[[[[[[[[[[[[[[[[[[IIIIII  ",
"   [[[[[[[[[[[[[[[[[[[[[[[[[[[[[[[IIIIII[[[[[[[[[[[IIIIIIIIII[[[[[[[[[[[[[[[[[[[[[[[[[[[[[IIII     ~",
"   [[[[[[[[[[[[[[[[[[[[[[[[[[[[[[[[IIIII[[[[[[[[[[[[[[IIIII[[[[[[[[[[[[[[[[[[[[[[[[[[[[[[[IIII    ~Q",
"!)_   [[[[[[[[[[[[[[[[[[[[[[[[[[[[[IIIII[[[[[[[[[[[[[[IIIII[[[[[[[[[[[[[[[[[[[[[[[[[[[[IIII     )(^Q",
"/_(   [[[[[[[[[[[[[[[[[[[[[[[[[[[[[[[[[[[[[[[[[[[[[[[[[[[[[[[[[[[[[[[[[[[[[[[[[[[[[[[[[III      _~W!",
"~/^      [[[[[[[[[[[[[[[[[[[[[[[[[[[[[[[[[[[[[[[[[[[[[[[[[[[[[[[[[[[[[[[[[[[[[[[[[[[IIIII    !^/)^Q!",
"!~!~/    [[[[[[[[[[[[[[[[[[[[[[[[[[[[[[[[[[[[[[[[[[[[[[[[[[[[[[[[[[[[[[[[[[[[[[[[[[[III      ^/(^^~Q",
"/^~^(~!/  [[[[[[[[[[[[[[[[[[[[[[[[[[[[[[[[[[[[[[[[[[[[[[[[[[[[[[[[[[[[[[[[[[[[[[[IIIIII    /^/((~//~",
")(/()^~() [[[[[[[[[[[[[[[[[[[[[[[[[[[[[[[[[[[[[[[[[[[[[[[[[[[[[[[[[[[[[[[[[[[[[[[IIIIII   ^!Q~^/(__^",
"~/^/)/~(_   [[[[[[[[[[[[[[[[[[[[[[[[[[[[[[[[[[[[[[[[[[[[[[[[[[[[[[[[[[[[[[[[[[IIIIIIIII     Q~/())(~",
"E^^^//^^_(/ [[[[[[[[[[[[[[[[[[[[[[[[[[[[[[[[[[[[[[[[[[[[[[[[[[[[[[[[[[[[[[[[[[IIIIIIIIIII    ^)_)/!Q",
"W()/))//(^^ [[[[[[[[[[[[[[[[[[[[[[[[[[[[[[[[[[[[[[[[[[[[[[[[[[[[[[[[[[[[[[[[[[IIIIIIIIIIII   ^()`^!!",
")~W!()(/(   [[[[[[[[[[[[[[[[[[[[[[[[[[[[[[[[[[[[[[[[[[[[[[[[[[[[[[[[[[[[[[[[IIIIIIIIIIIIIIII    (^~^",
"/!W!/)(/    [[YYYYYYYYYYYYYYYYYYYYYYYYYYYYYYYYYYYYYYYYYYYYYYYYYYYYYYYYYYYYYYIIIIIIIIIIIIIIII    /~~^",
"!WE!/(   [[[[[YYYYYYYYYYYYYYYYYYYYYYYYYYYYYYYYYYYYYYYYYYYYYYYYYYYYYYYYYYYYYYIIIIIIIIIIIIIIIIIIII   ~",
"WEW~(    [[[[[YYYYYYYYYYYYYYYYYYYYYYYYYYYYYYYYYYYYYYYYYYYYYYYYYYYYYYYYYYYYYYIIIIIIIIIIIIIIIIIIII   ~",
"WW!   [[[[[[[[YYYYYYYYYYYYYYYYYYYYYYYYYYYYYYYYYYYYYYYYYYYYYYYYYYYYYYYYYYYYYYIIIIIIIIIIIIIIIIIIII   ^",
"Q!^   [[[[[YYYYYYYYYYYYYYYYYYYYYYYYYYYYYYYYYYYYYYYYYYYYYYYYYYYYYYYYYYYYYYYYYYYYYYYIIIIIIIIIIIIII   ~",
"   [[[[[[[[YYYYYYYYYYYYYYYYYYYYYYYYYYYYYYYYYYYYYYYYYYYYYYYYYYYYYYYYYYYYYYYYYYYYYYYY                !",
"   [[[[[[[[YYYYYYYYYYYYYYYYYYYYYYYYYYYYYYYYYYYYYYYYYYYYYYYYYYYYYYYYYYYYYYYYYYYYYYYY               Q!",
"   [[[[[[[[YYYYYYYYYYYYYYYYYYYYYYYYYYYYYYYYYYYYYYYYYYYYYYYYYYYYYYYYYYYYYYYYYYYYYYYY !()/(~^)_/^/////",
"   [[[[[[[[YYYYYYYYYYYYYYYYYYYYYYYYYYYYYYYYYYYYYYYYYYYYYYYYYYYYYYYYYYYYYYYYYYYYYYYY QW~)~!~)`_)__)((",
"           YYYYYYYYYYYYYYYYYYYYYYYYYYYYYYYYYYYYYYYYYYYYYYYYYYYYYYYYYYYYYYYYYYYYYYYY /~!~^~^)_)()`_(/",
"           YYYYYYYYYYYYYYYYYYYYYYYYYYYYYYYYYYYYYYYYYYYYYYYYYYYYYYYYYYYYYYYYYYYYYYYY ((~W~~^((^~^((/^",
"            YYYYYYYYYYYYYYYYYYYYYYYYYYYYYYYYYYYYYYYYYYYYYYYYYYYYYYYYYYYYYYYYYYYYYYY    QQQ!^/^^/^^/(",
")~WQ~/()!QW YYYYYYYYYYYYYYYYYYYYYYYYYYYYYYYYYYYYYYYYYYYYYYYYYYYYYYYYYYYYYYYYYYYYYYYYUU W~~^^~~^/^/(_",
"///^^/((~~! YYYYYYYYYYYYYYYYYYYYYYYYYYYYYYYYYYYYYYYYYYYYYYYYYYYYYYYYYYYYYYYYYYYYYYYYUU E///~!!^/((((",
"W^)/~~^^_   YYYYYYYYYYYYYYYYYYYYYYYYYYYYYYYYYYYYYYYYYYYYYYYYYYYYYYYYYYYYYYYYYYYYYYYYYY    ~!!~(__(^!",
"!^((/^    YYYYYYYYYYYYYYYYYYYYYYYYYYYYYYYYYYYYYYYYYYYYYYYYYYYYYYYYYYYYYYYYYYYYYYYYYYYYYUU    ()())/!",
"Q!!^// UYYYYYYYYYYYYYYYYYYYYYYYYYYYYYYYYYYYYYYYYYYYYYYYYYYYYYYYYYYYYYYYYYYYYYYYYYYYYYYYYYYUU ()()_(~",
"!QW!^( UYYYYYYYYYYYYYYYYYYYYYYYYYYYYYYYYYYYYYYYYYYYYYYYYYYYYYYYYYYYYYYYYYYYYYYYYYYYYYYYYYYUU /(//(/~",
"~~!!~^ UYYYYYYYYYYYYYYYYYYYYYYYYYYYYYYYYYYYYYYYYYYYYYYYYYYYYYYYYYYYYYYYYYYYYYYYYYYYYYYYYYYUU ^^^^/^~",
"^^^^~~ UYYYYYYYYYYYYYYYYYYYYYYYYYYYYYYYYYYYYYYYYYYYYYYYYYYYYYYYYYYYYYYYYYYYYYYYYYYYYYYYYYYUU ~^~/(/^",
"!~//^^ UYYYYUUYYYYYYYYYYYYYYYYYYYYYYYYYYYYYYYYYYYYYYYYYYYYYYYYYYYYYYYYYYYYYYYYYYYYYYYYYYYYUU ~^~)(^!",
"!~^/(( UYYYYUUYYYYYYYYYYYYYYYYYYYYYYYYYYYYYYYYYYYYYYYYYYYYYYYYYYYYYYYYYYYYYYYYYYYYYUUUUYYYU  ~~!)(~W",
"~~~/)_ UYYYYUUYYYYYYYYYYYYYYYYYYYYYYYYYYYYYYYYYYYYYYYYYYYYYYYYYYYYYYYYYYYYYYYYYYYYYUUUUY    !!!W_(^Q",
"/((/(_)     UUYYYYYYYYYYYYYYYYYYYYYYYYYYYYYYYYYYYYYYYYYYYYYYYYYYYYYYYYYYYYYYYYYYYYYYYU   (/!Q~//)^~^",
"/))///^!!Q! UUYYYYYYYYYYYYYYYYYYYYYYYYYYYYYYYYYYYYYYYYYYYYYYYYYYYYYYYYYYYYYYYYYYYYYYYU (()/~!^(()^~^",
"())(^~QEQ!^  UYYYYYYYYYYYYYYYYYYYYYYYYYYYYYYYYYYYYYYYYYYYYYYYYYYYYYYYYYYYYYYYYYYYYYYYU )()(~~^()/^!~",
"^/((/^!Q!~^^   UUYYYYYYYYYYYYYYYYYYYYYYYYYYYYYYYYYYYYYYYYYYYYYYYYYYYYYYYYYYYUUUUUUU    ((((^~^)_/!WW",
"~^((/~!!^^^^~! UUYYYYYYYYYYYYYYYYYYYYYYYYYYYYYYYYYYYYYYYYYYYYYYYYYYYYYYYYYYYUUUUUUU Q/)///(/^^(_/QEW",
"~^/(^!Q!^!!~~~    UUUUUYYYYYYYYYYYYYYYYYYYYYYYYYYYYYYYYYYYYYYYYYYYYYYYYYYYY         ^)_/^/((/^/)/!Q!",
"~^/(^!!^~!QQQW!^( UUUUUYYYYYYYYYYYYYYYYYYYYYYYYYYYYYYYYYYYYYYYYYYYYYYYUUUUU !E!_)^^//))/~^)_(^^(!!~/",
"^^/(/~^)/^^~WEW~/       YYYYYYYYYYYYYYYYYYYYYYYYYYYYYYYYYYYYYYYYYYYYY       ^RE()/()//(^~^)`)^^(RQ^(",
"!^((//()'(~^//^/~/(^!Q~                                               !^~~QWEQ^/^__/^/^!E!/)(//(//~E",
"W~()(((()^~/(/~!!^((^~~                                               !~~!Q!~^~!^__^Q~//!~~~!!^/((^W",
"E!/__(/^QQ!//~WE~/((^~^((())(   PPPPPPPPPPPPPPPPPPPPPPPPPPPPPPPPPPP   /^~~~/)(~W~))~WQ^(~^^~!!~//)(^",
"W!/))/!!REQ//~QW((/~!~/__^QQ^   PPPPPPPPPPPPPPPPPPPPPPPPPPPPPPPPPPP    ////))/!Q!/)/!!~~Q^()(^~~EQ!Q",
"~!^((~QWEW!//^^/((^!Q!^))^   PPPPPPPPPPPPPPPPPPPPPPPPPPPPPPPPPPPPPPPPP   (((^QQ~///^!!QWQ^)_(~QWWQ!W",
"^!!//~QQQQ!~~!^(///^~!!~Q^   PPPPPPPPPPPPPPPPPPPPPPPPPPPPPPPPPPPPPPPPP   ^^^QRW^_(~QQQ!Q~/(/~WRR/()(",
"~QQ/)/~~~!!!QQ~((((^~!Q   PPPPPPPPPPPPPPPPPPPPPPPPPPPPPPPPPPPPPPPPPPPPPPP   ~WQ^)(~!WW!~^/(/!QWW~/((",
"QEW(`)((((/^~!^)_)/~QQQ   PPPPPPPPPPPPPPPPPPPPPPPPPPPPPPPPPPPPPPPPPPPPPPP   )^~^^^/^!WQ~~/))(^^^()_(",
"EW~))/~~~^~WW~(/)((^   PPPPPPPPPPPPPPPPPPPPPPPPPPPPPPPPPPPPPPPPPPPPPPPPPPPPP  /^(~WW~((/~/)_)(/^~^!E",
"!!^((~!~Q!!EQ/(////~   PPPPPPPPPPPPPPPPPPPPPPPPPPPPPPPPPPPPPPPPPPPPPPPPPPPPP   ^^!Q!^((///()(/~!~^~Q",
"^//(^!Q!Q!QQ~((^~~~!   PPPPPPPPPPPPPPPPPPPPPPPPPPPPPPPPPPPPPPPPPPPPPPPPPPPPP   ^!!~/()((////^~!Q^^^~",
"^()(^!QQ~~~~/)(~QQ!    PPPPPPPPPPPPPPPPPPPPPPPPPPPPPPPPPPPPPPPPPPPPPPPPPPPPP    !~^()(()/^^~^^~~^^^/",
"~/))/~!Q~~~^()/~WQ        PPPPPPPPPPPPPPPPPPPPPPPPPPPPPPPPPPPPPPPPPPPPPPP       /^^//^/)~~!~^///^^^/",
"Q^))/~!QWQ!^()/^Q   PP    PPPPPPPPPPPPPPPPPPPPPPPPPPPPPPPPPPPPPPPPPPPPPPP   PP  (^~~~!^_~!!~/())/~!^",
"W^)/~~~!WQ~/((//^^^          PPPPPPPPPPPPPPPPPPPPPPPPPPPPPPPPPPPPPPPPP         /(!W!!!^)^~!~/)(//~Q!",
"Q/(^!!~~!~/((/^^(/((   PPP   PPPPPPPPPPPPPPPPPPPPPPPPPPPPPPPPPPPPPPPPP   PPP  ^(/QEQ!!^)/^~^/(/^(!WW",
"W^)^!!^/(~!^/^^(///(   PPPP    PPPPPPPPPPPPPPPPPPPPPPPPPPPPPPPPPPPPP   PPPPP  /(~~~~/((/~!~^//~!!~~Q",
"Q/)/~^/(^~^/((((^^/(/  PPPPP   PPPPPPPPPPPPPPPPPPPPPPPPPPPPPPPPPPPP   PPPPPP ^//!!~^/(/^~!!!^^^!^///",
"~()/^~^^Q~//())(^/(//   PPPP   PPPPPPPPPPPPPPPPPPPPPPPPPPPPPPPPPPPP   PPPP  ^^^~~~^((/~Q!QQ!^/(///()",
"/((/~!QQQ~^~~()/(((/^^                                                PPP   !~^~//()(~ERQWQ!/)__((()",
"^/(/^!Q!~/^!!/((((/^~~/                                                    QQ~////(_)!ERQQ!^()(/)(//",
"~^/(/~~/((~!!/((^^~!Q!^/~!~//9f%qqqqqqqqjq*6b#e^W~(q#Xzx%6q6uvBCVZmxo~~~Q!!Q!^()~~/_)~Q!^~~^//~Q^~~!",
"!^()/!~()^!!^///~!QQ!~/(^^/)(O+3888888880$dl<$g~W~/&0c&&ag8,zFHLKJGM>^^/Q!!!~/((!!^))^~/(/^///~!WQ!Q",
"~^))^WQ^)!W!//^^~QWQ~/))/^(_(rs177777777-yy-/(/!Q~~;y;7t@50,=inNDSAw4^~^W!~^/(/~~!^)(~~(_(//()(/W!^^",
"(`))^W^~^QEW!!~~^~^^((Q^/^^^(2p:88888888222+!/^!WT^Eh:2>88888888$k8p.^~~!~^W)QQ~Q^(/^/((_^!!^__~Q~/(",
"/`))^Q^^^!Q!~~^/)//~(/W~^^~^/)(300000000:(~!^))^~W/E/p2388888888g,g+(^!!~^^W(ETE~/(//((/)~!!!//WW~/(",
"/_()/Q/^^^^^^~/)`//~//W~^~!^/((:<<<<<<<<p^~~^((^^!^E^^~(888888880,^(/~!Q!!/~_!!!/(((()(^^!QQW~^QW~/(",
"/_/(/!/^^/((^~/__^~Q/(!(^!!^((//(((/^^/(!~~~~^~!Q!!W^((_8888888800^((~QQQQ//]())))(()_(~WEQQQ^)/W~/)"
};
