/* XPM */
static char *result[] = {
/* columns rows colors chars-per-pixel */
"100 100 41 1 ",
"  c black",
". c #020307",
"X c #040207",
"o c #040406",
"O c #040507",
"+ c #050507",
"@ c #070506",
"# c #080607",
"$ c #040308",
"% c #050409",
"& c #040509",
"* c #070508",
"= c #060608",
"- c #060709",
"; c #070709",
": c #05060A",
"> c #06070B",
", c #090708",
"< c #08080A",
"1 c #0B0B0D",
"2 c #0B090E",
"3 c #20124D",
"4 c #916996",
"5 c #F2D39A",
"6 c #FCE5CD",
"7 c #D2DAE7",
"8 c #D3DBE8",
"9 c #D4DCE9",
"0 c #D5DDEA",
"q c #D6DEEB",
"w c #D7DFEC",
"e c #D8E0ED",
"r c #D9E1EE",
"t c #DAE2EF",
"y c #DBE3F0",
"u c #DCE4F1",
"i c #DDE5F2",
"p c #DEE6F3",
"a c #DFE7F4",
"s c #E0E8F5",
"d c white",
/* pixels */
"wrrrytrtwtutwwettryiywwyiyrtyyytyuuyreertwwtutq8ttyiiyyuewwruutw0qtuywqwqwetyuuutrryyewrreertttyrrew",
"wreetrerwrtrwwq0wwruutyprrewertttttttrretrtuyrwwtyuuuyre00qeyyeq0qryteweqwrtyuyytttyyttytrtyteweytre",
"9qqqrtturtttrrw0ewruiyyuereqwtuyewwertrertuutwwryiiytte000wrytw9qeeerrreqwryuuuyrrrertytrryutwqwuuyt",
"9qqwtttyrttttytrreryiuyyrrewruurqqqwerewtuiureryyiirrytqeeryute0rttwetrw0qryiiuyereqwtteqetyrwwruuyy",
"ryytyrqqrttewryuewwtuiiirrwwtit0qwewwqwwuiiutrtytytwwyyettyyyytryuyewreqqetuiuytrreqwyyrqwrreweyyytt",
"ryytyrqwyuyeweyutreryyuuyrweyurqwerrwqwetytrereeerw0wtyrerttttyyyuyreww0rtyuuytrewqqetytewereweytttt",
"qewwttryyyteeryyuyteertyurwrtretttttrreeettewwwqrewwrttrqertreeeerttrqqwrtyyuytttwqweeeeewerteeryyyt",
"weq0erruewq0wttetrewetuptwqwq9quuyttyytrryuteereteetuyrrwryyrw0000eyrqqeweryuuuuayrtteqqqqwtytrryyyy",
"ureruiutrewww00w0weertyuyrewqqruytyuywwtetyyttyyuyttuuteweryrq0wqryteqqqeeettrrtuuutewweweryuuyyptwr",
"yrwwrttreertrwqwqerrttuiyrewwwruutyutwwttyyyyyyyuyttyyyreryyrwetryuyteeeeeerreryttrwwwertttyyuuiurwt",
"trwqweeeqwtuyewwrtyytrtuyreewwruuyyyrweyyyyuuuyyiuytttyyrtyyrwruyyyyttttewwwwwryyrwqqetyuyyttyuitwwt",
"rewweree0qruyeweyyuurwettreeeeryuyytrwryuytuuyt uuytrrtytrewwwetyreetyytwqqqqqeyutewetyyyyytttyyreet",
"reeruutwqwrytertttyyrwe   weeeryuuytewryiyyuut   tteeetyteq0qwwqewqwryytewwwqqrureeryuuytyuytrrrrert",
"eeryiiyerrttretireetter   werrrtyyyrewrtiuuiu  4 rewertttrwqwew0wwwet  terttewruqqeryyytrtuiyreeqqwe",
"wryuytttttttewtiteet   dd    ttytyyreweryyu   dd   wettrerteereqqwet    wetyrwetqwrttrrretuutewwqqww",
"qtiurweytttrwqeuirey   dd    yyytyyrewerrr  44dd44  rttr0ruteeee0w   dd     eqqertyyrwqqwrttrwqwtttr",
"0tiyw0euyyyrwwryy   dddddddd4  0tyuutree   444dd444   twwruutewe0  44dd4444 utettyyyttrewryuyrewiytt",
"wyiuewriuuutewety   dddddddd44  rtyytrrr 44444dd4444  twwettttr   444dddddd    etyuyyte9wryyyytytrrt",
"etytwweyuuy      ddddddddddd444   yyy    44444dd4444  eqewertyy 44444dddddd444 wyuyyyte0eryyyuuiewey",
"tttrwwetytr      ddddddddddd44444 uyt 44444444dd4444     err    44444dddddddd4   yyterrrrtyuyyyyqqey",
"uyyttrtytrw   dddddddddddddd44444     44444444dd44444444 yuu 44444ddddddddddd444  iyewrtwryuuytr0qey",
"tyyttrrtyrw   ddddddddddddddddd4444444444444dddddd444444     44444ddddddddddd4444   eqqqqetuuytr00wr",
"erttreeetre   ddddddddddddddddd4444444444444dddddd4444444444444ddddddddddddddddd444                 ",
"wryytrrrtrr   ddddddddddddddddd4444444444444dddddd4444444444444ddddddddddddddddd4444444             ",
"              ddddddddddddddddd444444444444ddddddd4444444444444dddddddddddddddddddddddddddddddd444  ",
"             dddddddddddddddddd444444444444dddddddd444444444444dddddddddddddddddddddddddddddddd444  ",
"   ddddddddddddddddddddddddddddddd444444444dddddddd4444444444ddddddddddddddddddddddddddddddd444444  ",
"   ddddddddddddddddddddddddddddddd444444444dddddddd4444444444ddddddddddddddddddddddddddddddd444444  ",
"   ddddddddddddddddddddddddddddddd444444ddddddddddd4444444444ddddddddddddddddddddddddddddd4444      ",
"   dddddddddddddddddddddddddddddddd44444dddddddddddddd44444ddddddddddddddddddddddddddddddd4444     e",
"      ddddddddddddddddddddddddddddd44444dddddddddddddd44444dddddddddddddddddddddddddddd4444       eq",
"wui   ddddddddddddddddddddddddddddddddddddddddddddddddddddddddddddddddddddddddddddddddd444      uyrq",
"tiy      ddddddddddddddddddddddddddddddddddddddddddddddddddddddddddddddddddddddddddd44444       ie0w",
"etr      ddddddddddddddddddddddddddddddddddddddddddddddddddddddddddddddddddddddddddd444      wrturqw",
"wewet     ddddddddddddddddddddddddddddddddddddddddddddddddddddddddddddddddddddddd444444      rtyrreq",
"treryewt  ddddddddddddddddddddddddddddddddddddddddddddddddddddddddddddddddddddddd444444    trtyyette",
"uytyureyu   dddddddddddddddddddddddddddddddddddddddddddddddddddddddddddddddddd444444444     qertyiir",
"etrtuteyi   dddddddddddddddddddddddddddddddddddddddddddddddddddddddddddddddddd44444444444    etyuuye",
"9rrrttrriyt dddddddddddddddddddddddddddddddddddddddddddddddddddddddddddddddddd444444444444   ruiutwq",
"0yutuutty   dddddddddddddddddddddddddddddddddddddddddddddddddddddddddddddddd4444444444444444    prww",
"ue0wyuyt    dd666666666666666666666666666666666666666666666666666666666666664444444444444444    yrer",
"tw0wtu   ddddd6666666666666666666666666666666666666666666666666666666666666644444444444444444444   r",
"w09wt    ddddd6666666666666666666666666666666666666666666666666666666666666644444444444444444444   e",
"090   dddddddd6666666666666666666666666666666666666666666666666666666666666644444444444444444444   e",
"00w   ddddd6666666666666666666666666666666666666666666666666666666666666666666666644444444444444   r",
"   dddddddd666666666666666666666666666666666666666666666666666666666666666666666666                e",
"   dddddddd666666666666666666666666666666666666666666666666666666666666666666666666                w",
"   dddddddd666666666666666666666666666666666666666666666666666666666666666666666666               qw",
"   dddddddd666666666666666666666666666666666666666666666666666666666666666666666666 wyutyeruitrttttt",
"           666666666666666666666666666666666666666666666666666666666666666666666666 q0eueweupiuiiuyy",
"           666666666666666666666666666666666666666666666666666666666666666666666666 tewereruiuyupiyt",
"            66666666666666666666666666666666666666666666666666666666666666666666666    0eeryyreryytr",
"            66666666666666666666666666666666666666666666666666666666666666666666666655 qqqwrtrrtrrty",
"ue0qetyuwq0 66666666666666666666666666666666666666666666666666666666666666666666666655 0eerreertrtyi",
"tttrrtyye   66666666666666666666666666666666666666666666666666666666666666666666666666    tewwrtyyyy",
"0rutee    6666666666666666666666666666666666666666666666666666666666666666666666666666655    eyiiyrw",
"wryytr 5666666666666666666666666666666666666666666666666666666666666666666666666666666666655 yuyuutw",
"qwwrtt 5666666666666666666666666666666666666666666666666666666666666666666666666666666666655 yuyuiye",
"wq0wry 5666666666666666666666666666666666666666666666666666666666666666666666666666666666655 tyttyte",
"eewwer 5666666666666666666666666666666666666666666666666666666666666666666666666666666666655 rrrrtre",
"rrrree 5666655666666666666666666666666666666666666666666666666666666666666666666666666666655 eretytr",
"wettrr 566665566666666666666666666666666666666666666666666666666666666666666666666655556665  ereuyrw",
"wertyy 566665566666666666666666666666666666666666666666666666666666666666666666666655556     eewuye0",
"eeetui      55666666666666666666666666666666666666666666666666666666666666666666666665      www0iyrq",
"tyytyiu     55666666666666666666666666666666666666666666666666666666666666666666666665   ytwqetturer",
"tuutttrwwqw  5666666666666666666666666666666666666666666666666666666666666666666666665 yyutewryyurer",
"yuuyreq9qwr    55666666666666666666666666666666666666666666666666666666666665555555    uyuyeeryutrwe",
"rtyytrwqwerr   55666666666666666666666666666666666666666666666666666666666665555555    yyyyreruitw00",
"eryytewwrrrrew    555556666666666666666666666666666666666666666666666666666         qtutttytrryitq90",
"ertyrwqwrwweee    555556666666666666666666666666666666666666666666666655555         ruitrtyytrtutwqw",
"ertyrwwrewqqq0wry       666666666666666666666666666666666666666666666       w9wiurrttuuteruiyrrywwet",
"rrtyterutrre090et                                                           r89yutyuttyrerupurry8qry",
"wryyttyuayerttrtetyrwqe                                               wreeq09qrtriitrtrw9wtuyttytte9",
"0eyuyyyyuretytewwryyree         33333333333333333333333333333333333   weewqwerewriirqettweeewwrtyyr0",
"9wtiiytrqqwtte09etyyreryyyuuy   33333333333333333333333333333333333    reeetuye0euue0qryerrewwettuyr",
"0wtuutww89qtteq0yytewetiir   33333333333333333333333333333333333333333   ttuutwqwtutwweeqryuyree9qwq",
"ewryyeq090wttrrtyyrwqwruur   33333333333333333333333333333333333333333   yyyrqqetttrwwq0qruiyeq00qw0",
"rwwtteqqqqweewrytttreww   33333333333333333333333333333333333333333333333   q80riyeqqqwqetyte088tyuy",
"eqqtuteeewwwqqeyyyyrewq   33333333333333333333333333333333333333333333333   e0qruyew00wertytwq00etyy",
"q90ypuyyyytrewruiute   33333333333333333333333333333333333333333333333333333  errrtrw0qeetuuyrrryuiy",
"90euuteeere00eytuyyr   33333333333333333333333333333333333333333333333333333   rye00eyytetuiuytrerw9",
"wwryyeweqww9qtytttte   33333333333333333333333333333333333333333333333333333   rrwqwryytttyuytewereq",
"rttyrwqwqwqqeyyreee    33333333333333333333333333333333333333333333333333333    wwetyuyyttttrewqrrre",
"ryuyrwqqeeeetuyeqq        33333333333333333333333333333333333333333333333       weryuyyutrrerreerrrt",
"etuutewqeeeryute0   33    33333333333333333333333333333333333333333333333   33  trrttrtueewertttrrrt",
"qruutewq0qwryutrq            33333333333333333333333333333333333333333          yreeewriewwetyuutewr",
"0ruteeew0qetyyttrrr    333   33333333333333333333333333333333333333333   333   tyw0wwwrurewetuytteqw",
"qtyrwweewetyytrrytyy   3333    3333333333333333333333333333333333333   33333  rytq9qwwrutrertytryw00",
"0rurwwrtyewrtrryttty   33333   333333333333333333333333333333333333   333333  tyeeeetyytewerttewweeq",
"qtutertyrertyyyyrrtyt   3333   333333333333333333333333333333333333   3333   rttwwertytrewwwrrrwrttt",
"eyutrerrqettyuuyrtytt                                                 333   rrreeeryyteqwqqwrtytttyu",
"tyytewqqqereeyutyyytrr                                                      werettyuye98q0qwtuiiyyyu",
"rtytrwqwetrwwtyyyytreet                                                    qqettttyiuw98qqwryuytuytt",
"ertyteetyyewwtyyrrewqwrtewette1<.:==<#@,&>.  iur0eyu  X2&&&&&&&&*  tteeeqwwqwryueetiueqwreertteqreew",
"wryutweyurwwrtttewqqwetyrrtuyw  ;=o+=;=+%$   uye0ett               yyrrtqwwwetyywwruuretytrtttew0qwq",
"eruur0qruw0wttrreq0qetuutryiye    =;+=-O    tytwqeery             tyyrer0wertyteewruyeeyiyttyuyt0wrr",
"ypuur0rerq90wweererryyqrtrrryuuy          09wtrw07r9ut           rtuyreewer0uqqeqrytrtyyirwwriieqety",
"tpuurqrrrwqweertutteyt0errertuyty        yewruure0t9trqrrqww0qturetyyrwwerr0y979etyttyytuewwwtt00ety",
"tiyutqtrrrrrretupttett0erewrtyytyttrewertreeryyrrwr9rreyrqwreruueerytewqwwteiwwwtyyyyuyrrwqq0erq0ety",
"titytwtrrtyyretiireqtywyrwwryyttyyytrrtyweeeerewqww0ryyir0wrtyuuwwryyeqqqqttsyuuuuyyuiye09qqqrut0etu"
};
