/* XPM */
static char *result[] = {
/* columns rows colors chars-per-pixel */
"100 100 73 1 ",
"  c #D0D8E6",
". c #D1D9E6",
"X c #D1D9E7",
"o c #D2D9E7",
"O c #D2DAE7",
"+ c #D2DAE8",
"@ c #D3DAE8",
"# c #D3DBE8",
"$ c #D3DBE9",
"% c #D4DBE9",
"& c #D3DCE9",
"* c #D4DCE8",
"= c #D4DCE9",
"- c #D4DCEA",
"; c #D5DCEA",
": c #D4DDEA",
"> c #D5DDEA",
", c #D5DDEB",
"< c #D6DDEB",
"1 c #D5DEEA",
"2 c #D5DEEB",
"3 c #D6DEEA",
"4 c #D6DEEB",
"5 c #D7DEEB",
"6 c #D6DFEB",
"7 c #D7DFEB",
"8 c #D6DEEC",
"9 c #D7DEEC",
"0 c #D6DFEC",
"q c #D7DFEC",
"w c #D7DFED",
"e c #D8DFEC",
"r c #D8DFED",
"t c #D7E0ED",
"y c #D8E0EC",
"u c #D8E0ED",
"i c #D9E0ED",
"p c #D8E1ED",
"a c #D9E1ED",
"s c #D8E0EE",
"d c #D9E0EE",
"f c #D8E1EE",
"g c #D9E1EE",
"h c #D9E1EF",
"j c #DAE1EE",
"k c #DAE1EF",
"l c #D9E2EE",
"z c #D9E2EF",
"x c #DAE2EE",
"c c #DAE2EF",
"v c #DBE2EF",
"b c #DAE3EF",
"n c #DBE3EF",
"m c #DAE2F0",
"M c #DBE2F0",
"N c #DAE3F0",
"B c #DBE3F0",
"V c #DBE3F1",
"C c #DCE3F0",
"Z c #DCE3F1",
"A c #DBE4F0",
"S c #DBE4F1",
"D c #DCE4F0",
"F c #DCE4F1",
"G c #DDE4F1",
"H c #DCE5F1",
"J c #DCE4F2",
"K c #DDE4F2",
"L c #DCE5F2",
"P c #DDE5F2",
"I c #DDE5F3",
"U c #DEE5F3",
"Y c #DEE6F3",
/* pixels */
"qk<cBgkgugMcw4rMkhBFBwqmVZ4FcVcMMBFSzsuquuucBB8OuFJkBPBBgqrgBFm4#qBFZq4r;4hBPcFBcgcZMrqugqucukMhcc>4",
"uurlcurirhccsq>=uqgZBgBPb4cg>mcmVmBqqBmccdkZFu>dBMBZKB4u,#>gFMhw;4gbg<wu09hucmFPugBccBccckMcugrqcPcr",
"O4q4sBFGhkBcsggq4ugBVhBZqku>uBJmuqrgBkwuBMkBN4qBcFVLMggh4<9ucBw>quhsuBcg>udcFFZMgzggmBBcdgBZk44uBBFg",
"><u8mFcddcBBgccuuqgBFJPPgju4cVVsiq94rd48cFFMcqqcBJJughc+>gccVFu,rgggucuh84gmLZFFcgs,wcck4>acgqwdZMBB",
"gdccFB,9hmVgqhBc44gcFFJBB84ucVmw94<9dr9gMVJZMBcBcPsuwcZchcBVFBghBMmBqrq44qBZBFKggur<qcNg44gBg8ukMFBg",
"FcFVFgwhVZh9rMZFBgqcVFccFm0ukZM8wuuc8%4dcBFcrguu8Bq4quFBsdBmmBBBFFZcw9w4scBFFVdd44q4dvBg4qgguughBcgg",
"=kgquuccVFhrrgmBFMkg<BFJP>uggdgcBccBhgddmBk48u<whswddhgg4qcccq4qqgggcu-ucBmBFJcBcuq8w9suqugdrhwggBcc",
"qqq>uBBBhu4>qcggkssg4VFPgq44>4ucBBBFJBcgsBBmmuuhBqgcBVBurucBg44<,4ukc4=uqugcFFBVJBkccq4844ujMVgccFZc",
"kcquMFBcuuu<98>q9,uuqVKPdBtq>4gBVckBVhswqMMBFgcBFcchBFFu9ugBu444qsmBg4<9<dgdBuumFBBMgq9qquhBCFVVFBjs",
"BVrdhzgdrugkkq;49wMcgBVPccququgVFBBFcqschcgcVMFBHBBBBcBgsgcBguugcBVZcuwsudgrc4rBFgguq8skkkBFFFFFJh,m",
"dgr-8huu4qhBBgqrkcZFBhBZcsquuqdVFFJFgqgFFBkBFFKBABBBmgBmmBBgugcBVVBBjvccg4q4u4gBFuq,qscBMvBchBPGBg>F",
"k4q4sBd4>4gccgwgcBZBgwuBBmuuuugBFBBcgwdBFFMZZcMMZFdmcgBVmwuqwrumVcguuBFcq44q>qkBFguqscBZBBcdgMFBgurc",
"B4dcmFkrqukMmhgcBBgBgqqBguddqggBKBcgduhVZBBZBgkBkgghsucFBq9;4u98wqqugMBBuudd=ukBguugmBZBmMMcBcsuuqgg",
"cqcZVBmcggBVhgcFcwrBBggcz>wdugcMZVVkuqdVJFFFBBBcvugg,uMBgcr=4g8>44uhcccckgkBqwcBq8ucVBBchBZBBBgg<quu",
"drBFBchgfgBcqqcFcwgBBccMF4rdcmVMMBZkq4rmFFFFcuqgvg>e4kBk9ghgur9wuqgkcBdu9wdFq<hcuqgBcggwqcFVBhgr4rqq",
">kFBzquczgcg48cFZBcBBxcFFrkgFVBckcMsugsgccccg>=gqh49gVcu8sVFguuq8qkccd8w4ugFqquugcBFswu44hVBmw;4ckgg",
">ZZBg=gFBMBgqugBMcBcDnBPVkcNSBqqdMZhhcrrdqggg,4quBBdcBuqwgBFgggq4uMFg>,wsccPcgugBBBVmcgquhmBmg4gBBgc",
"uBBFu4cBFFZhqqghckkBFccBVMcScu4>gBFVNgucMgcgu-,9cgdcBkgusgBZgggrugZJcqgghMVVmw,cFFBBBBg8rkcBZZcBBguB",
"umFFw9gcZFBgwqwfcMkBcqqdqquc9,qucBBBBcdghgcdgKZgc4hcFg4qq4sggccccxBcgBFmmVZhw=#rMFFBBcw8qdcBZBBBu8gZ",
"gcmkqqgBFgrwwqqggccFc>#r>sgd#4qcBZFcgcgugcFBgBccg,cBVMuuuugcBVhuhBhqgBBBmcfq8w4qkBFCuqwugcBZBMFc4=mF",
"McccrsumZr-8wquhmcBcB4rwcMFqrdscBKFkddq4ucBFcg>ww4cBZggBccFcckuggsuucBm8wccssu4qdBFBqgmsucBBcMBhq4sc",
"JmZFMshBBgwuhccVBkcBgwgggrhcgdhmZFcgw$.=ugFBgMr+,>Bgq=gZZBZmdrrgBmgcggq%fSPmc#>9dMFVgqrs88BFPVhh4 ug",
"4mcu<shccq9dmBFFBBBc4w4qrrw94u4fBcqqwggwucVuwkquq8k>$wBSKPZdq44ugkBBcusrgBFFBF4ugBFuw=#quhmBBVhg>wqg",
"8cJcgBurdcccFPJc9kBcugq-w4uhugdccgwrggcuqBg>kcgcFc<-rMBBgg#O,,<quqqg=>quNBPBbu4smF>.>hswkZZFc4Bkqugg",
"rBhquBP>4gBFFFSVkgccgqrducBJs,qdqruqugCvuccukZcBBc,4cZFVuuhgqquugccFk4qggPFB9O4mhcFgdcBguBKKggcB>qgV",
"wgc>8mmhgcgcccFcgMZFgqkBcjBFhcurwgFcugkcFPFFZkBuh@tFsBFVhgcFguugcBFBcgBBFFB,khucFccmcBZr8BBq,ggucuV4",
"sgqquMBFJFZccchBnq#;<qwm<gg*c9;9dcBcgcBFFBFBcBFcjcg6ugBZKFBmMBBBFBABCcggggFqqMBFPZVJVBBu4urrcFcuuBF>",
"Vh=>xcBLPBguhFFFFg><rqquuccwcikcgcFBMMgugBBcmcggcB%#ucgBFVZMVmscSBMrqdghVmP=gcFPVZZmBBguuhcBBFcNBcw+",
"uqcugccucgq0gFFFBggcrugkBFug8qmZFFccguggcBFVFBchmcuqcBBSBFKFFm>>Bcuuur4qFFggcBNNhsdwygggMFgqFccBcNdq",
"=uBFFJhsgdurgZZSShwsdccBMFgqquMZBCVmquBBggcusqcVBB,kBZmgcBFBh8>qhg88,4qgBJuuuFNccBB43gBcMVd8hucFBBqu",
"4hFFMBBuuq4qgmBFSVcdgBBFZuwq4dVJFFmgugZVzcx>quFJh4rZcgcBBcBMMsquggq4qscBFPugBBBcBFc4rcgscFBhr>uFcB8w",
"uBPVckg,4wuugMFFBMud9ugkdgcg4gBZBBMhcBMMmgggggBVBsBk=gmgutcVdqrdks8wggcZPFcMJFmqcFBdckrrcFVh4,gFBZ4u",
"gZPscVu4,sccgcZFFBuusw8quBMBguggrqdsswsBFcuq4BBMBccw,Bhw=qMFc;>dgsghcckBFFZFFssumVgqhgrrkFM4=4ccBc>g",
"cFuwcFgrqgBZgqhMBcggcgurcBcBdqqq9qw9>4hFFg>;uFFZFgg4ucuq4gMFV8=4wwgcBZkZMkJwc,quNu>4gq4wgBcq>4cmBg-u",
"hu4ughgggBBcuuggwqggghrkcMVg>8qudkmhquMVcq48cZZVqquqgcrqgcMggw4qwdccBBruquVqg>4gN;>ukk4qccBcducmqzu8",
"hgggcuscVVcghmgqqugggccMMVhq4>ugMBZVccBBu4ucVFJJu44rhdqqcmBdguughmVVcgqqqgFucsqdr4whMFcgchcBgdcBucVu",
"BBBcKdskFVhcMVcquuquBBBZZV4qw8gcBBBBcBCCr=uBBZJJgf4uMg9uggccBcccBBBFcqqwkBF4FmshrugcBBcwwcBg44cFFBFh",
"sccMBhdcZVmZZFmruuucBFFZMm>gscchugccccBFg>ugcMVVgcsdMBdsuugcBMgcVVBBcqqukFZqFdrBMccMFc84uBcqwqcFJFc,",
"4scBmMccZBcZBgudkhcBBFFBc>fBBFBc8qgckdcZZcggkBBMBBMkcMguugBMsugcBkcZMuwkMFFgc<rBZZZZBgqsggcudkBFFBg&",
"qcdgZFchBcgBvq4ukhchkMchu=BFFcgccgchr9dBBmhgcBZgBBFgk<4ucccgqucBgrdkguuBZFBgu>ukhBFFMgggqqgu4gZZVcwu",
"cc,wBPccBcgMFBuqrhhggkgw4wcVBu4gBcMgqquguw4qccM4scPuk#qgBFgqucMMgwuduuwBkcdfqwquuucFFccsqugq>cZZMk>B",
"gq$scBFBFcgcFBuuschBsgdqq9ccBBuggucd44qqqq4cBku=ukSsgqgmBFg5umMBhugcguququrw84wuu4gFFmgrruuugBZZcsuc",
"944ukcmmFBBmmFchmsscqq4ugrMBPmkMkgBc,=4qqscFFFdcgBgrqrgVFcgigcvBBMBFcdq>>qu4w4ugccmBBgg44q>qgBFZcmkq",
">>>sgBmcFFZVBMcd82uBg4qggumBgwudquBcuqwugcVFVVcBBBZFurcBFccccchMVMckdMuq>uqwuuccBFFFFcgshBcgsBFBqu94",
"4,qgABcBVMkmBccd<4gFB8gBMucVwukk4qcZFFd4gmVVFgucKMMBu9dqgugcuquBcq><8d9u8uqghgcFBBBBBgqruhmckBBc4qqc",
"8geBFugBFmcmhfhhgccBVBFPBggucBFBsucBBFBw8gcgcuqBFIJkg84qq8ww>4cBBg49gh-qqcBBVmcBBBhsu4<4>quqdukcc4gq",
"sgZFFukkhgcmhsqucZBVccFBg>udBMFBqucBBPJmr44;wq4cFJZcBqguuhhddcFFBu#,uc-4ugFFKr4qgBccu4wsgmu>4=qqgq>4",
"uBBBgugh4qmFkqqgBFJBwmBhBqdZBFFBqqccBMcBcq>,488sgFFFcgccuqukkdcFcu49quruBBBPBr4ggBg94ucBBZmq>>>ugd8g",
"sZrhsgkuqcBFs,9cFFFBuBkPFukBBPFFkcgkkMBmBBdkw=4gcFLFYmt4q=qhuucFZccgqrkgkKZZ4uucBPu>uBBVz8sFFcBBFghc",
"sgusiu$>qccFBuuBPm>qugmFKgBhZBFFgBB<O#qcmBcu-44wBYgZFkr4>ucFFggBMmhhw,8qKPNsqcMVmBggq#qVmugFPFBFPcKF",
"rwud%qu4uhmcBBcnDAHB9smcFmcgcFFJFUKkw4uccgcBZFFJFccBucggcNcBJBmFMmPc#gBbgP>uuFMBUg;9kcgdrqgBFLFBSFFc",
"gg4g>4gBMcuqgBFccs#q8uggggw4cFmBBmh4uBmcg>4BhugBFBFugcMgcBJFPFcvBBPJBgcBMcu%>cFFcurdMg44udgcBB4gBBVs",
"g.$-qugZPc4qgccBBZu<qr;=wwgVFB=wdg>whqrqqccgccBPFBYu4w8qwBBVggBVmcBBqqFmw9uhhugF8ugg4qu>=8uMZchcgmSB",
"FBs4gcBF>>2qggkFZMMukdwrgdcBFs>,uu4<-%9dMFcrkFBvqq%q#-=44hVFc,-wurMFc4q4uucBFZcFguuuukuqgmcsuqucBczK",
"g,ggujcBBu44qdcBFBKBu,sFBchFPB48#8qqq9ucBBuqcFco$>sg44qwugBugcdurqcFmgugcmFPYBBBcccBVmuwhcgw4qcmgcBJ",
"5sBguuucFJcqqucFFVZFgqgg4hBFFFBcuqqusgcBFBcccBm4quVcpuggmBFBcVg9ugBBMcgcZFBvmMBBgcBFF4$8sdwqscBBFFB>",
"qkkdguucBJcqqgBFFZVcnugcuc4usuhFcq>qhmBcrssgmccqqgu4a@ucNBFBcMgrrgBPFcBcuckcfhqdugFFFq>qugggmmBFFZZ>",
"qwquBBghVCjuqwMBmMgucFBr4herw4ugdguufsrqququsub4uhugv;uuggggguuuugBVBBZuqusdmB>4qgBFBggcnZBcmVKZBKBq",
"qq9gdcgcVj>4rrgmMc>>cPF<uBckdququkg9quqq4>qwggBucMcFgh4uu49rqqugrru4w,u4udmkZKu%4kZZmsggMFBguMkMBZB<",
"<r9,ruggmk44rddgmg94cBF4gZBBwwrqgZkqugt8>>4uccFmMMBVBF,4w8sckgcBkrsgg-+>%rkBBZg4rkVJm84uBFVgugrrcggd",
"qgggsrgkMkw9esgcs>9ucBZquMFBkggcBFcgccw4qqugBBFcBcFqcBuqsgcFJBBFBschu8-q,ugVFBcgsuhcgrqsmBcw9uqdBgsd",
"tgdMhhcBMgsughmFcrqqgBduumFFJcBBFBhcBmuuBmmBFKZcBSP2hcgikmBFBBFFcccq9ssmmhBJVZBBusgu9quhmBcwqggmFBm>",
"qqqsBBBFmggquBBFFcuuccggdZZVccBDBhgcswqrccmBZZZcFPPsguuwmBFBcBgugguqqchBBBFBMBBZcmsq44uhMBcgghwqFMm=",
"gqucFFFBgu4>uFZZFmrruqqggKMmgmgcccccq4<>qgcVBvvcBBggkquucBFZBc54uuqquBBBBVFmZgggcg94qucBBBggus44Fmuq",
"BccFFFKgrq4wNFZVFmurqu=ucPdsVhqsBVBcguq,4hcFFciBggqcBuuhchmZMwqsguuudmcMBBcmc448dr<4ucVVBVcq4uscVmqc",
"VZBccxk44qdMBBVVmhgqugqcVm,8BdqsBBBcduuugcmBBcsurugBFccmcudBcsskMgurrqu9ccBuq>4qhduugcmmBZh88scFVB4c",
"mKZksq9=44uBcugVVkhqu4gVVr%>g44cBBBchgcBFFBzghs>qscMZZMchdgcudhmFFBd4=r,ccFg44uqquzuqgBMMVmhgcBFmkwu",
"8VBPkMuqwuucg>4BZBBMd4sFJu,8w%8hcVBuqgBFFBgu7ugcquckZddusrsq=4hcBVmhu9ggBFZcuugqu004>qmCBBZmshFBu948",
"sgcFguqqkgugg9rBFBcBBquBFuX-=uguzBcw4wmZMgrqqcmB4ggcuqw499<qruBZcguwucBmcBNMcccFc#=qdcVmcBNfwgFFB>=w",
"gucVguqwrr9qr9qMFFgcBcgcV,8+$uBkNBcckdhZJkrrgBBZusgh=94>rgddgcZBgwrrcMBJMBw9uusBF#4rgBPcwcFcghmBBqqs",
"qkkFquwwqqr9944gMVcMmwugscbF89kZBs4rdgBBmu9kBBBMBucm8-qgkkgkkccu9q4dccGCd4guu#8cBggdhZKcgMBVFgkBr>gc",
"uukBgucmBhqr4=4gmVNgc>,q+uBuss>4q=4kchcgqqgkcuuucFkr48gd444gAFFc4>wuuuBg@#cFq>qcVFPBmVBgrdMJZdgB=4Bh",
">uBKccBFKBckguggzgBBquwggFBgMNq4usmBFFMsqwBSsdrgcVcq4sc@.=whBFcq,$O<4qduqqu4s>rkVBFcdkMq>ucBBcFFgFg#",
">chVBBmVBgqrcFc4qgcmsurMcPFFPcgdgcBFJPc8wdZBqqggZPFqgwr<uggdcZcgq>4uqrq4uw>:qqqukMPB>9hguqggququgcM-",
"<qBFPcBuuswgcq#,smBckgccPZJBmBVkmBFVccuqgcFm=gBFBBFk;.4gBg44urugugccBFBsqgqFBMr4gkFg>8mNhuuMguggBBmf",
"OwBcFFu8O#4gccu8hBBq4mBFFV,djCBdMPBgmJFugBkq4gBFFB,.4q>cPwqsughccMjcBFFkkmBBKd84ucFu;<wqwdcBctgu4$hs",
"qggBF>qw>,qBBgurkFBu>ugFBcwgcFcghkMMBBcccVmucBBBBP>wdgcBcshcBFVmhBFVFPBBBPcBMquskckk8qq>4kZKFqo<w,g#",
"Bq4cFqq><<>qq9gBBchwuuuq4NVBF9gg-=4ggucMgBFcmFBJFwwuzBcBgscSJFVcugcFBqq8BugcO==kcB<wgqqugcBmqq>>qgZV",
"uOqcFFqqudee98kZFVhkBq4rucFBcucBcqqg9,hFFZMcmgucwwuuucuuguBFFBBd<quBBq4su4MBcq>sBFgu=+>uhcBBqq#qcBPB",
"8-uVVKcBccms4qcFVZZc%4qqcFPucBZKgucg4qgcguusd4qBmBcch4wdcBBFJMgq>sgBcquggqqmBfduch9quuquhcBBBMqcFMFB",
"-8hZZhshqsc4,ucZBBBgu0ggVFBhugsh,q<<944quugg44qguq8m=9skBFFBBBBgwgccdggw8qgBZBgdSu#>ucBhgBcBZBucdgs#",
">ugBF8rq>u<%9gcBBccggqccJJcr4dddqggccguqqus->q,>q#qM,4smVBBckZJBhhVBcBBswdgBBMcgfq8qdBJcgMVVFBswqus<",
"uBBVcrw4ws>4gkcccs4ququBFF8+=scBBcMZBguushcccq44qugZsqgBFhBMcFBs8qhcVFZdquccFkcsqqgBcBJBkkcgdg4qsc9u",
"ccFBwu44uhrdBFBs8499uugBMF9O,kBBFccZF4=ugcFFFugugBBZVqgFFmBFgqgggkmBBKFgwqgqBhgs8ecFBcVFguhuqddqgFsB",
"wsFFguq94rdkVJBq,4uwhBFmcPM4uMcBFckBFc4uMZPFcugBBFZKPduccmBcr9uguhBFJKBccq=ugugmcjcBccBZcqquucBcghaB",
"qsFCccdr4qucFFBuwqghBBFhgFcqmMBMkudmFMugZVFBu>dZBcMFFZcccBcuqumcwsBZJBugBg-uuqdBZmugdgcMh>>ccBVJcgug",
"quFBuwuq44ucBVmggucBBBghcuq8smmr<8umFgucBSBB0=gSFugcBFFZZBccugmssmBMBgqtcmu8uqsVFq,q88gVcqqgcBBMmw4w",
">gBBu4gsq5gcBhgBccBBBFsqgquugchu#,uBFggmccgg1>gBFuugBcMMcugBggq<dBBBZdwhgg>>4ukJV4>4qucMhguqgccsmu>,",
">cBguskVceucBgkBcvBVBc<>qggMFBmc>9ggBccmsqucq8ucBcudhqgcg>gVkg44cBBBk<wh>u4s>dMFhuqgccZkuuusgcu4wgu,",
"ugBg4ghBcuugcBFcsgBVcs>wgBgcZBBuqdr4gBcgsugmhsucBVq;q>dgu9cBmr8ucBBBs4rq4cFIugccuugcBBFhqqusscw4<gBg",
"chBZggauqgcmBVFBccBB4ccgvCBBZcBq4ur9ghuuxmuwscBBms4-wwhu>qcBc44ugBVVBVr9gmVBkgsgssgcFguq4w4qgcccmBBB",
"hVBMgqq><kkgcVFBcBBMqZcBuggFBFBwugcBVs4qgg>wsBFSgqcVgsBg=4jBcquggMVBBg4<mcBu8wsBBgcFF9#=44>ucCPKFJVB",
"fBBVu>ugucr<rhBBBBBckggBr>>ccccgcBFFBgswwq4uhBFZuqcFcqBgusgccuqdddzNc>wuucu8wgcFggZKZd==q4qgcCFmBmcB",
"ugcJPsuhBBgrshBVhcd498rBu=gVcwucBFFBsqgks><gBFBc>9NBBBVBddducVgu<=gBBufu>u4>wcvC>9cVZu8wuqqhmBM,ciiw",
">uMBFwgcBBgqdkMk4r;=wsmJsgVJBqumBBgrwgkkMcdcMZMu#rMMJFZMucMMBBguuugBVsggh4uuuBBccuBKFggcMMgcmMu44qu8",
"uBVcB$<cBu8wdcchgw44gcMmccBVFuhVJFc9wsrdBFMkBcc8qughJFMdgccuqrddqgBMBcgg>=BghVBuq>gZkrgBZZVmBBcz>qru",
"MPPVJ9qgs#-uq4ugdshuBBg4rhkhFBVBFZBcguwhFB>@kuuh>Ow#Fhusggu,O;dMkgBVMgg48gB4ugqq4uBchkcVZFg8BFFu<9kc",
"MFPJuqqgBgu4qgucFBcuBg,suJq8cFBFJBcu6qgmBgqBBBB9u>zimmushO>uqwcFg9BFhmwgscs=c# -uMBFBVFVVh4>Mugqwqcd",
"JFZVg;dMBjiuwscBBgucgh8suc=ugCgmBcgguugccuu4>zPBg4u.ucccg99qukBBg4gcg4qqu#bPgBugBBcBmBFcgu>qqqhq=rBJ",
"VFmmFuMirmFBcgcPPcq4dMrBc49kFGccBBBBghVcuugshgu4#cqucBBLw,9dkVJSw8kZFg40r>BBKcBgBFFFVPBq#O;44cFV,ubF"
};
