/* XPM */
static char *result[] = {
/* columns rows colors chars-per-pixel */
"14 16 5 1 ",
". c #222034",
", c #EF3838",
"7 c #DF7126",
"C c white",
"  c None",
/* pixels */
"     ,,,,     ",
"    ......    ",
"    CCCCCC    ",
"   C.CCCC.C   ",
"    C77CCC    ",
"    770000    ",
"    CCC00C    ",
"   CC.CC00C   ",
"   CCCCCCCC   ",
"    C..CCC    ",
"   CCCCCCCC   ",
"  CCC..CCCCC  ",
"  CCCCCCCCCC  ",
"   CCCCCCCC   ",
"    CCCCCC    ",
"              ",
};